G75*
%MOIN*%
%OFA0B0*%
%FSLAX24Y24*%
%IPPOS*%
%LPD*%
%AMOC8*
5,1,8,0,0,1.08239X$1,22.5*
%
%ADD10OC8,0.0640*%
%ADD11C,0.0600*%
%ADD12C,0.0595*%
%ADD13OC8,0.0600*%
%ADD14C,0.1340*%
%ADD15C,0.0867*%
%ADD16C,0.0789*%
%ADD17OC8,0.0710*%
%ADD18C,0.0710*%
%ADD19OC8,0.0680*%
%ADD20C,0.0654*%
%ADD21C,0.0986*%
%ADD22C,0.2080*%
%ADD23C,0.0830*%
%ADD24OC8,0.0830*%
D10*
X006055Y013930D03*
X006055Y014930D03*
X007055Y014930D03*
X007055Y013930D03*
X007055Y015930D03*
X006055Y015930D03*
X006055Y016930D03*
X007055Y016930D03*
X007055Y017930D03*
X006055Y017930D03*
X006055Y018930D03*
X007055Y018930D03*
X007055Y019930D03*
X006055Y019930D03*
X006055Y020930D03*
X007055Y020930D03*
X007055Y021930D03*
X006055Y021930D03*
X006055Y022930D03*
X007055Y022930D03*
X007055Y023930D03*
X006055Y023930D03*
X006055Y024930D03*
X007055Y024930D03*
X007055Y025930D03*
X006055Y025930D03*
X034805Y026180D03*
X035805Y026180D03*
X035805Y027180D03*
X034805Y027180D03*
X034805Y028180D03*
X035805Y028180D03*
X035805Y029180D03*
X034805Y029180D03*
X034805Y030180D03*
X035805Y030180D03*
X035805Y012180D03*
X034805Y012180D03*
X034805Y011180D03*
X035805Y011180D03*
X035805Y010180D03*
X034805Y010180D03*
X034805Y009180D03*
X035805Y009180D03*
X035805Y008180D03*
X034805Y008180D03*
D11*
X031055Y007920D02*
X031055Y008440D01*
X030055Y008440D02*
X030055Y007920D01*
X029055Y007920D02*
X029055Y008440D01*
X028055Y008440D02*
X028055Y007920D01*
X027055Y007920D02*
X027055Y008440D01*
X026055Y008440D02*
X026055Y007920D01*
X025055Y007920D02*
X025055Y008440D01*
X022555Y009170D02*
X022555Y009690D01*
X021065Y009680D02*
X020545Y009680D01*
X020545Y010680D02*
X021065Y010680D01*
X021065Y011680D02*
X020545Y011680D01*
X020545Y012680D02*
X021065Y012680D01*
X021065Y013680D02*
X020545Y013680D01*
X018065Y013680D02*
X017545Y013680D01*
X017545Y012680D02*
X018065Y012680D01*
X018065Y011680D02*
X017545Y011680D01*
X017545Y010680D02*
X018065Y010680D01*
X018065Y009680D02*
X017545Y009680D01*
X017545Y008680D02*
X018065Y008680D01*
X018065Y007680D02*
X017545Y007680D01*
X017545Y006680D02*
X018065Y006680D01*
X016315Y006680D02*
X015795Y006680D01*
X015795Y005680D02*
X016315Y005680D01*
X014575Y005930D02*
X014055Y005930D01*
X014055Y004930D02*
X014575Y004930D01*
X014575Y006930D02*
X014055Y006930D01*
X014055Y007930D02*
X014575Y007930D01*
X014575Y008930D02*
X014055Y008930D01*
X014055Y009930D02*
X014575Y009930D01*
X014575Y010930D02*
X014055Y010930D01*
X014055Y011930D02*
X014575Y011930D01*
X014575Y012930D02*
X014055Y012930D01*
X014055Y013930D02*
X014575Y013930D01*
X014575Y014930D02*
X014055Y014930D01*
X014055Y015930D02*
X014575Y015930D01*
X014575Y016930D02*
X014055Y016930D01*
X014055Y017930D02*
X014575Y017930D01*
X014575Y018930D02*
X014055Y018930D01*
X014055Y019930D02*
X014575Y019930D01*
X014565Y022430D02*
X014045Y022430D01*
X014045Y023430D02*
X014565Y023430D01*
X014565Y024430D02*
X014045Y024430D01*
X014045Y025430D02*
X014565Y025430D01*
X014565Y026430D02*
X014045Y026430D01*
X014045Y027430D02*
X014565Y027430D01*
X014565Y028430D02*
X014045Y028430D01*
X014045Y029430D02*
X014565Y029430D01*
X014565Y030430D02*
X014045Y030430D01*
X014045Y031430D02*
X014565Y031430D01*
X015795Y031180D02*
X016315Y031180D01*
X016315Y032180D02*
X015795Y032180D01*
X017545Y031680D02*
X018065Y031680D01*
X018065Y030680D02*
X017545Y030680D01*
X017545Y029680D02*
X018065Y029680D01*
X018065Y028680D02*
X017545Y028680D01*
X017545Y027680D02*
X018065Y027680D01*
X018065Y026680D02*
X017545Y026680D01*
X017545Y025680D02*
X018065Y025680D01*
X018065Y024680D02*
X017545Y024680D01*
X016315Y024180D02*
X015795Y024180D01*
X015795Y025180D02*
X016315Y025180D01*
X016315Y026180D02*
X015795Y026180D01*
X015795Y027180D02*
X016315Y027180D01*
X016315Y028180D02*
X015795Y028180D01*
X015795Y029180D02*
X016315Y029180D01*
X016315Y030180D02*
X015795Y030180D01*
X014555Y034180D02*
X014035Y034180D01*
X014035Y035180D02*
X014555Y035180D01*
X014555Y036180D02*
X014035Y036180D01*
X014035Y037180D02*
X014555Y037180D01*
X017555Y037180D02*
X018075Y037180D01*
X018075Y036180D02*
X017555Y036180D01*
X017555Y035180D02*
X018075Y035180D01*
X018075Y034180D02*
X017555Y034180D01*
X019285Y034180D02*
X019805Y034180D01*
X019805Y035180D02*
X019285Y035180D01*
X019285Y036180D02*
X019805Y036180D01*
X019805Y037180D02*
X019285Y037180D01*
X022805Y037180D02*
X023325Y037180D01*
X023325Y036180D02*
X022805Y036180D01*
X022805Y035180D02*
X023325Y035180D01*
X023325Y034180D02*
X022805Y034180D01*
X024535Y034180D02*
X025055Y034180D01*
X025055Y035180D02*
X024535Y035180D01*
X024535Y036180D02*
X025055Y036180D01*
X025055Y037180D02*
X024535Y037180D01*
X028055Y037180D02*
X028575Y037180D01*
X028575Y036180D02*
X028055Y036180D01*
X028055Y035180D02*
X028575Y035180D01*
X028575Y034180D02*
X028055Y034180D01*
X029045Y032680D02*
X029565Y032680D01*
X029565Y031680D02*
X029045Y031680D01*
X028065Y031680D02*
X027545Y031680D01*
X027545Y030680D02*
X028065Y030680D01*
X029045Y030680D02*
X029565Y030680D01*
X029565Y029680D02*
X029045Y029680D01*
X028065Y029680D02*
X027545Y029680D01*
X027545Y028680D02*
X028065Y028680D01*
X029045Y028680D02*
X029565Y028680D01*
X029565Y027680D02*
X029045Y027680D01*
X028065Y027680D02*
X027545Y027680D01*
X027545Y026680D02*
X028065Y026680D01*
X029045Y026680D02*
X029565Y026680D01*
X029565Y025680D02*
X029045Y025680D01*
X028065Y025680D02*
X027545Y025680D01*
X027545Y024680D02*
X028065Y024680D01*
X029045Y024680D02*
X029565Y024680D01*
X029565Y023680D02*
X029045Y023680D01*
X028065Y023680D02*
X027545Y023680D01*
X026325Y023430D02*
X025805Y023430D01*
X025805Y024430D02*
X026325Y024430D01*
X026325Y025430D02*
X025805Y025430D01*
X025805Y026430D02*
X026325Y026430D01*
X026325Y028680D02*
X025805Y028680D01*
X025805Y029680D02*
X026325Y029680D01*
X026325Y030680D02*
X025805Y030680D01*
X025805Y031680D02*
X026325Y031680D01*
X022805Y031680D02*
X022285Y031680D01*
X022285Y030680D02*
X022805Y030680D01*
X022805Y029680D02*
X022285Y029680D01*
X022285Y028680D02*
X022805Y028680D01*
X021065Y028680D02*
X020545Y028680D01*
X020545Y029680D02*
X021065Y029680D01*
X021065Y030680D02*
X020545Y030680D01*
X020545Y031680D02*
X021065Y031680D01*
X021065Y027680D02*
X020545Y027680D01*
X020545Y026680D02*
X021065Y026680D01*
X021065Y025680D02*
X020545Y025680D01*
X020545Y024680D02*
X021065Y024680D01*
X022285Y024430D02*
X022805Y024430D01*
X022805Y025430D02*
X022285Y025430D01*
X022285Y026430D02*
X022805Y026430D01*
X022805Y023430D02*
X022285Y023430D01*
X022285Y020680D02*
X022805Y020680D01*
X022805Y019680D02*
X022285Y019680D01*
X021325Y019680D02*
X020805Y019680D01*
X020805Y018680D02*
X021325Y018680D01*
X022285Y018680D02*
X022805Y018680D01*
X022805Y017680D02*
X022285Y017680D01*
X021325Y017680D02*
X020805Y017680D01*
X017805Y017680D02*
X017285Y017680D01*
X017285Y018680D02*
X017805Y018680D01*
X017805Y019680D02*
X017285Y019680D01*
X017285Y020680D02*
X017805Y020680D01*
X020805Y020680D02*
X021325Y020680D01*
X025805Y020680D02*
X026325Y020680D01*
X027285Y020680D02*
X027805Y020680D01*
X027805Y019680D02*
X027285Y019680D01*
X026325Y019680D02*
X025805Y019680D01*
X025805Y018680D02*
X026325Y018680D01*
X027285Y018680D02*
X027805Y018680D01*
X027805Y017680D02*
X027285Y017680D01*
X026325Y017680D02*
X025805Y017680D01*
X026055Y015190D02*
X026055Y014670D01*
X027055Y014670D02*
X027055Y015190D01*
X028055Y015190D02*
X028055Y014670D01*
X029055Y014670D02*
X029055Y015190D01*
X030055Y015190D02*
X030055Y014670D01*
X031055Y014670D02*
X031055Y015190D01*
X030805Y017680D02*
X031325Y017680D01*
X031325Y018680D02*
X030805Y018680D01*
X030805Y019680D02*
X031325Y019680D01*
X031325Y020680D02*
X030805Y020680D01*
X032045Y023680D02*
X032565Y023680D01*
X032565Y024680D02*
X032045Y024680D01*
X032045Y025680D02*
X032565Y025680D01*
X032565Y026680D02*
X032045Y026680D01*
X032045Y027680D02*
X032565Y027680D01*
X032565Y028680D02*
X032045Y028680D01*
X032045Y029680D02*
X032565Y029680D01*
X032565Y030680D02*
X032045Y030680D01*
X032045Y031680D02*
X032565Y031680D01*
X032565Y032680D02*
X032045Y032680D01*
X031055Y034410D02*
X031055Y034930D01*
X030055Y034930D02*
X030055Y034410D01*
X030055Y037930D02*
X030055Y038450D01*
X031055Y038450D02*
X031055Y037930D01*
X035305Y021440D02*
X035305Y020920D01*
X035305Y017440D02*
X035305Y016920D01*
X031055Y012190D02*
X031055Y011670D01*
X030055Y011670D02*
X030055Y012190D01*
X029055Y012190D02*
X029055Y011670D01*
X028055Y011670D02*
X028055Y012190D01*
X027055Y012190D02*
X027055Y011670D01*
X026055Y011670D02*
X026055Y012190D01*
X025055Y012190D02*
X025055Y011670D01*
X025055Y014670D02*
X025055Y015190D01*
X021065Y008680D02*
X020545Y008680D01*
X020545Y007680D02*
X021065Y007680D01*
X021065Y006680D02*
X020545Y006680D01*
X022555Y005690D02*
X022555Y005170D01*
X025055Y004920D02*
X025055Y005440D01*
X026055Y005440D02*
X026055Y004920D01*
X027055Y004920D02*
X027055Y005440D01*
X028055Y005440D02*
X028055Y004920D01*
X029055Y004920D02*
X029055Y005440D01*
X030055Y005440D02*
X030055Y004920D01*
X031055Y004920D02*
X031055Y005440D01*
X023825Y002680D02*
X023305Y002680D01*
X023305Y001680D02*
X023825Y001680D01*
X020305Y001680D02*
X019785Y001680D01*
X019785Y002680D02*
X020305Y002680D01*
X016315Y007680D02*
X015795Y007680D01*
X015795Y008680D02*
X016315Y008680D01*
X016315Y009680D02*
X015795Y009680D01*
X015795Y010680D02*
X016315Y010680D01*
X016315Y011680D02*
X015795Y011680D01*
X015795Y012680D02*
X016315Y012680D01*
X016315Y013680D02*
X015795Y013680D01*
X011055Y013930D02*
X010535Y013930D01*
X010535Y014930D02*
X011055Y014930D01*
X011055Y015930D02*
X010535Y015930D01*
X010535Y016930D02*
X011055Y016930D01*
X011055Y017930D02*
X010535Y017930D01*
X010535Y018930D02*
X011055Y018930D01*
X011055Y019930D02*
X010535Y019930D01*
X011045Y022430D02*
X011565Y022430D01*
X011565Y023430D02*
X011045Y023430D01*
X011045Y024430D02*
X011565Y024430D01*
X011565Y025430D02*
X011045Y025430D01*
X011045Y026430D02*
X011565Y026430D01*
X011565Y027430D02*
X011045Y027430D01*
X011045Y028430D02*
X011565Y028430D01*
X011565Y029430D02*
X011045Y029430D01*
X011045Y030430D02*
X011565Y030430D01*
X011565Y031430D02*
X011045Y031430D01*
X009815Y030430D02*
X009295Y030430D01*
X009295Y029430D02*
X009815Y029430D01*
X009815Y028430D02*
X009295Y028430D01*
X009295Y027430D02*
X009815Y027430D01*
X009815Y026430D02*
X009295Y026430D01*
X009295Y025430D02*
X009815Y025430D01*
X009815Y024430D02*
X009295Y024430D01*
X009295Y023430D02*
X009815Y023430D01*
X009815Y022430D02*
X009295Y022430D01*
X010535Y012930D02*
X011055Y012930D01*
X011055Y011930D02*
X010535Y011930D01*
X010535Y010930D02*
X011055Y010930D01*
X011055Y009930D02*
X010535Y009930D01*
X010535Y008930D02*
X011055Y008930D01*
X011055Y007930D02*
X010535Y007930D01*
X010535Y006930D02*
X011055Y006930D01*
X011055Y005930D02*
X010535Y005930D01*
X010535Y004930D02*
X011055Y004930D01*
D12*
X006805Y029180D03*
X006805Y030180D03*
X006805Y031180D03*
X006805Y032180D03*
D13*
X005555Y032180D03*
X005555Y031180D03*
X005555Y030180D03*
X005555Y029180D03*
X012305Y032930D03*
X013305Y032930D03*
X015555Y038430D03*
X016555Y038430D03*
X020805Y038430D03*
X021805Y038430D03*
X026055Y038430D03*
X027055Y038430D03*
X032305Y038430D03*
X032305Y034430D03*
X034805Y032930D03*
X035805Y032930D03*
X035805Y023180D03*
X034805Y023180D03*
X034055Y021180D03*
X032555Y019680D03*
X032555Y018680D03*
X034055Y017180D03*
X034805Y015180D03*
X035805Y015180D03*
X032305Y013930D03*
X032305Y012930D03*
X031055Y010680D03*
X030055Y010680D03*
X030055Y009680D03*
X031055Y009680D03*
X029055Y009680D03*
X029055Y010680D03*
X027055Y010680D03*
X026055Y010680D03*
X026055Y009680D03*
X027055Y009680D03*
X025055Y009680D03*
X025055Y010680D03*
X023805Y012930D03*
X023805Y013930D03*
X023805Y016430D03*
X024805Y016430D03*
X028805Y016430D03*
X029805Y016430D03*
X029805Y021930D03*
X028805Y021930D03*
X024805Y021930D03*
X023805Y021930D03*
X019805Y021930D03*
X018805Y021930D03*
X018805Y016430D03*
X019805Y016430D03*
X013305Y021180D03*
X012305Y021180D03*
X010805Y021180D03*
X009805Y021180D03*
X007055Y011180D03*
X006055Y011180D03*
X007555Y008930D03*
X004055Y007680D03*
X004055Y006680D03*
X003555Y008930D03*
X006305Y003930D03*
X006305Y002680D03*
X006305Y001680D03*
X008055Y002430D03*
X008555Y001680D03*
X009055Y002430D03*
X010305Y001930D03*
X010305Y002930D03*
X010305Y003930D03*
X014305Y002930D03*
X014305Y001930D03*
X015305Y002180D03*
X016055Y001680D03*
X016055Y002680D03*
X017305Y005430D03*
X021305Y005430D03*
X023805Y006180D03*
X023805Y007180D03*
X024805Y002930D03*
X024805Y001430D03*
X028805Y001430D03*
X028805Y002930D03*
X032305Y006180D03*
X032305Y007180D03*
X034805Y005430D03*
X035805Y005430D03*
X024805Y027680D03*
X023805Y027680D03*
D14*
X003061Y002936D03*
X003061Y036794D03*
X036920Y036794D03*
X036920Y002936D03*
D15*
X033047Y001940D03*
X031047Y001940D03*
X038046Y018172D03*
X038046Y020172D03*
D16*
X038201Y023680D02*
X038910Y023680D01*
X038910Y024680D02*
X038201Y024680D01*
X038201Y025680D02*
X038910Y025680D01*
X038910Y026680D02*
X038201Y026680D01*
X038201Y027680D02*
X038910Y027680D01*
X038910Y028680D02*
X038201Y028680D01*
X038201Y029680D02*
X038910Y029680D01*
X038910Y030680D02*
X038201Y030680D01*
X038201Y031680D02*
X038910Y031680D01*
X038910Y032680D02*
X038201Y032680D01*
X034555Y038076D02*
X034555Y038784D01*
X033555Y038784D02*
X033555Y038076D01*
X038201Y014680D02*
X038910Y014680D01*
X038910Y013680D02*
X038201Y013680D01*
X038201Y012680D02*
X038910Y012680D01*
X038910Y011680D02*
X038201Y011680D01*
X038201Y010680D02*
X038910Y010680D01*
X038910Y009680D02*
X038201Y009680D01*
X038201Y008680D02*
X038910Y008680D01*
X038910Y007680D02*
X038201Y007680D01*
X038201Y006680D02*
X038910Y006680D01*
X038910Y005680D02*
X038201Y005680D01*
D17*
X018305Y002680D03*
X017055Y015930D03*
X002805Y033380D03*
D18*
X002805Y031980D03*
X016055Y015930D03*
X018305Y001680D03*
D19*
X003805Y013410D03*
X002805Y013950D03*
X002805Y015040D03*
X003805Y015580D03*
X003805Y016670D03*
X002805Y017210D03*
X003805Y017760D03*
X002805Y018300D03*
X002805Y019390D03*
X003805Y019930D03*
X003805Y021020D03*
X002805Y021560D03*
X002805Y022650D03*
X003805Y023190D03*
X002805Y023730D03*
X003805Y024280D03*
X003805Y025360D03*
X002805Y024820D03*
X002805Y025910D03*
X003805Y026450D03*
X003805Y022100D03*
X002805Y020470D03*
X003805Y018840D03*
X002805Y016130D03*
X003805Y014500D03*
X002305Y008430D03*
X002305Y005930D03*
X032305Y016180D03*
X032305Y022180D03*
D20*
X011183Y034076D02*
X011183Y034650D01*
X010199Y034650D02*
X010199Y034076D01*
X009412Y034076D02*
X009412Y034650D01*
X008428Y034650D02*
X008428Y034076D01*
D21*
X007219Y035430D03*
X012392Y035430D03*
D22*
X003305Y029190D03*
X003305Y010670D03*
D23*
X005555Y006180D03*
D24*
X007555Y006180D03*
M02*
