G75*
%MOIN*%
%OFA0B0*%
%FSLAX24Y24*%
%IPPOS*%
%LPD*%
%AMOC8*
5,1,8,0,0,1.08239X$1,22.5*
%
%ADD10OC8,0.0560*%
%ADD11C,0.0520*%
%ADD12C,0.0515*%
%ADD13OC8,0.0520*%
%ADD14C,0.0787*%
%ADD15C,0.0709*%
%ADD16OC8,0.0630*%
%ADD17C,0.0630*%
%ADD18OC8,0.0600*%
%ADD19C,0.0574*%
%ADD20C,0.2000*%
%ADD21C,0.0750*%
%ADD22OC8,0.0750*%
%ADD23C,0.0100*%
D10*
X006055Y013930D03*
X006055Y014930D03*
X007055Y014930D03*
X007055Y013930D03*
X007055Y015930D03*
X006055Y015930D03*
X006055Y016930D03*
X007055Y016930D03*
X007055Y017930D03*
X006055Y017930D03*
X006055Y018930D03*
X007055Y018930D03*
X007055Y019930D03*
X006055Y019930D03*
X006055Y020930D03*
X007055Y020930D03*
X007055Y021930D03*
X006055Y021930D03*
X006055Y022930D03*
X007055Y022930D03*
X007055Y023930D03*
X006055Y023930D03*
X006055Y024930D03*
X007055Y024930D03*
X007055Y025930D03*
X006055Y025930D03*
X034805Y026180D03*
X035805Y026180D03*
X035805Y027180D03*
X034805Y027180D03*
X034805Y028180D03*
X035805Y028180D03*
X035805Y029180D03*
X034805Y029180D03*
X034805Y030180D03*
X035805Y030180D03*
X035805Y012180D03*
X034805Y012180D03*
X034805Y011180D03*
X035805Y011180D03*
X035805Y010180D03*
X034805Y010180D03*
X034805Y009180D03*
X035805Y009180D03*
X035805Y008180D03*
X034805Y008180D03*
D11*
X031055Y007920D02*
X031055Y008440D01*
X030055Y008440D02*
X030055Y007920D01*
X029055Y007920D02*
X029055Y008440D01*
X028055Y008440D02*
X028055Y007920D01*
X027055Y007920D02*
X027055Y008440D01*
X026055Y008440D02*
X026055Y007920D01*
X025055Y007920D02*
X025055Y008440D01*
X022555Y009170D02*
X022555Y009690D01*
X021065Y009680D02*
X020545Y009680D01*
X020545Y010680D02*
X021065Y010680D01*
X021065Y011680D02*
X020545Y011680D01*
X020545Y012680D02*
X021065Y012680D01*
X021065Y013680D02*
X020545Y013680D01*
X018065Y013680D02*
X017545Y013680D01*
X017545Y012680D02*
X018065Y012680D01*
X018065Y011680D02*
X017545Y011680D01*
X017545Y010680D02*
X018065Y010680D01*
X018065Y009680D02*
X017545Y009680D01*
X017545Y008680D02*
X018065Y008680D01*
X018065Y007680D02*
X017545Y007680D01*
X017545Y006680D02*
X018065Y006680D01*
X016315Y006680D02*
X015795Y006680D01*
X015795Y005680D02*
X016315Y005680D01*
X014575Y005930D02*
X014055Y005930D01*
X014055Y004930D02*
X014575Y004930D01*
X014575Y006930D02*
X014055Y006930D01*
X014055Y007930D02*
X014575Y007930D01*
X014575Y008930D02*
X014055Y008930D01*
X014055Y009930D02*
X014575Y009930D01*
X014575Y010930D02*
X014055Y010930D01*
X014055Y011930D02*
X014575Y011930D01*
X014575Y012930D02*
X014055Y012930D01*
X014055Y013930D02*
X014575Y013930D01*
X014575Y014930D02*
X014055Y014930D01*
X014055Y015930D02*
X014575Y015930D01*
X014575Y016930D02*
X014055Y016930D01*
X014055Y017930D02*
X014575Y017930D01*
X014575Y018930D02*
X014055Y018930D01*
X014055Y019930D02*
X014575Y019930D01*
X014565Y022430D02*
X014045Y022430D01*
X014045Y023430D02*
X014565Y023430D01*
X014565Y024430D02*
X014045Y024430D01*
X014045Y025430D02*
X014565Y025430D01*
X014565Y026430D02*
X014045Y026430D01*
X014045Y027430D02*
X014565Y027430D01*
X014565Y028430D02*
X014045Y028430D01*
X014045Y029430D02*
X014565Y029430D01*
X014565Y030430D02*
X014045Y030430D01*
X014045Y031430D02*
X014565Y031430D01*
X015795Y031180D02*
X016315Y031180D01*
X016315Y032180D02*
X015795Y032180D01*
X017545Y031680D02*
X018065Y031680D01*
X018065Y030680D02*
X017545Y030680D01*
X017545Y029680D02*
X018065Y029680D01*
X018065Y028680D02*
X017545Y028680D01*
X017545Y027680D02*
X018065Y027680D01*
X018065Y026680D02*
X017545Y026680D01*
X017545Y025680D02*
X018065Y025680D01*
X018065Y024680D02*
X017545Y024680D01*
X016315Y024180D02*
X015795Y024180D01*
X015795Y025180D02*
X016315Y025180D01*
X016315Y026180D02*
X015795Y026180D01*
X015795Y027180D02*
X016315Y027180D01*
X016315Y028180D02*
X015795Y028180D01*
X015795Y029180D02*
X016315Y029180D01*
X016315Y030180D02*
X015795Y030180D01*
X014555Y034180D02*
X014035Y034180D01*
X014035Y035180D02*
X014555Y035180D01*
X014555Y036180D02*
X014035Y036180D01*
X014035Y037180D02*
X014555Y037180D01*
X017555Y037180D02*
X018075Y037180D01*
X018075Y036180D02*
X017555Y036180D01*
X017555Y035180D02*
X018075Y035180D01*
X018075Y034180D02*
X017555Y034180D01*
X019285Y034180D02*
X019805Y034180D01*
X019805Y035180D02*
X019285Y035180D01*
X019285Y036180D02*
X019805Y036180D01*
X019805Y037180D02*
X019285Y037180D01*
X022805Y037180D02*
X023325Y037180D01*
X023325Y036180D02*
X022805Y036180D01*
X022805Y035180D02*
X023325Y035180D01*
X023325Y034180D02*
X022805Y034180D01*
X024535Y034180D02*
X025055Y034180D01*
X025055Y035180D02*
X024535Y035180D01*
X024535Y036180D02*
X025055Y036180D01*
X025055Y037180D02*
X024535Y037180D01*
X028055Y037180D02*
X028575Y037180D01*
X028575Y036180D02*
X028055Y036180D01*
X028055Y035180D02*
X028575Y035180D01*
X028575Y034180D02*
X028055Y034180D01*
X029045Y032680D02*
X029565Y032680D01*
X029565Y031680D02*
X029045Y031680D01*
X028065Y031680D02*
X027545Y031680D01*
X027545Y030680D02*
X028065Y030680D01*
X029045Y030680D02*
X029565Y030680D01*
X029565Y029680D02*
X029045Y029680D01*
X028065Y029680D02*
X027545Y029680D01*
X027545Y028680D02*
X028065Y028680D01*
X029045Y028680D02*
X029565Y028680D01*
X029565Y027680D02*
X029045Y027680D01*
X028065Y027680D02*
X027545Y027680D01*
X027545Y026680D02*
X028065Y026680D01*
X029045Y026680D02*
X029565Y026680D01*
X029565Y025680D02*
X029045Y025680D01*
X028065Y025680D02*
X027545Y025680D01*
X027545Y024680D02*
X028065Y024680D01*
X029045Y024680D02*
X029565Y024680D01*
X029565Y023680D02*
X029045Y023680D01*
X028065Y023680D02*
X027545Y023680D01*
X026325Y023430D02*
X025805Y023430D01*
X025805Y024430D02*
X026325Y024430D01*
X026325Y025430D02*
X025805Y025430D01*
X025805Y026430D02*
X026325Y026430D01*
X026325Y028680D02*
X025805Y028680D01*
X025805Y029680D02*
X026325Y029680D01*
X026325Y030680D02*
X025805Y030680D01*
X025805Y031680D02*
X026325Y031680D01*
X022805Y031680D02*
X022285Y031680D01*
X022285Y030680D02*
X022805Y030680D01*
X022805Y029680D02*
X022285Y029680D01*
X022285Y028680D02*
X022805Y028680D01*
X021065Y028680D02*
X020545Y028680D01*
X020545Y029680D02*
X021065Y029680D01*
X021065Y030680D02*
X020545Y030680D01*
X020545Y031680D02*
X021065Y031680D01*
X021065Y027680D02*
X020545Y027680D01*
X020545Y026680D02*
X021065Y026680D01*
X021065Y025680D02*
X020545Y025680D01*
X020545Y024680D02*
X021065Y024680D01*
X022285Y024430D02*
X022805Y024430D01*
X022805Y025430D02*
X022285Y025430D01*
X022285Y026430D02*
X022805Y026430D01*
X022805Y023430D02*
X022285Y023430D01*
X022285Y020680D02*
X022805Y020680D01*
X022805Y019680D02*
X022285Y019680D01*
X021325Y019680D02*
X020805Y019680D01*
X020805Y018680D02*
X021325Y018680D01*
X022285Y018680D02*
X022805Y018680D01*
X022805Y017680D02*
X022285Y017680D01*
X021325Y017680D02*
X020805Y017680D01*
X017805Y017680D02*
X017285Y017680D01*
X017285Y018680D02*
X017805Y018680D01*
X017805Y019680D02*
X017285Y019680D01*
X017285Y020680D02*
X017805Y020680D01*
X020805Y020680D02*
X021325Y020680D01*
X025805Y020680D02*
X026325Y020680D01*
X027285Y020680D02*
X027805Y020680D01*
X027805Y019680D02*
X027285Y019680D01*
X026325Y019680D02*
X025805Y019680D01*
X025805Y018680D02*
X026325Y018680D01*
X027285Y018680D02*
X027805Y018680D01*
X027805Y017680D02*
X027285Y017680D01*
X026325Y017680D02*
X025805Y017680D01*
X026055Y015190D02*
X026055Y014670D01*
X027055Y014670D02*
X027055Y015190D01*
X028055Y015190D02*
X028055Y014670D01*
X029055Y014670D02*
X029055Y015190D01*
X030055Y015190D02*
X030055Y014670D01*
X031055Y014670D02*
X031055Y015190D01*
X030805Y017680D02*
X031325Y017680D01*
X031325Y018680D02*
X030805Y018680D01*
X030805Y019680D02*
X031325Y019680D01*
X031325Y020680D02*
X030805Y020680D01*
X032045Y023680D02*
X032565Y023680D01*
X032565Y024680D02*
X032045Y024680D01*
X032045Y025680D02*
X032565Y025680D01*
X032565Y026680D02*
X032045Y026680D01*
X032045Y027680D02*
X032565Y027680D01*
X032565Y028680D02*
X032045Y028680D01*
X032045Y029680D02*
X032565Y029680D01*
X032565Y030680D02*
X032045Y030680D01*
X032045Y031680D02*
X032565Y031680D01*
X032565Y032680D02*
X032045Y032680D01*
X031055Y034410D02*
X031055Y034930D01*
X030055Y034930D02*
X030055Y034410D01*
X030055Y037930D02*
X030055Y038450D01*
X031055Y038450D02*
X031055Y037930D01*
X035305Y021440D02*
X035305Y020920D01*
X035305Y017440D02*
X035305Y016920D01*
X031055Y012190D02*
X031055Y011670D01*
X030055Y011670D02*
X030055Y012190D01*
X029055Y012190D02*
X029055Y011670D01*
X028055Y011670D02*
X028055Y012190D01*
X027055Y012190D02*
X027055Y011670D01*
X026055Y011670D02*
X026055Y012190D01*
X025055Y012190D02*
X025055Y011670D01*
X025055Y014670D02*
X025055Y015190D01*
X021065Y008680D02*
X020545Y008680D01*
X020545Y007680D02*
X021065Y007680D01*
X021065Y006680D02*
X020545Y006680D01*
X022555Y005690D02*
X022555Y005170D01*
X025055Y004920D02*
X025055Y005440D01*
X026055Y005440D02*
X026055Y004920D01*
X027055Y004920D02*
X027055Y005440D01*
X028055Y005440D02*
X028055Y004920D01*
X029055Y004920D02*
X029055Y005440D01*
X030055Y005440D02*
X030055Y004920D01*
X031055Y004920D02*
X031055Y005440D01*
X023825Y002680D02*
X023305Y002680D01*
X023305Y001680D02*
X023825Y001680D01*
X020305Y001680D02*
X019785Y001680D01*
X019785Y002680D02*
X020305Y002680D01*
X016315Y007680D02*
X015795Y007680D01*
X015795Y008680D02*
X016315Y008680D01*
X016315Y009680D02*
X015795Y009680D01*
X015795Y010680D02*
X016315Y010680D01*
X016315Y011680D02*
X015795Y011680D01*
X015795Y012680D02*
X016315Y012680D01*
X016315Y013680D02*
X015795Y013680D01*
X011055Y013930D02*
X010535Y013930D01*
X010535Y014930D02*
X011055Y014930D01*
X011055Y015930D02*
X010535Y015930D01*
X010535Y016930D02*
X011055Y016930D01*
X011055Y017930D02*
X010535Y017930D01*
X010535Y018930D02*
X011055Y018930D01*
X011055Y019930D02*
X010535Y019930D01*
X011045Y022430D02*
X011565Y022430D01*
X011565Y023430D02*
X011045Y023430D01*
X011045Y024430D02*
X011565Y024430D01*
X011565Y025430D02*
X011045Y025430D01*
X011045Y026430D02*
X011565Y026430D01*
X011565Y027430D02*
X011045Y027430D01*
X011045Y028430D02*
X011565Y028430D01*
X011565Y029430D02*
X011045Y029430D01*
X011045Y030430D02*
X011565Y030430D01*
X011565Y031430D02*
X011045Y031430D01*
X009815Y030430D02*
X009295Y030430D01*
X009295Y029430D02*
X009815Y029430D01*
X009815Y028430D02*
X009295Y028430D01*
X009295Y027430D02*
X009815Y027430D01*
X009815Y026430D02*
X009295Y026430D01*
X009295Y025430D02*
X009815Y025430D01*
X009815Y024430D02*
X009295Y024430D01*
X009295Y023430D02*
X009815Y023430D01*
X009815Y022430D02*
X009295Y022430D01*
X010535Y012930D02*
X011055Y012930D01*
X011055Y011930D02*
X010535Y011930D01*
X010535Y010930D02*
X011055Y010930D01*
X011055Y009930D02*
X010535Y009930D01*
X010535Y008930D02*
X011055Y008930D01*
X011055Y007930D02*
X010535Y007930D01*
X010535Y006930D02*
X011055Y006930D01*
X011055Y005930D02*
X010535Y005930D01*
X010535Y004930D02*
X011055Y004930D01*
D12*
X006805Y029180D03*
X006805Y030180D03*
X006805Y031180D03*
X006805Y032180D03*
D13*
X005555Y032180D03*
X005555Y031180D03*
X005555Y030180D03*
X005555Y029180D03*
X012305Y032930D03*
X013305Y032930D03*
X015555Y038430D03*
X016555Y038430D03*
X020805Y038430D03*
X021805Y038430D03*
X026055Y038430D03*
X027055Y038430D03*
X032305Y038430D03*
X032305Y034430D03*
X034805Y032930D03*
X035805Y032930D03*
X035805Y023180D03*
X034805Y023180D03*
X034055Y021180D03*
X032555Y019680D03*
X032555Y018680D03*
X034055Y017180D03*
X034805Y015180D03*
X035805Y015180D03*
X032305Y013930D03*
X032305Y012930D03*
X031055Y010680D03*
X030055Y010680D03*
X030055Y009680D03*
X031055Y009680D03*
X029055Y009680D03*
X029055Y010680D03*
X027055Y010680D03*
X026055Y010680D03*
X026055Y009680D03*
X027055Y009680D03*
X025055Y009680D03*
X025055Y010680D03*
X023805Y012930D03*
X023805Y013930D03*
X023805Y016430D03*
X024805Y016430D03*
X028805Y016430D03*
X029805Y016430D03*
X029805Y021930D03*
X028805Y021930D03*
X024805Y021930D03*
X023805Y021930D03*
X019805Y021930D03*
X018805Y021930D03*
X018805Y016430D03*
X019805Y016430D03*
X013305Y021180D03*
X012305Y021180D03*
X010805Y021180D03*
X009805Y021180D03*
X007055Y011180D03*
X006055Y011180D03*
X007555Y008930D03*
X004055Y007680D03*
X004055Y006680D03*
X003555Y008930D03*
X006305Y003930D03*
X006305Y002680D03*
X006305Y001680D03*
X008055Y002430D03*
X008555Y001680D03*
X009055Y002430D03*
X010305Y001930D03*
X010305Y002930D03*
X010305Y003930D03*
X014305Y002930D03*
X014305Y001930D03*
X015305Y002180D03*
X016055Y001680D03*
X016055Y002680D03*
X017305Y005430D03*
X021305Y005430D03*
X023805Y006180D03*
X023805Y007180D03*
X024805Y002930D03*
X024805Y001430D03*
X028805Y001430D03*
X028805Y002930D03*
X032305Y006180D03*
X032305Y007180D03*
X034805Y005430D03*
X035805Y005430D03*
X024805Y027680D03*
X023805Y027680D03*
D14*
X038046Y020172D03*
X038046Y018172D03*
X033047Y001940D03*
X031047Y001940D03*
D15*
X038201Y005680D02*
X038910Y005680D01*
X038910Y006680D02*
X038201Y006680D01*
X038201Y007680D02*
X038910Y007680D01*
X038910Y008680D02*
X038201Y008680D01*
X038201Y009680D02*
X038910Y009680D01*
X038910Y010680D02*
X038201Y010680D01*
X038201Y011680D02*
X038910Y011680D01*
X038910Y012680D02*
X038201Y012680D01*
X038201Y013680D02*
X038910Y013680D01*
X038910Y014680D02*
X038201Y014680D01*
X038201Y023680D02*
X038910Y023680D01*
X038910Y024680D02*
X038201Y024680D01*
X038201Y025680D02*
X038910Y025680D01*
X038910Y026680D02*
X038201Y026680D01*
X038201Y027680D02*
X038910Y027680D01*
X038910Y028680D02*
X038201Y028680D01*
X038201Y029680D02*
X038910Y029680D01*
X038910Y030680D02*
X038201Y030680D01*
X038201Y031680D02*
X038910Y031680D01*
X038910Y032680D02*
X038201Y032680D01*
X034555Y038076D02*
X034555Y038784D01*
X033555Y038784D02*
X033555Y038076D01*
D16*
X017055Y015930D03*
X018305Y002680D03*
X002805Y033380D03*
D17*
X002805Y031980D03*
X016055Y015930D03*
X018305Y001680D03*
D18*
X002305Y005930D03*
X002305Y008430D03*
X003805Y013410D03*
X002805Y013950D03*
X002805Y015040D03*
X003805Y015580D03*
X003805Y016670D03*
X002805Y017210D03*
X003805Y017760D03*
X002805Y018300D03*
X002805Y019390D03*
X003805Y019930D03*
X003805Y021020D03*
X002805Y021560D03*
X002805Y022650D03*
X003805Y023190D03*
X002805Y023730D03*
X003805Y024280D03*
X003805Y025360D03*
X002805Y024820D03*
X002805Y025910D03*
X003805Y026450D03*
X003805Y022100D03*
X002805Y020470D03*
X003805Y018840D03*
X002805Y016130D03*
X003805Y014500D03*
X032305Y016180D03*
X032305Y022180D03*
D19*
X011183Y034076D02*
X011183Y034650D01*
X010199Y034650D02*
X010199Y034076D01*
X009412Y034076D02*
X009412Y034650D01*
X008428Y034650D02*
X008428Y034076D01*
D20*
X003305Y029190D03*
X003305Y010670D03*
D21*
X005555Y006180D03*
D22*
X007555Y006180D03*
D23*
X007805Y005930D01*
X011055Y005930D01*
X011501Y005930D01*
X011501Y005735D01*
X014305Y002930D01*
X015805Y002930D01*
X016055Y002680D01*
X018305Y002680D01*
X020305Y002680D01*
X020305Y001680D02*
X018305Y001680D01*
X017805Y002180D01*
X015305Y002180D01*
X014555Y002180D01*
X014305Y001930D01*
X015862Y001486D02*
X008749Y001486D01*
X008555Y001680D01*
X008055Y002430D02*
X007305Y001680D01*
X006305Y001680D01*
X006305Y002680D02*
X006555Y002930D01*
X010305Y002930D01*
X010305Y003930D02*
X009160Y005075D01*
X005660Y005075D01*
X004055Y006680D01*
X003055Y006680D01*
X002305Y005930D01*
X002305Y008430D02*
X004055Y008430D01*
X006055Y010430D01*
X006055Y011180D01*
X006055Y010430D02*
X007555Y008930D01*
X007743Y010492D02*
X011242Y010492D01*
X011937Y011187D01*
X011937Y020747D01*
X010239Y020747D01*
X009805Y021180D01*
X009374Y020998D02*
X009374Y022248D01*
X009555Y022430D01*
X009993Y022868D01*
X013868Y022868D01*
X014305Y022430D01*
X013305Y021180D02*
X012872Y020747D01*
X011937Y020747D01*
X012305Y021180D02*
X012055Y021430D01*
X011305Y021430D01*
X011055Y021430D01*
X010805Y021180D01*
X011305Y021430D02*
X011305Y022430D01*
X010305Y023430D02*
X011305Y024430D01*
X009993Y024868D02*
X013868Y024868D01*
X014305Y024430D01*
X014998Y024340D02*
X014998Y026738D01*
X014305Y027430D01*
X014744Y027868D02*
X011743Y027868D01*
X011305Y027430D01*
X010305Y027430D02*
X011305Y028430D01*
X009993Y028868D02*
X013868Y028868D01*
X014305Y028430D01*
X014744Y027868D02*
X015204Y027407D01*
X015204Y027151D01*
X015609Y026746D01*
X016819Y026746D01*
X017187Y027115D01*
X018499Y027115D01*
X020434Y025180D01*
X021566Y025180D01*
X022316Y024430D01*
X022805Y024430D01*
X022931Y024930D02*
X026805Y021055D01*
X026805Y020519D01*
X027644Y019680D01*
X027805Y019680D01*
X028237Y019680D02*
X028237Y019501D01*
X027972Y019237D01*
X026249Y019237D01*
X025805Y019680D01*
X025366Y019241D01*
X021245Y019241D01*
X020805Y019680D01*
X020305Y019032D02*
X014998Y024340D01*
X016055Y024180D02*
X016555Y024680D01*
X017805Y024680D01*
X017305Y025180D02*
X017805Y025680D01*
X017305Y025180D02*
X016055Y025180D01*
X016055Y026180D02*
X017305Y026180D01*
X017805Y026680D01*
X017805Y027680D02*
X016555Y027680D01*
X016055Y027180D01*
X016055Y028180D02*
X016555Y028680D01*
X017805Y028680D01*
X017805Y029680D02*
X016555Y029680D01*
X016055Y029180D01*
X016055Y030180D02*
X016335Y030460D01*
X017585Y030460D01*
X017805Y030680D01*
X017805Y031680D02*
X016555Y031680D01*
X016055Y031180D01*
X016055Y032180D02*
X014695Y032180D01*
X014375Y031860D01*
X013305Y032930D01*
X012687Y032311D01*
X009937Y032311D01*
X006805Y029180D01*
X005555Y029180D01*
X004986Y029140D02*
X004986Y029610D01*
X005555Y030180D01*
X006805Y030180D01*
X006805Y031180D02*
X005555Y031180D01*
X003605Y031180D01*
X002805Y031980D01*
X002805Y033380D02*
X004355Y033380D01*
X005555Y032180D01*
X006805Y032180D01*
X006805Y031180D02*
X008000Y031180D01*
X011183Y034363D01*
X010684Y036619D02*
X015116Y036619D01*
X015116Y037991D01*
X015555Y038430D01*
X015996Y038871D01*
X021365Y038871D01*
X021805Y038430D01*
X026055Y038430D01*
X027621Y036614D02*
X023240Y036614D01*
X022805Y036180D01*
X022375Y035750D01*
X017986Y035750D01*
X017555Y036180D01*
X017555Y037180D02*
X018805Y038430D01*
X020805Y038430D01*
X022055Y037180D01*
X022805Y037180D01*
X022594Y035617D02*
X021720Y034743D01*
X017993Y034743D01*
X017555Y035180D01*
X017555Y034180D02*
X015116Y036619D01*
X014555Y036180D02*
X014555Y035930D01*
X020805Y029680D01*
X020805Y027680D02*
X021550Y026935D01*
X021550Y026556D01*
X022676Y025430D01*
X022805Y025430D01*
X022931Y024930D02*
X022172Y024930D01*
X021550Y025551D01*
X021550Y025935D01*
X020805Y026680D01*
X023805Y027680D02*
X025055Y026430D01*
X025805Y026430D01*
X025805Y025430D02*
X025357Y024982D01*
X025357Y023267D01*
X027498Y021126D01*
X027974Y021126D01*
X028237Y020863D01*
X028237Y019680D01*
X030805Y019680D01*
X030805Y020680D02*
X029805Y021680D01*
X029805Y021930D01*
X028805Y021930D02*
X028805Y023229D01*
X026006Y023229D01*
X025805Y023430D01*
X025805Y024430D02*
X025954Y024430D01*
X027104Y025580D01*
X027104Y025978D01*
X027805Y026680D01*
X028805Y027680D01*
X029305Y027680D01*
X029305Y028680D02*
X029805Y029180D01*
X034805Y029180D01*
X035305Y029680D01*
X036563Y029680D01*
X037563Y030680D01*
X038555Y030680D01*
X038555Y029680D02*
X038080Y029204D01*
X035830Y029204D01*
X035805Y029180D01*
X035305Y028680D02*
X034805Y028180D01*
X032805Y028180D01*
X032305Y028680D01*
X032305Y029680D02*
X031868Y030118D01*
X028243Y030118D01*
X027805Y029680D01*
X027805Y028680D02*
X028805Y029680D01*
X029305Y029680D01*
X029305Y030680D02*
X029743Y031118D01*
X034868Y031118D01*
X035805Y030180D01*
X035305Y028680D02*
X038555Y028680D01*
X038555Y027680D02*
X036305Y027680D01*
X035805Y028180D01*
X034805Y027180D02*
X034805Y026984D01*
X032501Y024680D01*
X032305Y024680D01*
X031868Y024118D02*
X032305Y023680D01*
X031868Y024118D02*
X028243Y024118D01*
X027805Y023680D01*
X028805Y023229D02*
X028855Y023229D01*
X029305Y023680D01*
X028243Y025243D02*
X031868Y025243D01*
X032305Y025680D01*
X034805Y026180D02*
X036305Y024680D01*
X038555Y024680D01*
X038555Y023680D02*
X038055Y023180D01*
X038640Y022596D01*
X038640Y018766D01*
X038046Y018172D01*
X037054Y017180D01*
X035305Y017180D01*
X034055Y017180D01*
X034055Y016430D01*
X033805Y016180D01*
X034805Y015180D01*
X035805Y015180D02*
X036025Y014961D01*
X038275Y014961D01*
X038275Y014961D01*
X038555Y014680D01*
X036305Y012324D02*
X036305Y011680D01*
X035805Y011180D01*
X035305Y010680D02*
X038555Y010680D01*
X038555Y009680D02*
X036305Y009680D01*
X035805Y010180D01*
X036011Y009637D02*
X035263Y009637D01*
X034805Y009180D01*
X034805Y010180D02*
X035305Y010680D01*
X036011Y009637D02*
X036968Y008680D01*
X038555Y008680D01*
X038555Y007680D02*
X037305Y007680D01*
X035805Y009180D01*
X034805Y008180D02*
X036305Y006680D01*
X035305Y005680D01*
X035305Y005308D01*
X034485Y004487D01*
X025748Y004487D01*
X025055Y005180D01*
X025334Y005871D02*
X026365Y005871D01*
X027055Y005180D01*
X025334Y005871D02*
X024525Y006680D01*
X020805Y006680D01*
X020805Y007680D02*
X023945Y007680D01*
X025266Y006359D01*
X028876Y006359D01*
X030055Y005180D01*
X031055Y005180D02*
X032135Y006259D01*
X032214Y006180D01*
X032305Y006180D01*
X032135Y006259D02*
X031845Y006549D01*
X031845Y008262D01*
X030613Y009493D01*
X030613Y010238D01*
X031055Y010680D01*
X030055Y010680D01*
X029055Y009680D01*
X028622Y009246D01*
X026489Y009246D01*
X026055Y009680D01*
X025055Y009680D01*
X023936Y008101D02*
X021384Y008101D01*
X020805Y008680D01*
X021747Y008739D02*
X022854Y008739D01*
X022995Y008879D01*
X027356Y008879D01*
X028055Y008180D01*
X030055Y008180D02*
X030055Y009680D01*
X031055Y009680D02*
X034805Y005930D01*
X034805Y005430D01*
X036305Y006680D02*
X038555Y006680D01*
X038555Y011680D02*
X036305Y011680D01*
X036305Y012324D02*
X035267Y013363D01*
X031944Y013363D01*
X031626Y013045D01*
X026170Y013045D01*
X025055Y011930D01*
X024563Y012500D02*
X020986Y012500D01*
X020805Y012680D01*
X020993Y013493D02*
X020805Y013680D01*
X020993Y013493D02*
X026618Y013493D01*
X028055Y014930D01*
X027055Y014930D02*
X026055Y013930D01*
X023805Y013930D01*
X024563Y012500D02*
X025329Y013266D01*
X029392Y013266D01*
X031055Y014930D01*
X032305Y016180D02*
X033805Y016180D01*
X030805Y017680D02*
X030055Y017680D01*
X028805Y016430D01*
X027375Y018250D02*
X020608Y018250D01*
X020305Y018553D01*
X020305Y019032D01*
X020805Y017680D02*
X020805Y017305D01*
X020876Y017234D01*
X024251Y017234D01*
X024805Y016680D01*
X024805Y016430D01*
X024805Y016680D02*
X025805Y017680D01*
X027375Y018250D02*
X027805Y018680D01*
X025805Y020680D02*
X025055Y020680D01*
X023805Y021930D01*
X021475Y021930D01*
X020805Y021260D01*
X020475Y021260D01*
X019805Y021930D01*
X019256Y022380D02*
X024355Y022380D01*
X024805Y021930D01*
X028243Y025243D02*
X027805Y025680D01*
X027805Y027680D02*
X026866Y028620D01*
X026866Y028760D01*
X026446Y029180D01*
X025678Y029180D01*
X023354Y031505D01*
X023354Y032935D01*
X022375Y033913D01*
X022375Y034750D01*
X022805Y035180D01*
X022594Y035617D02*
X026970Y035617D01*
X027977Y034610D01*
X028778Y034610D01*
X029021Y034367D01*
X029021Y033992D01*
X028550Y033522D01*
X027039Y033522D01*
X025348Y031831D01*
X025348Y031525D01*
X025627Y031247D01*
X027239Y031247D01*
X027805Y030680D01*
X028805Y031680D01*
X029305Y031680D01*
X028305Y032180D02*
X031805Y032180D01*
X032305Y032680D01*
X032499Y032486D01*
X035362Y032486D01*
X035805Y032930D01*
X038305Y032930D01*
X038555Y032680D01*
X034555Y038308D02*
X034555Y038430D01*
X034555Y038308D02*
X031177Y034930D01*
X031055Y034930D01*
X030871Y033977D02*
X030055Y034793D01*
X030055Y034930D01*
X030871Y033977D02*
X031853Y033977D01*
X032305Y034430D01*
X030055Y037930D02*
X028305Y036180D01*
X028055Y036180D01*
X027621Y036614D01*
X027618Y034618D02*
X028055Y034180D01*
X027618Y034618D02*
X023243Y034618D01*
X022805Y034180D01*
X025805Y031680D02*
X027805Y031680D01*
X028305Y032180D01*
X025805Y028680D02*
X024805Y027680D01*
X019256Y022380D02*
X018805Y021930D01*
X020805Y021260D02*
X020805Y020680D01*
X020805Y017305D02*
X020680Y017305D01*
X019805Y016430D01*
X019305Y015930D01*
X017055Y015930D01*
X016055Y015930D02*
X014055Y015930D01*
X016055Y013680D02*
X017805Y013680D01*
X017805Y012680D02*
X016055Y012680D01*
X016055Y011680D02*
X017805Y011680D01*
X017805Y010680D02*
X016055Y010680D01*
X015279Y011456D01*
X015279Y011870D01*
X014219Y012930D01*
X014055Y012930D01*
X014055Y010930D02*
X014805Y010930D01*
X016055Y009680D01*
X017805Y009680D01*
X017805Y008680D02*
X016055Y008680D01*
X014305Y008680D01*
X014055Y008930D01*
X015744Y007680D02*
X014994Y006930D01*
X014055Y006930D01*
X015744Y007680D02*
X016055Y007680D01*
X017805Y007680D01*
X017805Y006680D02*
X016055Y006680D01*
X014305Y004930D01*
X014055Y004930D01*
X011501Y005930D02*
X011501Y007485D01*
X011055Y007930D01*
X011055Y010930D02*
X009055Y010930D01*
X006055Y013930D01*
X004325Y013930D01*
X003805Y013410D01*
X003805Y014500D02*
X004235Y014930D01*
X006055Y014930D01*
X006055Y015930D02*
X004155Y015930D01*
X003805Y015580D01*
X003805Y017760D02*
X003975Y017930D01*
X006055Y017930D01*
X006515Y017471D01*
X011213Y017471D01*
X011717Y017975D01*
X011717Y019891D01*
X011087Y020521D01*
X009850Y020521D01*
X009374Y020998D01*
X008865Y020992D02*
X008865Y022740D01*
X009555Y023430D01*
X010305Y023430D01*
X009555Y024430D02*
X009993Y024868D01*
X010305Y025430D02*
X011305Y026430D01*
X009987Y026861D02*
X013874Y026861D01*
X014305Y026430D01*
X014305Y030430D02*
X013305Y031430D01*
X011305Y031430D01*
X011305Y030430D02*
X010305Y029430D01*
X009555Y029430D01*
X009993Y028868D02*
X009555Y028430D01*
X007637Y026512D01*
X007637Y024841D01*
X007226Y024430D01*
X006867Y024430D01*
X006685Y024248D01*
X006055Y024248D01*
X003838Y024248D01*
X003805Y024280D01*
X004034Y024820D02*
X002805Y024820D01*
X003805Y025360D02*
X004235Y024930D01*
X006055Y024930D01*
X006055Y024248D02*
X006055Y023930D01*
X005793Y023473D02*
X005535Y023730D01*
X002805Y023730D01*
X003805Y023190D02*
X005795Y023190D01*
X006055Y022930D01*
X005700Y022476D02*
X006601Y022476D01*
X006876Y022750D01*
X007055Y022930D01*
X006876Y022750D02*
X007697Y021929D01*
X007697Y021838D01*
X010605Y018930D01*
X011055Y018930D01*
X011486Y018746D02*
X011210Y018469D01*
X006516Y018469D01*
X006055Y018930D01*
X003895Y018930D01*
X003805Y018840D01*
X003805Y019930D02*
X006055Y019930D01*
X006555Y020430D02*
X006515Y020470D01*
X002805Y020470D01*
X002805Y021560D02*
X002335Y022031D01*
X002335Y026489D01*
X004986Y029140D01*
X005535Y026450D02*
X003805Y026450D01*
X004764Y025910D02*
X002805Y025910D01*
X004034Y024820D02*
X004386Y024468D01*
X006594Y024468D01*
X007055Y024930D01*
X006597Y025472D02*
X005202Y025472D01*
X004764Y025910D01*
X005535Y026450D02*
X006055Y025930D01*
X006597Y025472D02*
X007055Y025930D01*
X007055Y023930D02*
X006598Y023473D01*
X005793Y023473D01*
X005525Y022650D02*
X005700Y022476D01*
X005525Y022650D02*
X002805Y022650D01*
X003805Y022100D02*
X003975Y021930D01*
X006055Y021930D01*
X007055Y020930D02*
X006555Y020430D01*
X007055Y019930D01*
X007055Y017930D02*
X011055Y017930D01*
X011486Y018746D02*
X011486Y019116D01*
X011169Y019433D01*
X010424Y019433D01*
X008865Y020992D01*
X009555Y025430D02*
X010305Y025430D01*
X009555Y026430D02*
X009987Y026861D01*
X010305Y027430D02*
X009555Y027430D01*
X014305Y031430D02*
X014375Y031500D01*
X014375Y031860D01*
X010684Y036619D02*
X008428Y034363D01*
X007055Y015930D02*
X011055Y015930D01*
X011490Y015496D01*
X011490Y014364D01*
X011055Y013930D01*
X011490Y013496D01*
X011490Y012364D01*
X011055Y011930D01*
X007743Y010492D02*
X007055Y011180D01*
X016055Y001680D02*
X015862Y001486D01*
X021305Y005430D02*
X022555Y005430D01*
X024548Y007489D02*
X023936Y008101D01*
X024548Y007489D02*
X030365Y007489D01*
X031055Y008180D01*
X031055Y009680D02*
X032305Y009680D01*
X034805Y012180D01*
X032305Y012930D02*
X032055Y012930D01*
X031055Y011930D01*
X031055Y010680D01*
X030055Y011930D02*
X029364Y012621D01*
X028871Y012621D01*
X028617Y012367D01*
X028617Y011609D01*
X027257Y010249D01*
X021236Y010249D01*
X020805Y010680D01*
X021247Y011238D02*
X026364Y011238D01*
X027055Y011930D01*
X027055Y010680D02*
X027296Y010680D01*
X029055Y010680D02*
X029055Y011930D01*
X021747Y008739D02*
X020805Y009680D01*
X021247Y011238D02*
X020805Y011680D01*
X023555Y002930D02*
X023305Y002680D01*
X023555Y002930D02*
X024805Y002930D01*
X024805Y001430D02*
X023555Y001430D01*
X023305Y001680D01*
X028805Y001430D02*
X030537Y001430D01*
X031047Y001940D01*
X032057Y002930D02*
X033047Y001940D01*
X032057Y002930D02*
X028805Y002930D01*
X038046Y020172D02*
X037037Y021180D01*
X035305Y021180D01*
X034055Y022430D01*
X034805Y023180D01*
X035805Y023180D02*
X038055Y023180D01*
X038555Y026680D02*
X035110Y026680D01*
X034805Y026984D01*
X034055Y022430D02*
X033805Y022180D01*
X032305Y022180D01*
X032305Y038430D02*
X033555Y038430D01*
M02*
