G75*
%MOIN*%
%OFA0B0*%
%FSLAX24Y24*%
%IPPOS*%
%LPD*%
%AMOC8*
5,1,8,0,0,1.08239X$1,22.5*
%
%ADD10OC8,0.0560*%
%ADD11C,0.0520*%
%ADD12C,0.0515*%
%ADD13OC8,0.0520*%
%ADD14C,0.0787*%
%ADD15C,0.0709*%
%ADD16OC8,0.0630*%
%ADD17C,0.0630*%
%ADD18OC8,0.0600*%
%ADD19C,0.0574*%
%ADD20C,0.2000*%
%ADD21C,0.0750*%
%ADD22OC8,0.0750*%
%ADD23C,0.0100*%
D10*
X006055Y013930D03*
X006055Y014930D03*
X007055Y014930D03*
X007055Y013930D03*
X007055Y015930D03*
X006055Y015930D03*
X006055Y016930D03*
X007055Y016930D03*
X007055Y017930D03*
X006055Y017930D03*
X006055Y018930D03*
X007055Y018930D03*
X007055Y019930D03*
X006055Y019930D03*
X006055Y020930D03*
X007055Y020930D03*
X007055Y021930D03*
X006055Y021930D03*
X006055Y022930D03*
X007055Y022930D03*
X007055Y023930D03*
X006055Y023930D03*
X006055Y024930D03*
X007055Y024930D03*
X007055Y025930D03*
X006055Y025930D03*
X034805Y026180D03*
X035805Y026180D03*
X035805Y027180D03*
X034805Y027180D03*
X034805Y028180D03*
X035805Y028180D03*
X035805Y029180D03*
X034805Y029180D03*
X034805Y030180D03*
X035805Y030180D03*
X035805Y012180D03*
X034805Y012180D03*
X034805Y011180D03*
X035805Y011180D03*
X035805Y010180D03*
X034805Y010180D03*
X034805Y009180D03*
X035805Y009180D03*
X035805Y008180D03*
X034805Y008180D03*
D11*
X031055Y007920D02*
X031055Y008440D01*
X030055Y008440D02*
X030055Y007920D01*
X029055Y007920D02*
X029055Y008440D01*
X028055Y008440D02*
X028055Y007920D01*
X027055Y007920D02*
X027055Y008440D01*
X026055Y008440D02*
X026055Y007920D01*
X025055Y007920D02*
X025055Y008440D01*
X022555Y009170D02*
X022555Y009690D01*
X021065Y009680D02*
X020545Y009680D01*
X020545Y010680D02*
X021065Y010680D01*
X021065Y011680D02*
X020545Y011680D01*
X020545Y012680D02*
X021065Y012680D01*
X021065Y013680D02*
X020545Y013680D01*
X018065Y013680D02*
X017545Y013680D01*
X017545Y012680D02*
X018065Y012680D01*
X018065Y011680D02*
X017545Y011680D01*
X017545Y010680D02*
X018065Y010680D01*
X018065Y009680D02*
X017545Y009680D01*
X017545Y008680D02*
X018065Y008680D01*
X018065Y007680D02*
X017545Y007680D01*
X017545Y006680D02*
X018065Y006680D01*
X016315Y006680D02*
X015795Y006680D01*
X015795Y005680D02*
X016315Y005680D01*
X014575Y005930D02*
X014055Y005930D01*
X014055Y004930D02*
X014575Y004930D01*
X014575Y006930D02*
X014055Y006930D01*
X014055Y007930D02*
X014575Y007930D01*
X014575Y008930D02*
X014055Y008930D01*
X014055Y009930D02*
X014575Y009930D01*
X014575Y010930D02*
X014055Y010930D01*
X014055Y011930D02*
X014575Y011930D01*
X014575Y012930D02*
X014055Y012930D01*
X014055Y013930D02*
X014575Y013930D01*
X014575Y014930D02*
X014055Y014930D01*
X014055Y015930D02*
X014575Y015930D01*
X014575Y016930D02*
X014055Y016930D01*
X014055Y017930D02*
X014575Y017930D01*
X014575Y018930D02*
X014055Y018930D01*
X014055Y019930D02*
X014575Y019930D01*
X014565Y022430D02*
X014045Y022430D01*
X014045Y023430D02*
X014565Y023430D01*
X014565Y024430D02*
X014045Y024430D01*
X014045Y025430D02*
X014565Y025430D01*
X014565Y026430D02*
X014045Y026430D01*
X014045Y027430D02*
X014565Y027430D01*
X014565Y028430D02*
X014045Y028430D01*
X014045Y029430D02*
X014565Y029430D01*
X014565Y030430D02*
X014045Y030430D01*
X014045Y031430D02*
X014565Y031430D01*
X015795Y031180D02*
X016315Y031180D01*
X016315Y032180D02*
X015795Y032180D01*
X017545Y031680D02*
X018065Y031680D01*
X018065Y030680D02*
X017545Y030680D01*
X017545Y029680D02*
X018065Y029680D01*
X018065Y028680D02*
X017545Y028680D01*
X017545Y027680D02*
X018065Y027680D01*
X018065Y026680D02*
X017545Y026680D01*
X017545Y025680D02*
X018065Y025680D01*
X018065Y024680D02*
X017545Y024680D01*
X016315Y024180D02*
X015795Y024180D01*
X015795Y025180D02*
X016315Y025180D01*
X016315Y026180D02*
X015795Y026180D01*
X015795Y027180D02*
X016315Y027180D01*
X016315Y028180D02*
X015795Y028180D01*
X015795Y029180D02*
X016315Y029180D01*
X016315Y030180D02*
X015795Y030180D01*
X014555Y034180D02*
X014035Y034180D01*
X014035Y035180D02*
X014555Y035180D01*
X014555Y036180D02*
X014035Y036180D01*
X014035Y037180D02*
X014555Y037180D01*
X017555Y037180D02*
X018075Y037180D01*
X018075Y036180D02*
X017555Y036180D01*
X017555Y035180D02*
X018075Y035180D01*
X018075Y034180D02*
X017555Y034180D01*
X019285Y034180D02*
X019805Y034180D01*
X019805Y035180D02*
X019285Y035180D01*
X019285Y036180D02*
X019805Y036180D01*
X019805Y037180D02*
X019285Y037180D01*
X022805Y037180D02*
X023325Y037180D01*
X023325Y036180D02*
X022805Y036180D01*
X022805Y035180D02*
X023325Y035180D01*
X023325Y034180D02*
X022805Y034180D01*
X024535Y034180D02*
X025055Y034180D01*
X025055Y035180D02*
X024535Y035180D01*
X024535Y036180D02*
X025055Y036180D01*
X025055Y037180D02*
X024535Y037180D01*
X028055Y037180D02*
X028575Y037180D01*
X028575Y036180D02*
X028055Y036180D01*
X028055Y035180D02*
X028575Y035180D01*
X028575Y034180D02*
X028055Y034180D01*
X029045Y032680D02*
X029565Y032680D01*
X029565Y031680D02*
X029045Y031680D01*
X028065Y031680D02*
X027545Y031680D01*
X027545Y030680D02*
X028065Y030680D01*
X029045Y030680D02*
X029565Y030680D01*
X029565Y029680D02*
X029045Y029680D01*
X028065Y029680D02*
X027545Y029680D01*
X027545Y028680D02*
X028065Y028680D01*
X029045Y028680D02*
X029565Y028680D01*
X029565Y027680D02*
X029045Y027680D01*
X028065Y027680D02*
X027545Y027680D01*
X027545Y026680D02*
X028065Y026680D01*
X029045Y026680D02*
X029565Y026680D01*
X029565Y025680D02*
X029045Y025680D01*
X028065Y025680D02*
X027545Y025680D01*
X027545Y024680D02*
X028065Y024680D01*
X029045Y024680D02*
X029565Y024680D01*
X029565Y023680D02*
X029045Y023680D01*
X028065Y023680D02*
X027545Y023680D01*
X026325Y023430D02*
X025805Y023430D01*
X025805Y024430D02*
X026325Y024430D01*
X026325Y025430D02*
X025805Y025430D01*
X025805Y026430D02*
X026325Y026430D01*
X026325Y028680D02*
X025805Y028680D01*
X025805Y029680D02*
X026325Y029680D01*
X026325Y030680D02*
X025805Y030680D01*
X025805Y031680D02*
X026325Y031680D01*
X022805Y031680D02*
X022285Y031680D01*
X022285Y030680D02*
X022805Y030680D01*
X022805Y029680D02*
X022285Y029680D01*
X022285Y028680D02*
X022805Y028680D01*
X021065Y028680D02*
X020545Y028680D01*
X020545Y029680D02*
X021065Y029680D01*
X021065Y030680D02*
X020545Y030680D01*
X020545Y031680D02*
X021065Y031680D01*
X021065Y027680D02*
X020545Y027680D01*
X020545Y026680D02*
X021065Y026680D01*
X021065Y025680D02*
X020545Y025680D01*
X020545Y024680D02*
X021065Y024680D01*
X022285Y024430D02*
X022805Y024430D01*
X022805Y025430D02*
X022285Y025430D01*
X022285Y026430D02*
X022805Y026430D01*
X022805Y023430D02*
X022285Y023430D01*
X022285Y020680D02*
X022805Y020680D01*
X022805Y019680D02*
X022285Y019680D01*
X021325Y019680D02*
X020805Y019680D01*
X020805Y018680D02*
X021325Y018680D01*
X022285Y018680D02*
X022805Y018680D01*
X022805Y017680D02*
X022285Y017680D01*
X021325Y017680D02*
X020805Y017680D01*
X017805Y017680D02*
X017285Y017680D01*
X017285Y018680D02*
X017805Y018680D01*
X017805Y019680D02*
X017285Y019680D01*
X017285Y020680D02*
X017805Y020680D01*
X020805Y020680D02*
X021325Y020680D01*
X025805Y020680D02*
X026325Y020680D01*
X027285Y020680D02*
X027805Y020680D01*
X027805Y019680D02*
X027285Y019680D01*
X026325Y019680D02*
X025805Y019680D01*
X025805Y018680D02*
X026325Y018680D01*
X027285Y018680D02*
X027805Y018680D01*
X027805Y017680D02*
X027285Y017680D01*
X026325Y017680D02*
X025805Y017680D01*
X026055Y015190D02*
X026055Y014670D01*
X027055Y014670D02*
X027055Y015190D01*
X028055Y015190D02*
X028055Y014670D01*
X029055Y014670D02*
X029055Y015190D01*
X030055Y015190D02*
X030055Y014670D01*
X031055Y014670D02*
X031055Y015190D01*
X030805Y017680D02*
X031325Y017680D01*
X031325Y018680D02*
X030805Y018680D01*
X030805Y019680D02*
X031325Y019680D01*
X031325Y020680D02*
X030805Y020680D01*
X032045Y023680D02*
X032565Y023680D01*
X032565Y024680D02*
X032045Y024680D01*
X032045Y025680D02*
X032565Y025680D01*
X032565Y026680D02*
X032045Y026680D01*
X032045Y027680D02*
X032565Y027680D01*
X032565Y028680D02*
X032045Y028680D01*
X032045Y029680D02*
X032565Y029680D01*
X032565Y030680D02*
X032045Y030680D01*
X032045Y031680D02*
X032565Y031680D01*
X032565Y032680D02*
X032045Y032680D01*
X031055Y034410D02*
X031055Y034930D01*
X030055Y034930D02*
X030055Y034410D01*
X030055Y037930D02*
X030055Y038450D01*
X031055Y038450D02*
X031055Y037930D01*
X035305Y021440D02*
X035305Y020920D01*
X035305Y017440D02*
X035305Y016920D01*
X031055Y012190D02*
X031055Y011670D01*
X030055Y011670D02*
X030055Y012190D01*
X029055Y012190D02*
X029055Y011670D01*
X028055Y011670D02*
X028055Y012190D01*
X027055Y012190D02*
X027055Y011670D01*
X026055Y011670D02*
X026055Y012190D01*
X025055Y012190D02*
X025055Y011670D01*
X025055Y014670D02*
X025055Y015190D01*
X021065Y008680D02*
X020545Y008680D01*
X020545Y007680D02*
X021065Y007680D01*
X021065Y006680D02*
X020545Y006680D01*
X022555Y005690D02*
X022555Y005170D01*
X025055Y004920D02*
X025055Y005440D01*
X026055Y005440D02*
X026055Y004920D01*
X027055Y004920D02*
X027055Y005440D01*
X028055Y005440D02*
X028055Y004920D01*
X029055Y004920D02*
X029055Y005440D01*
X030055Y005440D02*
X030055Y004920D01*
X031055Y004920D02*
X031055Y005440D01*
X023825Y002680D02*
X023305Y002680D01*
X023305Y001680D02*
X023825Y001680D01*
X020305Y001680D02*
X019785Y001680D01*
X019785Y002680D02*
X020305Y002680D01*
X016315Y007680D02*
X015795Y007680D01*
X015795Y008680D02*
X016315Y008680D01*
X016315Y009680D02*
X015795Y009680D01*
X015795Y010680D02*
X016315Y010680D01*
X016315Y011680D02*
X015795Y011680D01*
X015795Y012680D02*
X016315Y012680D01*
X016315Y013680D02*
X015795Y013680D01*
X011055Y013930D02*
X010535Y013930D01*
X010535Y014930D02*
X011055Y014930D01*
X011055Y015930D02*
X010535Y015930D01*
X010535Y016930D02*
X011055Y016930D01*
X011055Y017930D02*
X010535Y017930D01*
X010535Y018930D02*
X011055Y018930D01*
X011055Y019930D02*
X010535Y019930D01*
X011045Y022430D02*
X011565Y022430D01*
X011565Y023430D02*
X011045Y023430D01*
X011045Y024430D02*
X011565Y024430D01*
X011565Y025430D02*
X011045Y025430D01*
X011045Y026430D02*
X011565Y026430D01*
X011565Y027430D02*
X011045Y027430D01*
X011045Y028430D02*
X011565Y028430D01*
X011565Y029430D02*
X011045Y029430D01*
X011045Y030430D02*
X011565Y030430D01*
X011565Y031430D02*
X011045Y031430D01*
X009815Y030430D02*
X009295Y030430D01*
X009295Y029430D02*
X009815Y029430D01*
X009815Y028430D02*
X009295Y028430D01*
X009295Y027430D02*
X009815Y027430D01*
X009815Y026430D02*
X009295Y026430D01*
X009295Y025430D02*
X009815Y025430D01*
X009815Y024430D02*
X009295Y024430D01*
X009295Y023430D02*
X009815Y023430D01*
X009815Y022430D02*
X009295Y022430D01*
X010535Y012930D02*
X011055Y012930D01*
X011055Y011930D02*
X010535Y011930D01*
X010535Y010930D02*
X011055Y010930D01*
X011055Y009930D02*
X010535Y009930D01*
X010535Y008930D02*
X011055Y008930D01*
X011055Y007930D02*
X010535Y007930D01*
X010535Y006930D02*
X011055Y006930D01*
X011055Y005930D02*
X010535Y005930D01*
X010535Y004930D02*
X011055Y004930D01*
D12*
X006805Y029180D03*
X006805Y030180D03*
X006805Y031180D03*
X006805Y032180D03*
D13*
X005555Y032180D03*
X005555Y031180D03*
X005555Y030180D03*
X005555Y029180D03*
X012305Y032930D03*
X013305Y032930D03*
X015555Y038430D03*
X016555Y038430D03*
X020805Y038430D03*
X021805Y038430D03*
X026055Y038430D03*
X027055Y038430D03*
X032305Y038430D03*
X032305Y034430D03*
X034805Y032930D03*
X035805Y032930D03*
X035805Y023180D03*
X034805Y023180D03*
X034055Y021180D03*
X032555Y019680D03*
X032555Y018680D03*
X034055Y017180D03*
X034805Y015180D03*
X035805Y015180D03*
X032305Y013930D03*
X032305Y012930D03*
X031055Y010680D03*
X030055Y010680D03*
X030055Y009680D03*
X031055Y009680D03*
X029055Y009680D03*
X029055Y010680D03*
X027055Y010680D03*
X026055Y010680D03*
X026055Y009680D03*
X027055Y009680D03*
X025055Y009680D03*
X025055Y010680D03*
X023805Y012930D03*
X023805Y013930D03*
X023805Y016430D03*
X024805Y016430D03*
X028805Y016430D03*
X029805Y016430D03*
X029805Y021930D03*
X028805Y021930D03*
X024805Y021930D03*
X023805Y021930D03*
X019805Y021930D03*
X018805Y021930D03*
X018805Y016430D03*
X019805Y016430D03*
X013305Y021180D03*
X012305Y021180D03*
X010805Y021180D03*
X009805Y021180D03*
X007055Y011180D03*
X006055Y011180D03*
X007555Y008930D03*
X004055Y007680D03*
X004055Y006680D03*
X003555Y008930D03*
X006305Y003930D03*
X006305Y002680D03*
X006305Y001680D03*
X008055Y002430D03*
X008555Y001680D03*
X009055Y002430D03*
X010305Y001930D03*
X010305Y002930D03*
X010305Y003930D03*
X014305Y002930D03*
X014305Y001930D03*
X015305Y002180D03*
X016055Y001680D03*
X016055Y002680D03*
X017305Y005430D03*
X021305Y005430D03*
X023805Y006180D03*
X023805Y007180D03*
X024805Y002930D03*
X024805Y001430D03*
X028805Y001430D03*
X028805Y002930D03*
X032305Y006180D03*
X032305Y007180D03*
X034805Y005430D03*
X035805Y005430D03*
X024805Y027680D03*
X023805Y027680D03*
D14*
X038046Y020172D03*
X038046Y018172D03*
X033047Y001940D03*
X031047Y001940D03*
D15*
X038201Y005680D02*
X038910Y005680D01*
X038910Y006680D02*
X038201Y006680D01*
X038201Y007680D02*
X038910Y007680D01*
X038910Y008680D02*
X038201Y008680D01*
X038201Y009680D02*
X038910Y009680D01*
X038910Y010680D02*
X038201Y010680D01*
X038201Y011680D02*
X038910Y011680D01*
X038910Y012680D02*
X038201Y012680D01*
X038201Y013680D02*
X038910Y013680D01*
X038910Y014680D02*
X038201Y014680D01*
X038201Y023680D02*
X038910Y023680D01*
X038910Y024680D02*
X038201Y024680D01*
X038201Y025680D02*
X038910Y025680D01*
X038910Y026680D02*
X038201Y026680D01*
X038201Y027680D02*
X038910Y027680D01*
X038910Y028680D02*
X038201Y028680D01*
X038201Y029680D02*
X038910Y029680D01*
X038910Y030680D02*
X038201Y030680D01*
X038201Y031680D02*
X038910Y031680D01*
X038910Y032680D02*
X038201Y032680D01*
X034555Y038076D02*
X034555Y038784D01*
X033555Y038784D02*
X033555Y038076D01*
D16*
X017055Y015930D03*
X018305Y002680D03*
X002805Y033380D03*
D17*
X002805Y031980D03*
X016055Y015930D03*
X018305Y001680D03*
D18*
X003805Y013410D03*
X002805Y013950D03*
X002805Y015040D03*
X003805Y015580D03*
X003805Y016670D03*
X002805Y017210D03*
X003805Y017760D03*
X002805Y018300D03*
X002805Y019390D03*
X003805Y019930D03*
X003805Y021020D03*
X002805Y021560D03*
X002805Y022650D03*
X003805Y023190D03*
X002805Y023730D03*
X003805Y024280D03*
X003805Y025360D03*
X002805Y024820D03*
X002805Y025910D03*
X003805Y026450D03*
X003805Y022100D03*
X002805Y020470D03*
X003805Y018840D03*
X002805Y016130D03*
X003805Y014500D03*
X002305Y008430D03*
X002305Y005930D03*
X032305Y016180D03*
X032305Y022180D03*
D19*
X011183Y034076D02*
X011183Y034650D01*
X010199Y034650D02*
X010199Y034076D01*
X009412Y034076D02*
X009412Y034650D01*
X008428Y034650D02*
X008428Y034076D01*
D20*
X003305Y029190D03*
X003305Y010670D03*
D21*
X005555Y006180D03*
D22*
X007555Y006180D03*
D23*
X005555Y006180D02*
X005555Y004680D01*
X006305Y003930D01*
X006305Y003553D01*
X008179Y001680D01*
X008555Y001680D01*
X009055Y002430D02*
X009875Y002430D01*
X009875Y003500D01*
X010305Y003930D01*
X009750Y004485D01*
X009750Y007343D01*
X007055Y010038D01*
X007055Y011180D01*
X007496Y011421D02*
X007496Y010040D01*
X010006Y007529D01*
X010006Y005850D01*
X010926Y004930D01*
X011055Y004930D01*
X011055Y006930D02*
X010917Y006930D01*
X007771Y010076D01*
X007771Y011465D01*
X005604Y013632D01*
X005604Y015479D01*
X006055Y015930D01*
X005545Y016420D02*
X006055Y016930D01*
X005545Y016420D02*
X005375Y016420D01*
X004056Y016420D01*
X003805Y016670D01*
X002805Y017210D02*
X002805Y018300D01*
X002805Y019390D01*
X002805Y020470D01*
X002805Y021560D01*
X003805Y021020D02*
X004406Y021621D01*
X005365Y021621D01*
X006055Y020930D01*
X006555Y020430D02*
X006055Y019930D01*
X006555Y020430D02*
X006555Y025083D01*
X006852Y025380D01*
X007611Y025380D01*
X008561Y024430D01*
X009555Y024430D01*
X009939Y024930D02*
X009155Y024930D01*
X008155Y025930D01*
X007055Y025930D01*
X006023Y026868D02*
X005365Y026210D01*
X005365Y021621D01*
X006055Y021930D02*
X005603Y022383D01*
X005603Y026130D01*
X005902Y026430D01*
X009555Y026430D01*
X009986Y026868D02*
X010254Y026601D01*
X010254Y026128D01*
X009555Y025430D01*
X009939Y024930D02*
X010246Y024623D01*
X010246Y022596D01*
X011717Y021125D01*
X011717Y013592D01*
X011055Y012930D01*
X011055Y011930D02*
X011490Y011496D01*
X011490Y010364D01*
X011055Y009930D01*
X011486Y009500D01*
X011486Y008360D01*
X011055Y007930D01*
X011055Y008930D02*
X010927Y008930D01*
X006555Y013302D01*
X006555Y014430D01*
X006055Y014930D01*
X007055Y014930D02*
X007055Y015930D01*
X007055Y016930D01*
X007055Y017930D01*
X007055Y018930D01*
X007055Y019930D01*
X007825Y019712D02*
X007825Y023160D01*
X007055Y023930D01*
X008045Y023940D02*
X007055Y024930D01*
X008045Y023940D02*
X008045Y019812D01*
X010427Y017430D01*
X011188Y017430D01*
X011490Y017128D01*
X011490Y015364D01*
X011055Y014930D01*
X011055Y016930D02*
X010607Y016930D01*
X007825Y019712D01*
X007055Y020930D02*
X007055Y021930D01*
X004496Y023880D02*
X004496Y025653D01*
X006273Y027430D01*
X009555Y027430D01*
X009986Y026868D02*
X006023Y026868D01*
X003805Y026450D02*
X003335Y025980D01*
X003335Y012495D01*
X005555Y010275D01*
X005555Y006180D01*
X004055Y007680D02*
X003555Y008180D01*
X003555Y008930D01*
X007555Y008930D02*
X007555Y006180D01*
X009875Y002430D02*
X009875Y002360D01*
X010305Y001930D01*
X014055Y005930D02*
X014795Y005930D01*
X015732Y004993D01*
X020868Y004993D01*
X021305Y005430D01*
X020697Y005430D02*
X017305Y005430D01*
X017055Y005680D01*
X016055Y005680D01*
X014055Y005930D02*
X013625Y006360D01*
X013625Y007500D01*
X014055Y007930D01*
X013625Y008360D01*
X013625Y009500D01*
X014055Y009930D01*
X013625Y010360D01*
X013625Y011500D01*
X014055Y011930D01*
X013625Y012360D01*
X013625Y013500D01*
X014055Y013930D01*
X013625Y014360D01*
X013625Y015500D01*
X014055Y015930D01*
X013625Y016360D01*
X013625Y017500D01*
X014055Y017930D01*
X013625Y018360D01*
X013625Y019500D01*
X014055Y019930D01*
X014654Y020571D02*
X013284Y020571D01*
X012804Y021052D01*
X012804Y021802D01*
X011605Y023000D01*
X010844Y023000D01*
X010613Y023231D01*
X010613Y028737D01*
X011305Y029430D01*
X012398Y029234D02*
X012398Y026522D01*
X011305Y025430D01*
X012792Y024917D02*
X011305Y023430D01*
X012792Y024917D02*
X012792Y029317D01*
X013139Y029664D01*
X013139Y031387D01*
X017432Y035680D01*
X018189Y035680D01*
X018750Y036241D01*
X018750Y036296D01*
X019081Y036627D01*
X021706Y036627D01*
X022653Y035680D01*
X024555Y035680D01*
X025055Y035180D01*
X025490Y035002D02*
X025168Y034680D01*
X022692Y034680D01*
X020805Y032793D01*
X020805Y031680D01*
X020103Y031383D02*
X020805Y030680D01*
X020103Y031383D02*
X020103Y033412D01*
X020236Y033546D01*
X020236Y035749D01*
X019805Y036180D01*
X019805Y035180D02*
X019675Y035180D01*
X018680Y034185D01*
X018680Y033832D01*
X016773Y031924D01*
X016773Y030013D01*
X016382Y029622D01*
X015621Y029622D01*
X014995Y028996D01*
X013988Y028996D01*
X013615Y028623D01*
X013615Y024120D01*
X014305Y023430D01*
X013388Y022480D02*
X017187Y018680D01*
X017805Y018680D01*
X016977Y018248D02*
X014654Y020571D01*
X013305Y021180D02*
X013166Y021319D01*
X013166Y029224D01*
X013409Y029467D01*
X013409Y030534D01*
X014305Y031430D01*
X014305Y029430D02*
X014111Y029430D01*
X013388Y028707D01*
X013388Y022480D01*
X010805Y021180D02*
X010805Y020180D01*
X011055Y019930D01*
X011490Y019496D01*
X011490Y018364D01*
X011055Y017930D01*
X014055Y016930D02*
X014203Y016930D01*
X015254Y015879D01*
X015254Y013482D01*
X016055Y012680D01*
X016055Y011680D02*
X015006Y012730D01*
X015006Y014111D01*
X014187Y014930D01*
X014055Y014930D01*
X015556Y014180D02*
X015556Y017565D01*
X014191Y018930D01*
X014055Y018930D01*
X016977Y018248D02*
X022373Y018248D01*
X022805Y018680D01*
X022915Y019180D02*
X021305Y019180D01*
X020805Y018680D01*
X021805Y020519D02*
X022644Y019680D01*
X022805Y019680D01*
X022915Y019180D02*
X027013Y023278D01*
X027013Y024888D01*
X027805Y025680D01*
X027805Y024680D02*
X027925Y024560D01*
X028185Y024560D01*
X029305Y025680D01*
X029805Y025180D02*
X029305Y024680D01*
X029805Y025180D02*
X034454Y025180D01*
X035305Y026032D01*
X035305Y026323D01*
X035984Y027002D01*
X037305Y025680D01*
X038555Y025680D01*
X035984Y027002D02*
X035805Y027180D01*
X035805Y028180D02*
X035346Y028639D01*
X034265Y028639D01*
X032305Y026680D01*
X031868Y027243D02*
X032305Y027680D01*
X031868Y027243D02*
X028243Y027243D01*
X027805Y027680D01*
X028235Y028240D02*
X028555Y028560D01*
X028555Y031930D01*
X029305Y032680D01*
X029305Y033086D01*
X028212Y034180D01*
X028055Y034180D01*
X028212Y034180D02*
X029625Y035594D01*
X029625Y037007D01*
X030132Y037007D01*
X031055Y037930D01*
X029625Y037007D02*
X027772Y038860D01*
X026486Y038860D01*
X026055Y038430D01*
X026501Y037626D02*
X027055Y038180D01*
X028055Y037180D01*
X025805Y034930D01*
X025805Y031680D01*
X023805Y029680D01*
X023805Y027680D01*
X023805Y021930D01*
X024805Y021930D02*
X024805Y022430D01*
X025805Y023430D01*
X024805Y024430D01*
X024805Y027680D01*
X025805Y028680D02*
X026246Y028240D01*
X028235Y028240D01*
X027805Y028680D02*
X026805Y029680D01*
X025805Y029680D01*
X025371Y030246D02*
X025805Y030680D01*
X025943Y030680D01*
X026760Y031497D01*
X026760Y034884D01*
X028055Y036180D01*
X028055Y035180D02*
X027108Y034232D01*
X027108Y030378D01*
X027805Y029680D01*
X025371Y030246D02*
X025371Y025864D01*
X025805Y025430D01*
X027805Y023680D02*
X026805Y022680D01*
X026805Y019532D01*
X025954Y018680D01*
X025805Y018680D01*
X026243Y018118D02*
X025805Y017680D01*
X026243Y018118D02*
X028805Y018118D01*
X028805Y016430D01*
X029375Y016000D02*
X026125Y016000D01*
X025055Y014930D01*
X025486Y014500D01*
X025486Y011110D01*
X025055Y010680D01*
X025500Y010235D01*
X025500Y008625D01*
X025055Y008180D01*
X025055Y007818D01*
X023847Y006610D01*
X021877Y006610D01*
X020697Y005430D01*
X023805Y006180D02*
X025055Y006180D01*
X026055Y005180D01*
X028055Y005180D02*
X030145Y007270D01*
X031490Y007270D01*
X031949Y007729D01*
X035017Y007729D01*
X035305Y008018D01*
X035305Y008680D01*
X035805Y009180D01*
X035355Y009067D02*
X034968Y008680D01*
X032499Y008680D01*
X031309Y007490D01*
X026746Y007490D01*
X026055Y008180D01*
X027055Y008180D02*
X027055Y009680D01*
X026055Y009680D02*
X027055Y010680D01*
X026055Y010680D02*
X026055Y011930D01*
X028055Y011930D02*
X028055Y011066D01*
X028942Y010180D01*
X034805Y010180D01*
X035355Y009730D02*
X035355Y009067D01*
X034805Y009180D02*
X030055Y009180D01*
X029055Y008180D01*
X030835Y006960D02*
X032085Y006960D01*
X032305Y007180D01*
X032305Y006180D02*
X035305Y006180D01*
X035805Y005680D01*
X035805Y005430D01*
X035805Y005680D02*
X038555Y005680D01*
X035805Y008180D02*
X035305Y007680D01*
X035305Y006180D01*
X035355Y009730D02*
X035805Y010180D01*
X034805Y011180D02*
X035305Y011680D01*
X036563Y011680D01*
X037563Y012680D01*
X038555Y012680D01*
X038555Y013680D02*
X037939Y013680D01*
X037622Y013997D01*
X035805Y012180D01*
X034805Y012180D02*
X034805Y014180D01*
X035805Y015180D01*
X035994Y015625D02*
X037622Y013997D01*
X038555Y014680D02*
X038617Y014741D01*
X038617Y019601D01*
X038046Y020172D01*
X035805Y023180D02*
X035805Y026180D01*
X034805Y026180D02*
X029805Y026180D01*
X029305Y026680D01*
X028185Y024560D02*
X028555Y024190D01*
X028555Y022789D01*
X029305Y022039D01*
X029305Y020180D01*
X030805Y018680D01*
X030682Y018180D02*
X031446Y018180D01*
X032555Y019289D01*
X032555Y019680D01*
X031555Y020680D01*
X030805Y020680D01*
X031555Y020680D02*
X031555Y021430D01*
X032305Y022180D01*
X034055Y021180D02*
X034055Y020180D01*
X032555Y018680D01*
X030805Y017680D02*
X032305Y016180D01*
X032305Y013930D02*
X031055Y013930D01*
X030055Y014930D01*
X029055Y014930D02*
X032805Y011180D01*
X034805Y011180D01*
X032555Y012930D02*
X032305Y012930D01*
X032555Y012930D02*
X034805Y015180D01*
X035994Y015625D02*
X026751Y015625D01*
X026055Y014930D01*
X025055Y014930D02*
X023805Y016180D01*
X023805Y016430D01*
X023805Y016866D01*
X023805Y018680D01*
X025805Y020680D01*
X028805Y021930D02*
X028805Y018118D01*
X029805Y017304D02*
X030682Y018180D01*
X029805Y017304D02*
X029805Y016430D01*
X029375Y016000D01*
X023805Y016866D02*
X019241Y016866D01*
X018805Y016430D01*
X016055Y013680D02*
X015556Y014180D01*
X017805Y019680D02*
X018375Y020250D01*
X018375Y022250D01*
X020805Y024680D01*
X020805Y025680D02*
X021805Y024680D01*
X021805Y020519D01*
X016397Y026622D02*
X015497Y026622D01*
X014305Y025430D01*
X016397Y026622D02*
X016956Y027180D01*
X018903Y027180D01*
X019903Y028180D01*
X021174Y028180D01*
X022674Y029680D01*
X022805Y029680D01*
X022805Y030680D02*
X022665Y030680D01*
X021635Y029650D01*
X021635Y029510D01*
X020805Y028680D01*
X025490Y035002D02*
X025490Y035746D01*
X025055Y036180D01*
X026501Y037626D02*
X023251Y037626D01*
X022805Y037180D01*
X027055Y038180D02*
X027055Y038430D01*
X029305Y032680D02*
X031305Y032680D01*
X032305Y031680D01*
X033555Y031680D01*
X034805Y032930D01*
X034805Y031930D02*
X035805Y032930D01*
X034805Y031930D02*
X034805Y030180D01*
X035355Y029630D02*
X033355Y029630D01*
X032305Y030680D01*
X035355Y029630D02*
X035805Y029180D01*
X035805Y030180D02*
X037305Y031680D01*
X038555Y031680D01*
X023805Y012930D02*
X023805Y010930D01*
X025055Y009680D01*
X023805Y008430D01*
X023805Y007180D01*
X023805Y008430D02*
X023555Y008430D01*
X022555Y009430D01*
X029055Y005180D02*
X030835Y006960D01*
X012398Y029234D02*
X012838Y029674D01*
X012838Y033590D01*
X014427Y035180D01*
X014555Y035180D01*
X015145Y036680D02*
X016555Y038090D01*
X016645Y038090D01*
X017555Y037180D01*
X016555Y038090D02*
X016555Y038430D01*
X015145Y036680D02*
X012363Y036680D01*
X011183Y035500D01*
X011183Y034363D01*
X012305Y032930D02*
X012305Y032430D01*
X011305Y031430D01*
X010305Y030430D01*
X009555Y030430D01*
X009305Y030180D01*
X006805Y030180D01*
X007875Y029430D02*
X003805Y025360D01*
X004496Y023880D02*
X003805Y023190D01*
X002805Y017210D02*
X002805Y016130D01*
X002805Y015040D01*
X002805Y013950D01*
X005375Y013542D02*
X005375Y016420D01*
X005375Y013542D02*
X007496Y011421D01*
X007875Y029430D02*
X009555Y029430D01*
X006805Y032180D02*
X006805Y032741D01*
X008428Y034363D01*
M02*
