G75*
%MOIN*%
%OFA0B0*%
%FSLAX24Y24*%
%IPPOS*%
%LPD*%
%AMOC8*
5,1,8,0,0,1.08239X$1,22.5*
%
%ADD10C,0.0160*%
%ADD11C,0.0030*%
%ADD12C,0.0080*%
%ADD13C,0.0060*%
%ADD14C,0.0020*%
%ADD15C,0.0050*%
%ADD16C,0.0120*%
%ADD17C,0.0000*%
%ADD18R,0.0340X0.0240*%
%ADD19C,0.0100*%
%ADD20R,0.0240X0.0340*%
%ADD21C,0.0040*%
%ADD22C,0.0010*%
%ADD23R,0.0800X0.0200*%
%ADD24R,0.0200X0.0750*%
%ADD25R,0.0400X0.0650*%
%ADD26R,0.0650X0.0400*%
%ADD27R,0.0300X1.6000*%
%ADD28R,0.2850X0.0320*%
%ADD29R,0.1850X0.0320*%
%ADD30R,0.0200X0.0800*%
D10*
X000305Y000180D02*
X000305Y039550D01*
X039676Y039550D01*
X039676Y000180D01*
X000305Y000180D01*
D11*
X008758Y008437D02*
X008820Y008437D01*
X008944Y008437D02*
X009190Y008437D01*
X009190Y008376D02*
X009190Y008499D01*
X009190Y008621D02*
X008944Y008621D01*
X008944Y008806D01*
X009005Y008868D01*
X009190Y008868D01*
X009129Y008990D02*
X009190Y009051D01*
X009190Y009236D01*
X008944Y009236D01*
X008944Y009358D02*
X009190Y009605D01*
X009129Y009726D02*
X009190Y009788D01*
X009190Y009911D01*
X009129Y009973D01*
X009190Y010095D02*
X008820Y010095D01*
X009190Y010341D01*
X008820Y010341D01*
X008882Y010463D02*
X009129Y010463D01*
X009190Y010525D01*
X009190Y010648D01*
X009129Y010710D01*
X008882Y010710D02*
X008820Y010648D01*
X008820Y010525D01*
X008882Y010463D01*
X008882Y009973D02*
X008820Y009911D01*
X008820Y009788D01*
X008882Y009726D01*
X009129Y009726D01*
X008944Y009605D02*
X009190Y009358D01*
X009420Y009359D02*
X009790Y009359D01*
X009790Y009174D01*
X009729Y009112D01*
X009605Y009112D01*
X009544Y009174D01*
X009544Y009359D01*
X009544Y009481D02*
X009544Y009542D01*
X009790Y009542D01*
X009790Y009481D02*
X009790Y009604D01*
X009790Y009726D02*
X009790Y009911D01*
X009729Y009973D01*
X009667Y009911D01*
X009667Y009788D01*
X009605Y009726D01*
X009544Y009788D01*
X009544Y009973D01*
X009544Y010095D02*
X009544Y010280D01*
X009605Y010341D01*
X009729Y010341D01*
X009790Y010280D01*
X009790Y010095D01*
X009914Y010095D02*
X009544Y010095D01*
X009420Y010463D02*
X009420Y010525D01*
X009790Y010525D01*
X009790Y010586D02*
X009790Y010463D01*
X009729Y010708D02*
X009667Y010770D01*
X009667Y010955D01*
X009605Y010955D02*
X009790Y010955D01*
X009790Y010770D01*
X009729Y010708D01*
X009544Y010770D02*
X009544Y010894D01*
X009605Y010955D01*
X009544Y011077D02*
X009729Y011077D01*
X009790Y011138D01*
X009790Y011324D01*
X009852Y011324D02*
X009914Y011262D01*
X009914Y011200D01*
X009852Y011324D02*
X009544Y011324D01*
X009544Y012445D02*
X009544Y012507D01*
X009790Y012507D01*
X009790Y012568D02*
X009790Y012445D01*
X009790Y012691D02*
X009544Y012691D01*
X009544Y012876D01*
X009605Y012937D01*
X009790Y012937D01*
X009790Y013121D02*
X009482Y013121D01*
X009420Y013182D01*
X009605Y013182D02*
X009605Y013059D01*
X009605Y013304D02*
X009544Y013366D01*
X009544Y013490D01*
X009605Y013551D01*
X009729Y013551D01*
X009790Y013490D01*
X009790Y013366D01*
X009729Y013304D01*
X009605Y013304D01*
X009482Y013673D02*
X009420Y013734D01*
X009420Y013858D01*
X009482Y013920D01*
X009605Y013920D01*
X009667Y013858D01*
X009544Y013858D01*
X009544Y013734D01*
X009667Y013734D01*
X009667Y013858D01*
X009729Y013920D02*
X009790Y013858D01*
X009790Y013734D01*
X009729Y013673D01*
X009482Y013673D01*
X009190Y013612D02*
X009190Y013489D01*
X009129Y013427D01*
X009005Y013427D01*
X008944Y013489D01*
X008944Y013612D01*
X009005Y013674D01*
X009067Y013674D01*
X009067Y013427D01*
X008944Y013306D02*
X008944Y013121D01*
X009005Y013059D01*
X009129Y013059D01*
X009190Y013121D01*
X009190Y013306D01*
X009190Y012937D02*
X009190Y012813D01*
X009190Y012875D02*
X008944Y012875D01*
X008944Y012813D01*
X008820Y012875D02*
X008758Y012875D01*
X008820Y012445D02*
X009190Y012445D01*
X009190Y012692D01*
X009358Y012507D02*
X009420Y012507D01*
X009190Y013795D02*
X008944Y013795D01*
X008944Y013981D01*
X009005Y014042D01*
X009190Y014042D01*
X009190Y014164D02*
X009190Y014349D01*
X009129Y014411D01*
X009067Y014349D01*
X009067Y014226D01*
X009005Y014164D01*
X008944Y014226D01*
X008944Y014411D01*
X009005Y014532D02*
X008944Y014594D01*
X008944Y014717D01*
X009005Y014779D01*
X009067Y014779D01*
X009067Y014532D01*
X009129Y014532D02*
X009005Y014532D01*
X009129Y014532D02*
X009190Y014594D01*
X009190Y014717D01*
X009358Y014471D02*
X009420Y014471D01*
X009544Y014471D02*
X009790Y014471D01*
X009790Y014409D02*
X009790Y014533D01*
X009790Y014655D02*
X009544Y014655D01*
X009667Y014655D02*
X009544Y014778D01*
X009544Y014840D01*
X009544Y014962D02*
X009544Y015085D01*
X009482Y015024D02*
X009729Y015024D01*
X009790Y015085D01*
X009729Y015207D02*
X009544Y015207D01*
X009729Y015207D02*
X009790Y015269D01*
X009790Y015454D01*
X009544Y015454D01*
X009544Y015637D02*
X009544Y015761D01*
X009605Y015823D01*
X009790Y015823D01*
X009790Y015637D01*
X009729Y015576D01*
X009667Y015637D01*
X009667Y015823D01*
X009790Y015944D02*
X009790Y016067D01*
X009790Y016006D02*
X009420Y016006D01*
X009420Y015944D01*
X009190Y015884D02*
X009190Y015637D01*
X008820Y015637D01*
X008820Y015884D01*
X008820Y016005D02*
X008820Y016191D01*
X008882Y016252D01*
X009005Y016252D01*
X009067Y016191D01*
X009067Y016005D01*
X009190Y016005D02*
X008820Y016005D01*
X009067Y016129D02*
X009190Y016252D01*
X009190Y016374D02*
X008820Y016374D01*
X009190Y016621D01*
X008820Y016621D01*
X009005Y016742D02*
X009005Y016989D01*
X008882Y017110D02*
X009129Y017110D01*
X009190Y017172D01*
X009190Y017295D01*
X009129Y017357D01*
X008882Y017357D01*
X008820Y017295D01*
X008820Y017172D01*
X008882Y017110D01*
X008820Y017479D02*
X009190Y017479D01*
X009005Y017479D02*
X009005Y017726D01*
X008820Y017726D02*
X009190Y017726D01*
X009190Y017847D02*
X009190Y018094D01*
X009005Y018215D02*
X009005Y018462D01*
X009067Y018584D02*
X009067Y018769D01*
X009005Y018830D01*
X008882Y018830D01*
X008820Y018769D01*
X008820Y018584D01*
X009190Y018584D01*
X009544Y018645D02*
X009605Y018584D01*
X009729Y018584D01*
X009790Y018645D01*
X009790Y018830D01*
X009790Y018952D02*
X009420Y018952D01*
X009544Y019014D02*
X009544Y019137D01*
X009605Y019199D01*
X009790Y019199D01*
X009544Y019014D02*
X009605Y018952D01*
X009544Y018830D02*
X009544Y018645D01*
X009729Y018461D02*
X009790Y018461D01*
X009790Y018399D01*
X009729Y018399D01*
X009729Y018461D01*
X009790Y018278D02*
X009605Y018278D01*
X009544Y018216D01*
X009544Y018031D01*
X009790Y018031D01*
X009729Y017910D02*
X009605Y017910D01*
X009544Y017848D01*
X009544Y017725D01*
X009605Y017663D01*
X009729Y017663D01*
X009790Y017725D01*
X009790Y017848D01*
X009729Y017910D01*
X009790Y017541D02*
X009790Y017356D01*
X009729Y017294D01*
X009605Y017294D01*
X009544Y017356D01*
X009544Y017541D01*
X009544Y017111D02*
X009790Y017111D01*
X009790Y017172D02*
X009790Y017049D01*
X009790Y016927D02*
X009790Y016803D01*
X009790Y016865D02*
X009420Y016865D01*
X009420Y016803D01*
X009420Y016620D02*
X009358Y016620D01*
X009544Y016620D02*
X009790Y016620D01*
X009790Y016681D02*
X009790Y016558D01*
X009729Y016436D02*
X009667Y016375D01*
X009667Y016251D01*
X009605Y016190D01*
X009544Y016251D01*
X009544Y016436D01*
X009544Y016558D02*
X009544Y016620D01*
X009729Y016436D02*
X009790Y016375D01*
X009790Y016190D01*
X009544Y017049D02*
X009544Y017111D01*
X009420Y017111D02*
X009358Y017111D01*
X009190Y017847D02*
X008820Y017847D01*
X008820Y019320D02*
X009067Y019320D01*
X009190Y019444D01*
X009067Y019567D01*
X008820Y019567D01*
X008882Y019689D02*
X008820Y019750D01*
X008820Y019874D01*
X008882Y019935D01*
X008944Y019935D01*
X009190Y019689D01*
X009190Y019935D01*
X009005Y015760D02*
X009005Y015637D01*
X008882Y015516D02*
X008820Y015454D01*
X008820Y015330D01*
X008882Y015269D01*
X009129Y015269D01*
X009190Y015330D01*
X009190Y015454D01*
X009129Y015516D01*
X009544Y014471D02*
X009544Y014409D01*
X009544Y014288D02*
X009790Y014164D01*
X009544Y014041D01*
X009420Y009542D02*
X009358Y009542D01*
X009129Y008990D02*
X008944Y008990D01*
X008944Y008437D02*
X008944Y008376D01*
X009190Y008254D02*
X009190Y008007D01*
X008820Y008007D01*
X009420Y008376D02*
X009790Y008623D01*
X009790Y008376D02*
X009420Y008623D01*
X009605Y007886D02*
X009544Y007824D01*
X009544Y007701D01*
X009605Y007639D01*
X009729Y007639D01*
X009790Y007701D01*
X009790Y007824D01*
X009667Y007886D02*
X009667Y007639D01*
X009544Y007518D02*
X009544Y007332D01*
X009605Y007271D01*
X009729Y007271D01*
X009790Y007332D01*
X009790Y007518D01*
X009420Y007518D01*
X009190Y007518D02*
X008944Y007518D01*
X008820Y007394D01*
X008944Y007271D01*
X009190Y007271D01*
X009129Y007149D02*
X009067Y007149D01*
X009005Y007088D01*
X009005Y006902D01*
X009129Y006902D01*
X009190Y006964D01*
X009190Y007088D01*
X009129Y007149D01*
X009005Y007271D02*
X009005Y007518D01*
X008820Y007149D02*
X008882Y007026D01*
X009005Y006902D01*
X008882Y006781D02*
X009129Y006534D01*
X009190Y006596D01*
X009190Y006719D01*
X009129Y006781D01*
X008882Y006781D01*
X008820Y006719D01*
X008820Y006596D01*
X008882Y006534D01*
X009129Y006534D01*
X009005Y006413D02*
X009005Y006166D01*
X008944Y006044D02*
X009005Y005983D01*
X009067Y006044D01*
X009129Y006044D01*
X009190Y005983D01*
X009190Y005859D01*
X009129Y005798D01*
X009129Y005676D02*
X009190Y005614D01*
X009190Y005491D01*
X009129Y005429D01*
X009005Y005429D02*
X008944Y005553D01*
X008944Y005614D01*
X009005Y005676D01*
X009129Y005676D01*
X009005Y005921D02*
X009005Y005983D01*
X008944Y006044D02*
X008882Y006044D01*
X008820Y005983D01*
X008820Y005859D01*
X008882Y005798D01*
X008820Y005676D02*
X008820Y005429D01*
X009005Y005429D01*
X009190Y005308D02*
X009190Y005061D01*
X009190Y005184D02*
X008820Y005184D01*
X008944Y005061D01*
X009420Y005061D02*
X009790Y005061D01*
X009790Y005308D01*
X009790Y005429D02*
X009420Y005429D01*
X009420Y005614D01*
X009482Y005676D01*
X009605Y005676D01*
X009667Y005614D01*
X009667Y005429D01*
X009420Y005798D02*
X009420Y006044D01*
X009420Y005921D02*
X009790Y005921D01*
X009790Y006534D02*
X009544Y006534D01*
X009544Y006596D01*
X009605Y006658D01*
X009544Y006719D01*
X009605Y006781D01*
X009790Y006781D01*
X009790Y006658D02*
X009605Y006658D01*
X009605Y006902D02*
X009544Y006964D01*
X009544Y007088D01*
X009605Y007149D01*
X009729Y007149D01*
X009790Y007088D01*
X009790Y006964D01*
X009729Y006902D01*
X009605Y006902D01*
X009605Y007886D02*
X009667Y007886D01*
D12*
X002392Y002936D02*
X002394Y002987D01*
X002400Y003038D01*
X002410Y003088D01*
X002423Y003138D01*
X002441Y003186D01*
X002461Y003233D01*
X002486Y003278D01*
X002514Y003321D01*
X002545Y003362D01*
X002579Y003400D01*
X002616Y003435D01*
X002655Y003468D01*
X002697Y003498D01*
X002741Y003524D01*
X002787Y003546D01*
X002835Y003566D01*
X002884Y003581D01*
X002934Y003593D01*
X002984Y003601D01*
X003035Y003605D01*
X003087Y003605D01*
X003138Y003601D01*
X003188Y003593D01*
X003238Y003581D01*
X003287Y003566D01*
X003335Y003546D01*
X003381Y003524D01*
X003425Y003498D01*
X003467Y003468D01*
X003506Y003435D01*
X003543Y003400D01*
X003577Y003362D01*
X003608Y003321D01*
X003636Y003278D01*
X003661Y003233D01*
X003681Y003186D01*
X003699Y003138D01*
X003712Y003088D01*
X003722Y003038D01*
X003728Y002987D01*
X003730Y002936D01*
X003728Y002885D01*
X003722Y002834D01*
X003712Y002784D01*
X003699Y002734D01*
X003681Y002686D01*
X003661Y002639D01*
X003636Y002594D01*
X003608Y002551D01*
X003577Y002510D01*
X003543Y002472D01*
X003506Y002437D01*
X003467Y002404D01*
X003425Y002374D01*
X003381Y002348D01*
X003335Y002326D01*
X003287Y002306D01*
X003238Y002291D01*
X003188Y002279D01*
X003138Y002271D01*
X003087Y002267D01*
X003035Y002267D01*
X002984Y002271D01*
X002934Y002279D01*
X002884Y002291D01*
X002835Y002306D01*
X002787Y002326D01*
X002741Y002348D01*
X002697Y002374D01*
X002655Y002404D01*
X002616Y002437D01*
X002579Y002472D01*
X002545Y002510D01*
X002514Y002551D01*
X002486Y002594D01*
X002461Y002639D01*
X002441Y002686D01*
X002423Y002734D01*
X002410Y002784D01*
X002400Y002834D01*
X002394Y002885D01*
X002392Y002936D01*
X006353Y028416D02*
X008242Y028416D01*
X008242Y032944D01*
X006353Y032944D01*
X006353Y028416D01*
X002392Y036794D02*
X002394Y036845D01*
X002400Y036896D01*
X002410Y036946D01*
X002423Y036996D01*
X002441Y037044D01*
X002461Y037091D01*
X002486Y037136D01*
X002514Y037179D01*
X002545Y037220D01*
X002579Y037258D01*
X002616Y037293D01*
X002655Y037326D01*
X002697Y037356D01*
X002741Y037382D01*
X002787Y037404D01*
X002835Y037424D01*
X002884Y037439D01*
X002934Y037451D01*
X002984Y037459D01*
X003035Y037463D01*
X003087Y037463D01*
X003138Y037459D01*
X003188Y037451D01*
X003238Y037439D01*
X003287Y037424D01*
X003335Y037404D01*
X003381Y037382D01*
X003425Y037356D01*
X003467Y037326D01*
X003506Y037293D01*
X003543Y037258D01*
X003577Y037220D01*
X003608Y037179D01*
X003636Y037136D01*
X003661Y037091D01*
X003681Y037044D01*
X003699Y036996D01*
X003712Y036946D01*
X003722Y036896D01*
X003728Y036845D01*
X003730Y036794D01*
X003728Y036743D01*
X003722Y036692D01*
X003712Y036642D01*
X003699Y036592D01*
X003681Y036544D01*
X003661Y036497D01*
X003636Y036452D01*
X003608Y036409D01*
X003577Y036368D01*
X003543Y036330D01*
X003506Y036295D01*
X003467Y036262D01*
X003425Y036232D01*
X003381Y036206D01*
X003335Y036184D01*
X003287Y036164D01*
X003238Y036149D01*
X003188Y036137D01*
X003138Y036129D01*
X003087Y036125D01*
X003035Y036125D01*
X002984Y036129D01*
X002934Y036137D01*
X002884Y036149D01*
X002835Y036164D01*
X002787Y036184D01*
X002741Y036206D01*
X002697Y036232D01*
X002655Y036262D01*
X002616Y036295D01*
X002579Y036330D01*
X002545Y036368D01*
X002514Y036409D01*
X002486Y036452D01*
X002461Y036497D01*
X002441Y036544D01*
X002423Y036592D01*
X002410Y036642D01*
X002400Y036692D01*
X002394Y036743D01*
X002392Y036794D01*
X030047Y003524D02*
X030047Y002924D01*
X030047Y002734D01*
X030047Y001160D01*
X030047Y000966D01*
X034047Y000966D01*
X034047Y000699D01*
X034047Y000454D01*
X034047Y000336D01*
X030047Y000336D01*
X030047Y000454D01*
X034047Y000454D01*
X034047Y000699D02*
X030047Y000699D01*
X030047Y000620D01*
X030047Y000454D01*
X029926Y000561D02*
X029997Y000620D01*
X030047Y000620D01*
X030047Y000699D02*
X030047Y000783D01*
X030047Y000966D01*
X029926Y000842D02*
X029997Y000783D01*
X030047Y000783D01*
X029926Y000842D02*
X029823Y000842D01*
X029823Y000561D01*
X029926Y000561D01*
X030293Y001940D02*
X030295Y001994D01*
X030301Y002049D01*
X030311Y002102D01*
X030324Y002155D01*
X030342Y002206D01*
X030363Y002257D01*
X030387Y002305D01*
X030415Y002352D01*
X030447Y002396D01*
X030481Y002438D01*
X030519Y002478D01*
X030559Y002515D01*
X030602Y002548D01*
X030647Y002579D01*
X030694Y002606D01*
X030743Y002630D01*
X030793Y002650D01*
X030845Y002667D01*
X030898Y002679D01*
X030952Y002688D01*
X031006Y002693D01*
X031061Y002694D01*
X031115Y002691D01*
X031169Y002684D01*
X031222Y002673D01*
X031275Y002659D01*
X031326Y002640D01*
X031376Y002618D01*
X031424Y002593D01*
X031470Y002564D01*
X031514Y002532D01*
X031556Y002497D01*
X031594Y002459D01*
X031630Y002418D01*
X031663Y002374D01*
X031693Y002329D01*
X031719Y002281D01*
X031742Y002232D01*
X031762Y002181D01*
X031777Y002129D01*
X031789Y002075D01*
X031797Y002022D01*
X031801Y001967D01*
X031801Y001913D01*
X031797Y001858D01*
X031789Y001805D01*
X031777Y001751D01*
X031762Y001699D01*
X031742Y001648D01*
X031719Y001599D01*
X031693Y001551D01*
X031663Y001506D01*
X031630Y001462D01*
X031594Y001421D01*
X031556Y001383D01*
X031514Y001348D01*
X031470Y001316D01*
X031424Y001287D01*
X031376Y001262D01*
X031326Y001240D01*
X031275Y001221D01*
X031222Y001207D01*
X031169Y001196D01*
X031115Y001189D01*
X031061Y001186D01*
X031006Y001187D01*
X030952Y001192D01*
X030898Y001201D01*
X030845Y001213D01*
X030793Y001230D01*
X030743Y001250D01*
X030694Y001274D01*
X030647Y001301D01*
X030602Y001332D01*
X030559Y001365D01*
X030519Y001402D01*
X030481Y001442D01*
X030447Y001484D01*
X030415Y001528D01*
X030387Y001575D01*
X030363Y001623D01*
X030342Y001674D01*
X030324Y001725D01*
X030311Y001778D01*
X030301Y001831D01*
X030295Y001886D01*
X030293Y001940D01*
X030047Y002924D02*
X034047Y002924D01*
X034047Y003524D01*
X030047Y003524D01*
X032293Y001940D02*
X032295Y001994D01*
X032301Y002049D01*
X032311Y002102D01*
X032324Y002155D01*
X032342Y002206D01*
X032363Y002257D01*
X032387Y002305D01*
X032415Y002352D01*
X032447Y002396D01*
X032481Y002438D01*
X032519Y002478D01*
X032559Y002515D01*
X032602Y002548D01*
X032647Y002579D01*
X032694Y002606D01*
X032743Y002630D01*
X032793Y002650D01*
X032845Y002667D01*
X032898Y002679D01*
X032952Y002688D01*
X033006Y002693D01*
X033061Y002694D01*
X033115Y002691D01*
X033169Y002684D01*
X033222Y002673D01*
X033275Y002659D01*
X033326Y002640D01*
X033376Y002618D01*
X033424Y002593D01*
X033470Y002564D01*
X033514Y002532D01*
X033556Y002497D01*
X033594Y002459D01*
X033630Y002418D01*
X033663Y002374D01*
X033693Y002329D01*
X033719Y002281D01*
X033742Y002232D01*
X033762Y002181D01*
X033777Y002129D01*
X033789Y002075D01*
X033797Y002022D01*
X033801Y001967D01*
X033801Y001913D01*
X033797Y001858D01*
X033789Y001805D01*
X033777Y001751D01*
X033762Y001699D01*
X033742Y001648D01*
X033719Y001599D01*
X033693Y001551D01*
X033663Y001506D01*
X033630Y001462D01*
X033594Y001421D01*
X033556Y001383D01*
X033514Y001348D01*
X033470Y001316D01*
X033424Y001287D01*
X033376Y001262D01*
X033326Y001240D01*
X033275Y001221D01*
X033222Y001207D01*
X033169Y001196D01*
X033115Y001189D01*
X033061Y001186D01*
X033006Y001187D01*
X032952Y001192D01*
X032898Y001201D01*
X032845Y001213D01*
X032793Y001230D01*
X032743Y001250D01*
X032694Y001274D01*
X032647Y001301D01*
X032602Y001332D01*
X032559Y001365D01*
X032519Y001402D01*
X032481Y001442D01*
X032447Y001484D01*
X032415Y001528D01*
X032387Y001575D01*
X032363Y001623D01*
X032342Y001674D01*
X032324Y001725D01*
X032311Y001778D01*
X032301Y001831D01*
X032295Y001886D01*
X032293Y001940D01*
X034047Y001160D02*
X034047Y002734D01*
X034047Y002924D01*
X034047Y001160D02*
X034047Y000966D01*
X036251Y002936D02*
X036253Y002987D01*
X036259Y003038D01*
X036269Y003088D01*
X036282Y003138D01*
X036300Y003186D01*
X036320Y003233D01*
X036345Y003278D01*
X036373Y003321D01*
X036404Y003362D01*
X036438Y003400D01*
X036475Y003435D01*
X036514Y003468D01*
X036556Y003498D01*
X036600Y003524D01*
X036646Y003546D01*
X036694Y003566D01*
X036743Y003581D01*
X036793Y003593D01*
X036843Y003601D01*
X036894Y003605D01*
X036946Y003605D01*
X036997Y003601D01*
X037047Y003593D01*
X037097Y003581D01*
X037146Y003566D01*
X037194Y003546D01*
X037240Y003524D01*
X037284Y003498D01*
X037326Y003468D01*
X037365Y003435D01*
X037402Y003400D01*
X037436Y003362D01*
X037467Y003321D01*
X037495Y003278D01*
X037520Y003233D01*
X037540Y003186D01*
X037558Y003138D01*
X037571Y003088D01*
X037581Y003038D01*
X037587Y002987D01*
X037589Y002936D01*
X037587Y002885D01*
X037581Y002834D01*
X037571Y002784D01*
X037558Y002734D01*
X037540Y002686D01*
X037520Y002639D01*
X037495Y002594D01*
X037467Y002551D01*
X037436Y002510D01*
X037402Y002472D01*
X037365Y002437D01*
X037326Y002404D01*
X037284Y002374D01*
X037240Y002348D01*
X037194Y002326D01*
X037146Y002306D01*
X037097Y002291D01*
X037047Y002279D01*
X036997Y002271D01*
X036946Y002267D01*
X036894Y002267D01*
X036843Y002271D01*
X036793Y002279D01*
X036743Y002291D01*
X036694Y002306D01*
X036646Y002326D01*
X036600Y002348D01*
X036556Y002374D01*
X036514Y002404D01*
X036475Y002437D01*
X036438Y002472D01*
X036404Y002510D01*
X036373Y002551D01*
X036345Y002594D01*
X036320Y002639D01*
X036300Y002686D01*
X036282Y002734D01*
X036269Y002784D01*
X036259Y002834D01*
X036253Y002885D01*
X036251Y002936D01*
X039143Y016947D02*
X039424Y016947D01*
X039424Y017051D01*
X039365Y017121D01*
X039365Y017172D01*
X039532Y017172D01*
X039650Y017172D01*
X039650Y021172D01*
X039532Y021172D01*
X039532Y017172D01*
X039365Y017172D02*
X039287Y017172D01*
X039287Y021172D01*
X039532Y021172D01*
X039287Y021172D02*
X039019Y021172D01*
X038825Y021172D01*
X037252Y021172D01*
X037062Y021172D01*
X036461Y021172D01*
X036461Y017172D01*
X037062Y017172D01*
X037252Y017172D01*
X038825Y017172D01*
X039019Y017172D01*
X039019Y021172D01*
X038209Y021930D02*
X037595Y021930D01*
X037902Y022237D02*
X037902Y021623D01*
X037062Y021172D02*
X037062Y017172D01*
X037292Y018172D02*
X037294Y018226D01*
X037300Y018281D01*
X037310Y018334D01*
X037323Y018387D01*
X037341Y018438D01*
X037362Y018489D01*
X037386Y018537D01*
X037414Y018584D01*
X037446Y018628D01*
X037480Y018670D01*
X037518Y018710D01*
X037558Y018747D01*
X037601Y018780D01*
X037646Y018811D01*
X037693Y018838D01*
X037742Y018862D01*
X037792Y018882D01*
X037844Y018899D01*
X037897Y018911D01*
X037951Y018920D01*
X038005Y018925D01*
X038060Y018926D01*
X038114Y018923D01*
X038168Y018916D01*
X038221Y018905D01*
X038274Y018891D01*
X038325Y018872D01*
X038375Y018850D01*
X038423Y018825D01*
X038469Y018796D01*
X038513Y018764D01*
X038555Y018729D01*
X038593Y018691D01*
X038629Y018650D01*
X038662Y018606D01*
X038692Y018561D01*
X038718Y018513D01*
X038741Y018464D01*
X038761Y018413D01*
X038776Y018361D01*
X038788Y018307D01*
X038796Y018254D01*
X038800Y018199D01*
X038800Y018145D01*
X038796Y018090D01*
X038788Y018037D01*
X038776Y017983D01*
X038761Y017931D01*
X038741Y017880D01*
X038718Y017831D01*
X038692Y017783D01*
X038662Y017738D01*
X038629Y017694D01*
X038593Y017653D01*
X038555Y017615D01*
X038513Y017580D01*
X038469Y017548D01*
X038423Y017519D01*
X038375Y017494D01*
X038325Y017472D01*
X038274Y017453D01*
X038221Y017439D01*
X038168Y017428D01*
X038114Y017421D01*
X038060Y017418D01*
X038005Y017419D01*
X037951Y017424D01*
X037897Y017433D01*
X037844Y017445D01*
X037792Y017462D01*
X037742Y017482D01*
X037693Y017506D01*
X037646Y017533D01*
X037601Y017564D01*
X037558Y017597D01*
X037518Y017634D01*
X037480Y017674D01*
X037446Y017716D01*
X037414Y017760D01*
X037386Y017807D01*
X037362Y017855D01*
X037341Y017906D01*
X037323Y017957D01*
X037310Y018010D01*
X037300Y018063D01*
X037294Y018118D01*
X037292Y018172D01*
X039019Y017172D02*
X039202Y017172D01*
X039287Y017172D01*
X039202Y017172D02*
X039202Y017121D01*
X039143Y017051D01*
X039143Y016947D01*
X037292Y020172D02*
X037294Y020226D01*
X037300Y020281D01*
X037310Y020334D01*
X037323Y020387D01*
X037341Y020438D01*
X037362Y020489D01*
X037386Y020537D01*
X037414Y020584D01*
X037446Y020628D01*
X037480Y020670D01*
X037518Y020710D01*
X037558Y020747D01*
X037601Y020780D01*
X037646Y020811D01*
X037693Y020838D01*
X037742Y020862D01*
X037792Y020882D01*
X037844Y020899D01*
X037897Y020911D01*
X037951Y020920D01*
X038005Y020925D01*
X038060Y020926D01*
X038114Y020923D01*
X038168Y020916D01*
X038221Y020905D01*
X038274Y020891D01*
X038325Y020872D01*
X038375Y020850D01*
X038423Y020825D01*
X038469Y020796D01*
X038513Y020764D01*
X038555Y020729D01*
X038593Y020691D01*
X038629Y020650D01*
X038662Y020606D01*
X038692Y020561D01*
X038718Y020513D01*
X038741Y020464D01*
X038761Y020413D01*
X038776Y020361D01*
X038788Y020307D01*
X038796Y020254D01*
X038800Y020199D01*
X038800Y020145D01*
X038796Y020090D01*
X038788Y020037D01*
X038776Y019983D01*
X038761Y019931D01*
X038741Y019880D01*
X038718Y019831D01*
X038692Y019783D01*
X038662Y019738D01*
X038629Y019694D01*
X038593Y019653D01*
X038555Y019615D01*
X038513Y019580D01*
X038469Y019548D01*
X038423Y019519D01*
X038375Y019494D01*
X038325Y019472D01*
X038274Y019453D01*
X038221Y019439D01*
X038168Y019428D01*
X038114Y019421D01*
X038060Y019418D01*
X038005Y019419D01*
X037951Y019424D01*
X037897Y019433D01*
X037844Y019445D01*
X037792Y019462D01*
X037742Y019482D01*
X037693Y019506D01*
X037646Y019533D01*
X037601Y019564D01*
X037558Y019597D01*
X037518Y019634D01*
X037480Y019674D01*
X037446Y019716D01*
X037414Y019760D01*
X037386Y019807D01*
X037362Y019855D01*
X037341Y019906D01*
X037323Y019957D01*
X037310Y020010D01*
X037300Y020063D01*
X037294Y020118D01*
X037292Y020172D01*
X036251Y036794D02*
X036253Y036845D01*
X036259Y036896D01*
X036269Y036946D01*
X036282Y036996D01*
X036300Y037044D01*
X036320Y037091D01*
X036345Y037136D01*
X036373Y037179D01*
X036404Y037220D01*
X036438Y037258D01*
X036475Y037293D01*
X036514Y037326D01*
X036556Y037356D01*
X036600Y037382D01*
X036646Y037404D01*
X036694Y037424D01*
X036743Y037439D01*
X036793Y037451D01*
X036843Y037459D01*
X036894Y037463D01*
X036946Y037463D01*
X036997Y037459D01*
X037047Y037451D01*
X037097Y037439D01*
X037146Y037424D01*
X037194Y037404D01*
X037240Y037382D01*
X037284Y037356D01*
X037326Y037326D01*
X037365Y037293D01*
X037402Y037258D01*
X037436Y037220D01*
X037467Y037179D01*
X037495Y037136D01*
X037520Y037091D01*
X037540Y037044D01*
X037558Y036996D01*
X037571Y036946D01*
X037581Y036896D01*
X037587Y036845D01*
X037589Y036794D01*
X037587Y036743D01*
X037581Y036692D01*
X037571Y036642D01*
X037558Y036592D01*
X037540Y036544D01*
X037520Y036497D01*
X037495Y036452D01*
X037467Y036409D01*
X037436Y036368D01*
X037402Y036330D01*
X037365Y036295D01*
X037326Y036262D01*
X037284Y036232D01*
X037240Y036206D01*
X037194Y036184D01*
X037146Y036164D01*
X037097Y036149D01*
X037047Y036137D01*
X036997Y036129D01*
X036946Y036125D01*
X036894Y036125D01*
X036843Y036129D01*
X036793Y036137D01*
X036743Y036149D01*
X036694Y036164D01*
X036646Y036184D01*
X036600Y036206D01*
X036556Y036232D01*
X036514Y036262D01*
X036475Y036295D01*
X036438Y036330D01*
X036404Y036368D01*
X036373Y036409D01*
X036345Y036452D01*
X036320Y036497D01*
X036300Y036544D01*
X036282Y036592D01*
X036269Y036642D01*
X036259Y036692D01*
X036253Y036743D01*
X036251Y036794D01*
D13*
X035570Y036794D02*
X035572Y036867D01*
X035578Y036940D01*
X035588Y037012D01*
X035602Y037084D01*
X035619Y037155D01*
X035641Y037225D01*
X035666Y037294D01*
X035695Y037361D01*
X035727Y037426D01*
X035763Y037490D01*
X035803Y037552D01*
X035845Y037611D01*
X035891Y037668D01*
X035940Y037722D01*
X035992Y037774D01*
X036046Y037823D01*
X036103Y037869D01*
X036162Y037911D01*
X036224Y037951D01*
X036288Y037987D01*
X036353Y038019D01*
X036420Y038048D01*
X036489Y038073D01*
X036559Y038095D01*
X036630Y038112D01*
X036702Y038126D01*
X036774Y038136D01*
X036847Y038142D01*
X036920Y038144D01*
X036993Y038142D01*
X037066Y038136D01*
X037138Y038126D01*
X037210Y038112D01*
X037281Y038095D01*
X037351Y038073D01*
X037420Y038048D01*
X037487Y038019D01*
X037552Y037987D01*
X037616Y037951D01*
X037678Y037911D01*
X037737Y037869D01*
X037794Y037823D01*
X037848Y037774D01*
X037900Y037722D01*
X037949Y037668D01*
X037995Y037611D01*
X038037Y037552D01*
X038077Y037490D01*
X038113Y037426D01*
X038145Y037361D01*
X038174Y037294D01*
X038199Y037225D01*
X038221Y037155D01*
X038238Y037084D01*
X038252Y037012D01*
X038262Y036940D01*
X038268Y036867D01*
X038270Y036794D01*
X038268Y036721D01*
X038262Y036648D01*
X038252Y036576D01*
X038238Y036504D01*
X038221Y036433D01*
X038199Y036363D01*
X038174Y036294D01*
X038145Y036227D01*
X038113Y036162D01*
X038077Y036098D01*
X038037Y036036D01*
X037995Y035977D01*
X037949Y035920D01*
X037900Y035866D01*
X037848Y035814D01*
X037794Y035765D01*
X037737Y035719D01*
X037678Y035677D01*
X037616Y035637D01*
X037552Y035601D01*
X037487Y035569D01*
X037420Y035540D01*
X037351Y035515D01*
X037281Y035493D01*
X037210Y035476D01*
X037138Y035462D01*
X037066Y035452D01*
X036993Y035446D01*
X036920Y035444D01*
X036847Y035446D01*
X036774Y035452D01*
X036702Y035462D01*
X036630Y035476D01*
X036559Y035493D01*
X036489Y035515D01*
X036420Y035540D01*
X036353Y035569D01*
X036288Y035601D01*
X036224Y035637D01*
X036162Y035677D01*
X036103Y035719D01*
X036046Y035765D01*
X035992Y035814D01*
X035940Y035866D01*
X035891Y035920D01*
X035845Y035977D01*
X035803Y036036D01*
X035763Y036098D01*
X035727Y036162D01*
X035695Y036227D01*
X035666Y036294D01*
X035641Y036363D01*
X035619Y036433D01*
X035602Y036504D01*
X035588Y036576D01*
X035578Y036648D01*
X035572Y036721D01*
X035570Y036794D01*
X035063Y037997D02*
X033048Y037997D01*
X032655Y037680D02*
X031955Y037680D01*
X031938Y037678D01*
X031921Y037674D01*
X031905Y037667D01*
X031891Y037657D01*
X031878Y037644D01*
X031868Y037630D01*
X031861Y037614D01*
X031857Y037597D01*
X031855Y037580D01*
X031855Y037430D01*
X031905Y037380D01*
X031905Y035480D01*
X031855Y035430D01*
X031855Y035280D01*
X031857Y035263D01*
X031861Y035246D01*
X031868Y035230D01*
X031878Y035216D01*
X031891Y035203D01*
X031905Y035193D01*
X031921Y035186D01*
X031938Y035182D01*
X031955Y035180D01*
X032655Y035180D01*
X032672Y035182D01*
X032689Y035186D01*
X032705Y035193D01*
X032719Y035203D01*
X032732Y035216D01*
X032742Y035230D01*
X032749Y035246D01*
X032753Y035263D01*
X032755Y035280D01*
X032755Y035430D01*
X032705Y035480D01*
X032705Y037380D01*
X032755Y037430D01*
X032755Y037580D01*
X032753Y037597D01*
X032749Y037614D01*
X032742Y037630D01*
X032732Y037644D01*
X032719Y037657D01*
X032705Y037667D01*
X032689Y037674D01*
X032672Y037678D01*
X032655Y037680D01*
X031555Y037580D02*
X031555Y035280D01*
X029555Y035280D01*
X029555Y036030D01*
X029594Y036032D01*
X029633Y036038D01*
X029671Y036047D01*
X029708Y036060D01*
X029744Y036077D01*
X029777Y036097D01*
X029809Y036121D01*
X029838Y036147D01*
X029864Y036176D01*
X029888Y036208D01*
X029908Y036241D01*
X029925Y036277D01*
X029938Y036314D01*
X029947Y036352D01*
X029953Y036391D01*
X029955Y036430D01*
X029953Y036469D01*
X029947Y036508D01*
X029938Y036546D01*
X029925Y036583D01*
X029908Y036619D01*
X029888Y036652D01*
X029864Y036684D01*
X029838Y036713D01*
X029809Y036739D01*
X029777Y036763D01*
X029744Y036783D01*
X029708Y036800D01*
X029671Y036813D01*
X029633Y036822D01*
X029594Y036828D01*
X029555Y036830D01*
X029555Y037580D01*
X031555Y037580D01*
X027705Y037680D02*
X027705Y033680D01*
X025405Y033680D01*
X025405Y037680D01*
X026155Y037680D01*
X025905Y037980D02*
X027205Y037980D01*
X027231Y037982D01*
X027257Y037987D01*
X027282Y037995D01*
X027305Y038007D01*
X027327Y038021D01*
X027346Y038039D01*
X027364Y038058D01*
X027378Y038080D01*
X027390Y038103D01*
X027398Y038128D01*
X027403Y038154D01*
X027405Y038180D01*
X027405Y038680D01*
X027403Y038706D01*
X027398Y038732D01*
X027390Y038757D01*
X027378Y038780D01*
X027364Y038802D01*
X027346Y038821D01*
X027327Y038839D01*
X027305Y038853D01*
X027282Y038865D01*
X027257Y038873D01*
X027231Y038878D01*
X027205Y038880D01*
X025905Y038880D01*
X025879Y038878D01*
X025853Y038873D01*
X025828Y038865D01*
X025805Y038853D01*
X025783Y038839D01*
X025764Y038821D01*
X025746Y038802D01*
X025732Y038780D01*
X025720Y038757D01*
X025712Y038732D01*
X025707Y038706D01*
X025705Y038680D01*
X025705Y038180D01*
X025707Y038154D01*
X025712Y038128D01*
X025720Y038103D01*
X025732Y038080D01*
X025746Y038058D01*
X025764Y038039D01*
X025783Y038021D01*
X025805Y038007D01*
X025828Y037995D01*
X025853Y037987D01*
X025879Y037982D01*
X025905Y037980D01*
X026155Y037680D02*
X026157Y037641D01*
X026163Y037602D01*
X026172Y037564D01*
X026185Y037527D01*
X026202Y037491D01*
X026222Y037458D01*
X026246Y037426D01*
X026272Y037397D01*
X026301Y037371D01*
X026333Y037347D01*
X026366Y037327D01*
X026402Y037310D01*
X026439Y037297D01*
X026477Y037288D01*
X026516Y037282D01*
X026555Y037280D01*
X026594Y037282D01*
X026633Y037288D01*
X026671Y037297D01*
X026708Y037310D01*
X026744Y037327D01*
X026777Y037347D01*
X026809Y037371D01*
X026838Y037397D01*
X026864Y037426D01*
X026888Y037458D01*
X026908Y037491D01*
X026925Y037527D01*
X026938Y037564D01*
X026947Y037602D01*
X026953Y037641D01*
X026955Y037680D01*
X027705Y037680D01*
X029655Y033180D02*
X030405Y033180D01*
X030407Y033141D01*
X030413Y033102D01*
X030422Y033064D01*
X030435Y033027D01*
X030452Y032991D01*
X030472Y032958D01*
X030496Y032926D01*
X030522Y032897D01*
X030551Y032871D01*
X030583Y032847D01*
X030616Y032827D01*
X030652Y032810D01*
X030689Y032797D01*
X030727Y032788D01*
X030766Y032782D01*
X030805Y032780D01*
X030844Y032782D01*
X030883Y032788D01*
X030921Y032797D01*
X030958Y032810D01*
X030994Y032827D01*
X031027Y032847D01*
X031059Y032871D01*
X031088Y032897D01*
X031114Y032926D01*
X031138Y032958D01*
X031158Y032991D01*
X031175Y033027D01*
X031188Y033064D01*
X031197Y033102D01*
X031203Y033141D01*
X031205Y033180D01*
X031955Y033180D01*
X031955Y023180D01*
X029655Y023180D01*
X029655Y033180D01*
X028205Y031980D02*
X028205Y023380D01*
X028203Y023354D01*
X028198Y023328D01*
X028190Y023303D01*
X028178Y023280D01*
X028164Y023258D01*
X028146Y023239D01*
X028127Y023221D01*
X028105Y023207D01*
X028082Y023195D01*
X028057Y023187D01*
X028031Y023182D01*
X028005Y023180D01*
X027605Y023180D01*
X027579Y023182D01*
X027553Y023187D01*
X027528Y023195D01*
X027505Y023207D01*
X027483Y023221D01*
X027464Y023239D01*
X027446Y023258D01*
X027432Y023280D01*
X027420Y023303D01*
X027412Y023328D01*
X027407Y023354D01*
X027405Y023380D01*
X027405Y031980D01*
X027455Y032030D02*
X028155Y032030D01*
X028155Y031330D01*
X027455Y031330D01*
X027455Y032030D01*
X027405Y031980D02*
X027407Y032006D01*
X027412Y032032D01*
X027420Y032057D01*
X027432Y032080D01*
X027446Y032102D01*
X027464Y032121D01*
X027483Y032139D01*
X027505Y032153D01*
X027528Y032165D01*
X027553Y032173D01*
X027579Y032178D01*
X027605Y032180D01*
X028005Y032180D01*
X028031Y032178D01*
X028057Y032173D01*
X028082Y032165D01*
X028105Y032153D01*
X028127Y032139D01*
X028146Y032121D01*
X028164Y032102D01*
X028178Y032080D01*
X028190Y032057D01*
X028198Y032032D01*
X028203Y032006D01*
X028205Y031980D01*
X025455Y032180D02*
X024705Y032180D01*
X024703Y032141D01*
X024697Y032102D01*
X024688Y032064D01*
X024675Y032027D01*
X024658Y031991D01*
X024638Y031958D01*
X024614Y031926D01*
X024588Y031897D01*
X024559Y031871D01*
X024527Y031847D01*
X024494Y031827D01*
X024458Y031810D01*
X024421Y031797D01*
X024383Y031788D01*
X024344Y031782D01*
X024305Y031780D01*
X024266Y031782D01*
X024227Y031788D01*
X024189Y031797D01*
X024152Y031810D01*
X024116Y031827D01*
X024083Y031847D01*
X024051Y031871D01*
X024022Y031897D01*
X023996Y031926D01*
X023972Y031958D01*
X023952Y031991D01*
X023935Y032027D01*
X023922Y032064D01*
X023913Y032102D01*
X023907Y032141D01*
X023905Y032180D01*
X023155Y032180D01*
X023155Y028180D01*
X025455Y028180D01*
X025455Y032180D01*
X022455Y033680D02*
X020155Y033680D01*
X020155Y037680D01*
X020905Y037680D01*
X020655Y037980D02*
X021955Y037980D01*
X021981Y037982D01*
X022007Y037987D01*
X022032Y037995D01*
X022055Y038007D01*
X022077Y038021D01*
X022096Y038039D01*
X022114Y038058D01*
X022128Y038080D01*
X022140Y038103D01*
X022148Y038128D01*
X022153Y038154D01*
X022155Y038180D01*
X022155Y038680D01*
X022153Y038706D01*
X022148Y038732D01*
X022140Y038757D01*
X022128Y038780D01*
X022114Y038802D01*
X022096Y038821D01*
X022077Y038839D01*
X022055Y038853D01*
X022032Y038865D01*
X022007Y038873D01*
X021981Y038878D01*
X021955Y038880D01*
X020655Y038880D01*
X020629Y038878D01*
X020603Y038873D01*
X020578Y038865D01*
X020555Y038853D01*
X020533Y038839D01*
X020514Y038821D01*
X020496Y038802D01*
X020482Y038780D01*
X020470Y038757D01*
X020462Y038732D01*
X020457Y038706D01*
X020455Y038680D01*
X020455Y038180D01*
X020457Y038154D01*
X020462Y038128D01*
X020470Y038103D01*
X020482Y038080D01*
X020496Y038058D01*
X020514Y038039D01*
X020533Y038021D01*
X020555Y038007D01*
X020578Y037995D01*
X020603Y037987D01*
X020629Y037982D01*
X020655Y037980D01*
X020905Y037680D02*
X020907Y037641D01*
X020913Y037602D01*
X020922Y037564D01*
X020935Y037527D01*
X020952Y037491D01*
X020972Y037458D01*
X020996Y037426D01*
X021022Y037397D01*
X021051Y037371D01*
X021083Y037347D01*
X021116Y037327D01*
X021152Y037310D01*
X021189Y037297D01*
X021227Y037288D01*
X021266Y037282D01*
X021305Y037280D01*
X021344Y037282D01*
X021383Y037288D01*
X021421Y037297D01*
X021458Y037310D01*
X021494Y037327D01*
X021527Y037347D01*
X021559Y037371D01*
X021588Y037397D01*
X021614Y037426D01*
X021638Y037458D01*
X021658Y037491D01*
X021675Y037527D01*
X021688Y037564D01*
X021697Y037602D01*
X021703Y037641D01*
X021705Y037680D01*
X022455Y037680D01*
X022455Y033680D01*
X021305Y032180D02*
X017555Y032180D01*
X017305Y031930D01*
X017305Y024180D01*
X021305Y024180D01*
X020305Y024280D02*
X020305Y025080D01*
X018305Y025080D01*
X018305Y024280D01*
X020305Y024280D01*
X020305Y025280D02*
X020305Y026080D01*
X018305Y026080D01*
X018305Y025280D01*
X020305Y025280D01*
X020305Y026280D02*
X020305Y027080D01*
X018305Y027080D01*
X018305Y026280D01*
X020305Y026280D01*
X020305Y027280D02*
X020305Y028080D01*
X018305Y028080D01*
X018305Y027280D01*
X020305Y027280D01*
X020305Y028280D02*
X020305Y029080D01*
X018305Y029080D01*
X018305Y028280D01*
X020305Y028280D01*
X020305Y029280D02*
X018305Y029280D01*
X018305Y030080D01*
X020305Y030080D01*
X020305Y029280D01*
X020305Y030280D02*
X018305Y030280D01*
X018305Y031080D01*
X020305Y031080D01*
X020305Y030280D01*
X020305Y031280D02*
X018305Y031280D01*
X018305Y032080D01*
X020305Y032080D01*
X020305Y031280D01*
X017205Y033680D02*
X014905Y033680D01*
X014905Y037680D01*
X015655Y037680D01*
X015405Y037980D02*
X016705Y037980D01*
X016731Y037982D01*
X016757Y037987D01*
X016782Y037995D01*
X016805Y038007D01*
X016827Y038021D01*
X016846Y038039D01*
X016864Y038058D01*
X016878Y038080D01*
X016890Y038103D01*
X016898Y038128D01*
X016903Y038154D01*
X016905Y038180D01*
X016905Y038680D01*
X016903Y038706D01*
X016898Y038732D01*
X016890Y038757D01*
X016878Y038780D01*
X016864Y038802D01*
X016846Y038821D01*
X016827Y038839D01*
X016805Y038853D01*
X016782Y038865D01*
X016757Y038873D01*
X016731Y038878D01*
X016705Y038880D01*
X015405Y038880D01*
X015379Y038878D01*
X015353Y038873D01*
X015328Y038865D01*
X015305Y038853D01*
X015283Y038839D01*
X015264Y038821D01*
X015246Y038802D01*
X015232Y038780D01*
X015220Y038757D01*
X015212Y038732D01*
X015207Y038706D01*
X015205Y038680D01*
X015205Y038180D01*
X015207Y038154D01*
X015212Y038128D01*
X015220Y038103D01*
X015232Y038080D01*
X015246Y038058D01*
X015264Y038039D01*
X015283Y038021D01*
X015305Y038007D01*
X015328Y037995D01*
X015353Y037987D01*
X015379Y037982D01*
X015405Y037980D01*
X015655Y037680D02*
X015657Y037641D01*
X015663Y037602D01*
X015672Y037564D01*
X015685Y037527D01*
X015702Y037491D01*
X015722Y037458D01*
X015746Y037426D01*
X015772Y037397D01*
X015801Y037371D01*
X015833Y037347D01*
X015866Y037327D01*
X015902Y037310D01*
X015939Y037297D01*
X015977Y037288D01*
X016016Y037282D01*
X016055Y037280D01*
X016094Y037282D01*
X016133Y037288D01*
X016171Y037297D01*
X016208Y037310D01*
X016244Y037327D01*
X016277Y037347D01*
X016309Y037371D01*
X016338Y037397D01*
X016364Y037426D01*
X016388Y037458D01*
X016408Y037491D01*
X016425Y037527D01*
X016438Y037564D01*
X016447Y037602D01*
X016453Y037641D01*
X016455Y037680D01*
X017205Y037680D01*
X017205Y033680D01*
X016255Y032680D02*
X015855Y032680D01*
X015829Y032678D01*
X015803Y032673D01*
X015778Y032665D01*
X015755Y032653D01*
X015733Y032639D01*
X015714Y032621D01*
X015696Y032602D01*
X015682Y032580D01*
X015670Y032557D01*
X015662Y032532D01*
X015657Y032506D01*
X015655Y032480D01*
X015655Y023880D01*
X015657Y023854D01*
X015662Y023828D01*
X015670Y023803D01*
X015682Y023780D01*
X015696Y023758D01*
X015714Y023739D01*
X015733Y023721D01*
X015755Y023707D01*
X015778Y023695D01*
X015803Y023687D01*
X015829Y023682D01*
X015855Y023680D01*
X016255Y023680D01*
X016281Y023682D01*
X016307Y023687D01*
X016332Y023695D01*
X016355Y023707D01*
X016377Y023721D01*
X016396Y023739D01*
X016414Y023758D01*
X016428Y023780D01*
X016440Y023803D01*
X016448Y023828D01*
X016453Y023854D01*
X016455Y023880D01*
X016455Y032480D01*
X016405Y032530D02*
X016405Y031830D01*
X015705Y031830D01*
X015705Y032530D01*
X016405Y032530D01*
X016455Y032480D02*
X016453Y032506D01*
X016448Y032532D01*
X016440Y032557D01*
X016428Y032580D01*
X016414Y032602D01*
X016396Y032621D01*
X016377Y032639D01*
X016355Y032653D01*
X016332Y032665D01*
X016307Y032673D01*
X016281Y032678D01*
X016255Y032680D01*
X013955Y031930D02*
X013205Y031930D01*
X013203Y031891D01*
X013197Y031852D01*
X013188Y031814D01*
X013175Y031777D01*
X013158Y031741D01*
X013138Y031708D01*
X013114Y031676D01*
X013088Y031647D01*
X013059Y031621D01*
X013027Y031597D01*
X012994Y031577D01*
X012958Y031560D01*
X012921Y031547D01*
X012883Y031538D01*
X012844Y031532D01*
X012805Y031530D01*
X012766Y031532D01*
X012727Y031538D01*
X012689Y031547D01*
X012652Y031560D01*
X012616Y031577D01*
X012583Y031597D01*
X012551Y031621D01*
X012522Y031647D01*
X012496Y031676D01*
X012472Y031708D01*
X012452Y031741D01*
X012435Y031777D01*
X012422Y031814D01*
X012413Y031852D01*
X012407Y031891D01*
X012405Y031930D01*
X011655Y031930D01*
X011655Y021930D01*
X013955Y021930D01*
X013955Y031930D01*
X013455Y032480D02*
X012155Y032480D01*
X012129Y032482D01*
X012103Y032487D01*
X012078Y032495D01*
X012055Y032507D01*
X012033Y032521D01*
X012014Y032539D01*
X011996Y032558D01*
X011982Y032580D01*
X011970Y032603D01*
X011962Y032628D01*
X011957Y032654D01*
X011955Y032680D01*
X011955Y033180D01*
X011957Y033206D01*
X011962Y033232D01*
X011970Y033257D01*
X011982Y033280D01*
X011996Y033302D01*
X012014Y033321D01*
X012033Y033339D01*
X012055Y033353D01*
X012078Y033365D01*
X012103Y033373D01*
X012129Y033378D01*
X012155Y033380D01*
X013455Y033380D01*
X013481Y033378D01*
X013507Y033373D01*
X013532Y033365D01*
X013555Y033353D01*
X013577Y033339D01*
X013596Y033321D01*
X013614Y033302D01*
X013628Y033280D01*
X013640Y033257D01*
X013648Y033232D01*
X013653Y033206D01*
X013655Y033180D01*
X013655Y032680D01*
X013653Y032654D01*
X013648Y032628D01*
X013640Y032603D01*
X013628Y032580D01*
X013614Y032558D01*
X013596Y032539D01*
X013577Y032521D01*
X013555Y032507D01*
X013532Y032495D01*
X013507Y032487D01*
X013481Y032482D01*
X013455Y032480D01*
X009955Y030730D02*
X009955Y022130D01*
X009953Y022104D01*
X009948Y022078D01*
X009940Y022053D01*
X009928Y022030D01*
X009914Y022008D01*
X009896Y021989D01*
X009877Y021971D01*
X009855Y021957D01*
X009832Y021945D01*
X009807Y021937D01*
X009781Y021932D01*
X009755Y021930D01*
X009355Y021930D01*
X009329Y021932D01*
X009303Y021937D01*
X009278Y021945D01*
X009255Y021957D01*
X009233Y021971D01*
X009214Y021989D01*
X009196Y022008D01*
X009182Y022030D01*
X009170Y022053D01*
X009162Y022078D01*
X009157Y022104D01*
X009155Y022130D01*
X009155Y030730D01*
X009205Y030780D02*
X009905Y030780D01*
X009905Y030080D01*
X009205Y030080D01*
X009205Y030780D01*
X009155Y030730D02*
X009157Y030756D01*
X009162Y030782D01*
X009170Y030807D01*
X009182Y030830D01*
X009196Y030852D01*
X009214Y030871D01*
X009233Y030889D01*
X009255Y030903D01*
X009278Y030915D01*
X009303Y030923D01*
X009329Y030928D01*
X009355Y030930D01*
X009755Y030930D01*
X009781Y030928D01*
X009807Y030923D01*
X009832Y030915D01*
X009855Y030903D01*
X009877Y030889D01*
X009896Y030871D01*
X009914Y030852D01*
X009928Y030830D01*
X009940Y030807D01*
X009948Y030782D01*
X009953Y030756D01*
X009955Y030730D01*
X008305Y027930D02*
X004805Y027930D01*
X004805Y026230D01*
X004855Y026230D01*
X004855Y025630D01*
X004805Y025630D01*
X004805Y025080D01*
X005005Y024930D01*
X005005Y024730D01*
X005005Y024130D01*
X005005Y023930D01*
X004805Y023780D01*
X004805Y020730D01*
X005205Y020730D01*
X005305Y020730D01*
X005305Y024130D01*
X005305Y024730D01*
X005305Y027430D01*
X007805Y027430D01*
X007805Y012430D01*
X005305Y012430D01*
X005305Y014130D01*
X005305Y014730D01*
X005305Y019130D01*
X005205Y019130D01*
X004805Y019130D01*
X004805Y020730D01*
X005305Y020730D02*
X005605Y020730D01*
X005605Y019130D01*
X005305Y019130D01*
X004805Y019130D02*
X004805Y015080D01*
X005005Y014930D01*
X005005Y014730D01*
X005005Y014130D01*
X005205Y014130D01*
X005305Y014130D01*
X005005Y014130D02*
X005005Y013930D01*
X004805Y013780D01*
X004805Y011930D01*
X008305Y011930D01*
X008305Y012430D01*
X008405Y012430D01*
X008405Y012930D01*
X008305Y012930D01*
X008305Y019680D01*
X008405Y019680D01*
X008405Y020180D01*
X008305Y020180D01*
X008305Y026930D01*
X008405Y026930D01*
X008405Y027430D01*
X008305Y027430D01*
X008305Y027930D01*
X006005Y029030D02*
X006005Y030330D01*
X006003Y030356D01*
X005998Y030382D01*
X005990Y030407D01*
X005978Y030430D01*
X005964Y030452D01*
X005946Y030471D01*
X005927Y030489D01*
X005905Y030503D01*
X005882Y030515D01*
X005857Y030523D01*
X005831Y030528D01*
X005805Y030530D01*
X005305Y030530D01*
X005279Y030528D01*
X005253Y030523D01*
X005228Y030515D01*
X005205Y030503D01*
X005183Y030489D01*
X005164Y030471D01*
X005146Y030452D01*
X005132Y030430D01*
X005120Y030407D01*
X005112Y030382D01*
X005107Y030356D01*
X005105Y030330D01*
X005105Y029030D01*
X005107Y029004D01*
X005112Y028978D01*
X005120Y028953D01*
X005132Y028930D01*
X005146Y028908D01*
X005164Y028889D01*
X005183Y028871D01*
X005205Y028857D01*
X005228Y028845D01*
X005253Y028837D01*
X005279Y028832D01*
X005305Y028830D01*
X005805Y028830D01*
X005831Y028832D01*
X005857Y028837D01*
X005882Y028845D01*
X005905Y028857D01*
X005927Y028871D01*
X005946Y028889D01*
X005964Y028908D01*
X005978Y028930D01*
X005990Y028953D01*
X005998Y028978D01*
X006003Y029004D01*
X006005Y029030D01*
X004555Y028230D02*
X004555Y030180D01*
X004355Y030380D01*
X000355Y030380D01*
X000355Y028380D01*
X000305Y028380D01*
X000305Y030380D01*
X000355Y030380D01*
X000305Y028380D02*
X000305Y028030D01*
X004355Y028030D01*
X004555Y028230D01*
X002655Y029190D02*
X002657Y029240D01*
X002663Y029290D01*
X002673Y029340D01*
X002686Y029388D01*
X002703Y029436D01*
X002724Y029482D01*
X002748Y029526D01*
X002776Y029568D01*
X002807Y029608D01*
X002841Y029645D01*
X002878Y029680D01*
X002917Y029711D01*
X002958Y029740D01*
X003002Y029765D01*
X003048Y029787D01*
X003095Y029805D01*
X003143Y029819D01*
X003192Y029830D01*
X003242Y029837D01*
X003292Y029840D01*
X003343Y029839D01*
X003393Y029834D01*
X003443Y029825D01*
X003491Y029813D01*
X003539Y029796D01*
X003585Y029776D01*
X003630Y029753D01*
X003673Y029726D01*
X003713Y029696D01*
X003751Y029663D01*
X003786Y029627D01*
X003819Y029588D01*
X003848Y029547D01*
X003874Y029504D01*
X003897Y029459D01*
X003916Y029412D01*
X003931Y029364D01*
X003943Y029315D01*
X003951Y029265D01*
X003955Y029215D01*
X003955Y029165D01*
X003951Y029115D01*
X003943Y029065D01*
X003931Y029016D01*
X003916Y028968D01*
X003897Y028921D01*
X003874Y028876D01*
X003848Y028833D01*
X003819Y028792D01*
X003786Y028753D01*
X003751Y028717D01*
X003713Y028684D01*
X003673Y028654D01*
X003630Y028627D01*
X003585Y028604D01*
X003539Y028584D01*
X003491Y028567D01*
X003443Y028555D01*
X003393Y028546D01*
X003343Y028541D01*
X003292Y028540D01*
X003242Y028543D01*
X003192Y028550D01*
X003143Y028561D01*
X003095Y028575D01*
X003048Y028593D01*
X003002Y028615D01*
X002958Y028640D01*
X002917Y028669D01*
X002878Y028700D01*
X002841Y028735D01*
X002807Y028772D01*
X002776Y028812D01*
X002748Y028854D01*
X002724Y028898D01*
X002703Y028944D01*
X002686Y028992D01*
X002673Y029040D01*
X002663Y029090D01*
X002657Y029140D01*
X002655Y029190D01*
X002355Y031330D02*
X002355Y031630D01*
X002505Y031480D02*
X002205Y031480D01*
X001205Y032680D02*
X001207Y032760D01*
X001213Y032839D01*
X001223Y032918D01*
X001237Y032997D01*
X001254Y033075D01*
X001276Y033152D01*
X001301Y033227D01*
X001331Y033301D01*
X001363Y033374D01*
X001400Y033445D01*
X001440Y033514D01*
X001483Y033581D01*
X001530Y033646D01*
X001579Y033708D01*
X001632Y033768D01*
X001688Y033825D01*
X001746Y033880D01*
X001807Y033931D01*
X001871Y033979D01*
X001937Y034024D01*
X002005Y034066D01*
X002075Y034104D01*
X002147Y034138D01*
X002220Y034169D01*
X002295Y034197D01*
X002372Y034220D01*
X002449Y034240D01*
X002527Y034256D01*
X002606Y034268D01*
X002685Y034276D01*
X002765Y034280D01*
X002845Y034280D01*
X002925Y034276D01*
X003004Y034268D01*
X003083Y034256D01*
X003161Y034240D01*
X003238Y034220D01*
X003315Y034197D01*
X003390Y034169D01*
X003463Y034138D01*
X003535Y034104D01*
X003605Y034066D01*
X003673Y034024D01*
X003739Y033979D01*
X003803Y033931D01*
X003864Y033880D01*
X003922Y033825D01*
X003978Y033768D01*
X004031Y033708D01*
X004080Y033646D01*
X004127Y033581D01*
X004170Y033514D01*
X004210Y033445D01*
X004247Y033374D01*
X004279Y033301D01*
X004309Y033227D01*
X004334Y033152D01*
X004356Y033075D01*
X004373Y032997D01*
X004387Y032918D01*
X004397Y032839D01*
X004403Y032760D01*
X004405Y032680D01*
X004403Y032600D01*
X004397Y032521D01*
X004387Y032442D01*
X004373Y032363D01*
X004356Y032285D01*
X004334Y032208D01*
X004309Y032133D01*
X004279Y032059D01*
X004247Y031986D01*
X004210Y031915D01*
X004170Y031846D01*
X004127Y031779D01*
X004080Y031714D01*
X004031Y031652D01*
X003978Y031592D01*
X003922Y031535D01*
X003864Y031480D01*
X003803Y031429D01*
X003739Y031381D01*
X003673Y031336D01*
X003605Y031294D01*
X003535Y031256D01*
X003463Y031222D01*
X003390Y031191D01*
X003315Y031163D01*
X003238Y031140D01*
X003161Y031120D01*
X003083Y031104D01*
X003004Y031092D01*
X002925Y031084D01*
X002845Y031080D01*
X002765Y031080D01*
X002685Y031084D01*
X002606Y031092D01*
X002527Y031104D01*
X002449Y031120D01*
X002372Y031140D01*
X002295Y031163D01*
X002220Y031191D01*
X002147Y031222D01*
X002075Y031256D01*
X002005Y031294D01*
X001937Y031336D01*
X001871Y031381D01*
X001807Y031429D01*
X001746Y031480D01*
X001688Y031535D01*
X001632Y031592D01*
X001579Y031652D01*
X001530Y031714D01*
X001483Y031779D01*
X001440Y031846D01*
X001400Y031915D01*
X001363Y031986D01*
X001331Y032059D01*
X001301Y032133D01*
X001276Y032208D01*
X001254Y032285D01*
X001237Y032363D01*
X001223Y032442D01*
X001213Y032521D01*
X001207Y032600D01*
X001205Y032680D01*
X005105Y032330D02*
X005105Y031030D01*
X005107Y031004D01*
X005112Y030978D01*
X005120Y030953D01*
X005132Y030930D01*
X005146Y030908D01*
X005164Y030889D01*
X005183Y030871D01*
X005205Y030857D01*
X005228Y030845D01*
X005253Y030837D01*
X005279Y030832D01*
X005305Y030830D01*
X005805Y030830D01*
X005831Y030832D01*
X005857Y030837D01*
X005882Y030845D01*
X005905Y030857D01*
X005927Y030871D01*
X005946Y030889D01*
X005964Y030908D01*
X005978Y030930D01*
X005990Y030953D01*
X005998Y030978D01*
X006003Y031004D01*
X006005Y031030D01*
X006005Y032330D01*
X006003Y032356D01*
X005998Y032382D01*
X005990Y032407D01*
X005978Y032430D01*
X005964Y032452D01*
X005946Y032471D01*
X005927Y032489D01*
X005905Y032503D01*
X005882Y032515D01*
X005857Y032523D01*
X005831Y032528D01*
X005805Y032530D01*
X005305Y032530D01*
X005279Y032528D01*
X005253Y032523D01*
X005228Y032515D01*
X005205Y032503D01*
X005183Y032489D01*
X005164Y032471D01*
X005146Y032452D01*
X005132Y032430D01*
X005120Y032407D01*
X005112Y032382D01*
X005107Y032356D01*
X005105Y032330D01*
X007805Y036560D02*
X008305Y038863D01*
X008805Y038863D01*
X009305Y036560D01*
X010305Y036560D02*
X010805Y038863D01*
X011305Y038863D01*
X011805Y036560D01*
X001711Y036794D02*
X001713Y036867D01*
X001719Y036940D01*
X001729Y037012D01*
X001743Y037084D01*
X001760Y037155D01*
X001782Y037225D01*
X001807Y037294D01*
X001836Y037361D01*
X001868Y037426D01*
X001904Y037490D01*
X001944Y037552D01*
X001986Y037611D01*
X002032Y037668D01*
X002081Y037722D01*
X002133Y037774D01*
X002187Y037823D01*
X002244Y037869D01*
X002303Y037911D01*
X002365Y037951D01*
X002429Y037987D01*
X002494Y038019D01*
X002561Y038048D01*
X002630Y038073D01*
X002700Y038095D01*
X002771Y038112D01*
X002843Y038126D01*
X002915Y038136D01*
X002988Y038142D01*
X003061Y038144D01*
X003134Y038142D01*
X003207Y038136D01*
X003279Y038126D01*
X003351Y038112D01*
X003422Y038095D01*
X003492Y038073D01*
X003561Y038048D01*
X003628Y038019D01*
X003693Y037987D01*
X003757Y037951D01*
X003819Y037911D01*
X003878Y037869D01*
X003935Y037823D01*
X003989Y037774D01*
X004041Y037722D01*
X004090Y037668D01*
X004136Y037611D01*
X004178Y037552D01*
X004218Y037490D01*
X004254Y037426D01*
X004286Y037361D01*
X004315Y037294D01*
X004340Y037225D01*
X004362Y037155D01*
X004379Y037084D01*
X004393Y037012D01*
X004403Y036940D01*
X004409Y036867D01*
X004411Y036794D01*
X004409Y036721D01*
X004403Y036648D01*
X004393Y036576D01*
X004379Y036504D01*
X004362Y036433D01*
X004340Y036363D01*
X004315Y036294D01*
X004286Y036227D01*
X004254Y036162D01*
X004218Y036098D01*
X004178Y036036D01*
X004136Y035977D01*
X004090Y035920D01*
X004041Y035866D01*
X003989Y035814D01*
X003935Y035765D01*
X003878Y035719D01*
X003819Y035677D01*
X003757Y035637D01*
X003693Y035601D01*
X003628Y035569D01*
X003561Y035540D01*
X003492Y035515D01*
X003422Y035493D01*
X003351Y035476D01*
X003279Y035462D01*
X003207Y035452D01*
X003134Y035446D01*
X003061Y035444D01*
X002988Y035446D01*
X002915Y035452D01*
X002843Y035462D01*
X002771Y035476D01*
X002700Y035493D01*
X002630Y035515D01*
X002561Y035540D01*
X002494Y035569D01*
X002429Y035601D01*
X002365Y035637D01*
X002303Y035677D01*
X002244Y035719D01*
X002187Y035765D01*
X002133Y035814D01*
X002081Y035866D01*
X002032Y035920D01*
X001986Y035977D01*
X001944Y036036D01*
X001904Y036098D01*
X001868Y036162D01*
X001836Y036227D01*
X001807Y036294D01*
X001782Y036363D01*
X001760Y036433D01*
X001743Y036504D01*
X001729Y036576D01*
X001719Y036648D01*
X001713Y036721D01*
X001711Y036794D01*
X000305Y028030D02*
X000305Y027930D01*
X000605Y027930D01*
X000605Y011930D01*
X000305Y011930D01*
X000305Y027930D01*
X005005Y024730D02*
X005205Y024730D01*
X005305Y024730D01*
X005305Y024130D02*
X005205Y024130D01*
X005005Y024130D01*
X009455Y021430D02*
X009455Y020930D01*
X009457Y020904D01*
X009462Y020878D01*
X009470Y020853D01*
X009482Y020830D01*
X009496Y020808D01*
X009514Y020789D01*
X009533Y020771D01*
X009555Y020757D01*
X009578Y020745D01*
X009603Y020737D01*
X009629Y020732D01*
X009655Y020730D01*
X010955Y020730D01*
X010981Y020732D01*
X011007Y020737D01*
X011032Y020745D01*
X011055Y020757D01*
X011077Y020771D01*
X011096Y020789D01*
X011114Y020808D01*
X011128Y020830D01*
X011140Y020853D01*
X011148Y020878D01*
X011153Y020904D01*
X011155Y020930D01*
X011155Y021430D01*
X011153Y021456D01*
X011148Y021482D01*
X011140Y021507D01*
X011128Y021530D01*
X011114Y021552D01*
X011096Y021571D01*
X011077Y021589D01*
X011055Y021603D01*
X011032Y021615D01*
X011007Y021623D01*
X010981Y021628D01*
X010955Y021630D01*
X009655Y021630D01*
X009629Y021628D01*
X009603Y021623D01*
X009578Y021615D01*
X009555Y021603D01*
X009533Y021589D01*
X009514Y021571D01*
X009496Y021552D01*
X009482Y021530D01*
X009470Y021507D01*
X009462Y021482D01*
X009457Y021456D01*
X009455Y021430D01*
X011405Y020430D02*
X013705Y020430D01*
X013705Y018430D01*
X012955Y018430D01*
X012953Y018469D01*
X012947Y018508D01*
X012938Y018546D01*
X012925Y018583D01*
X012908Y018619D01*
X012888Y018652D01*
X012864Y018684D01*
X012838Y018713D01*
X012809Y018739D01*
X012777Y018763D01*
X012744Y018783D01*
X012708Y018800D01*
X012671Y018813D01*
X012633Y018822D01*
X012594Y018828D01*
X012555Y018830D01*
X012516Y018828D01*
X012477Y018822D01*
X012439Y018813D01*
X012402Y018800D01*
X012366Y018783D01*
X012333Y018763D01*
X012301Y018739D01*
X012272Y018713D01*
X012246Y018684D01*
X012222Y018652D01*
X012202Y018619D01*
X012185Y018583D01*
X012172Y018546D01*
X012163Y018508D01*
X012157Y018469D01*
X012155Y018430D01*
X011405Y018430D01*
X011405Y020430D01*
X011955Y020930D02*
X011955Y021430D01*
X011957Y021456D01*
X011962Y021482D01*
X011970Y021507D01*
X011982Y021530D01*
X011996Y021552D01*
X012014Y021571D01*
X012033Y021589D01*
X012055Y021603D01*
X012078Y021615D01*
X012103Y021623D01*
X012129Y021628D01*
X012155Y021630D01*
X013455Y021630D01*
X013481Y021628D01*
X013507Y021623D01*
X013532Y021615D01*
X013555Y021603D01*
X013577Y021589D01*
X013596Y021571D01*
X013614Y021552D01*
X013628Y021530D01*
X013640Y021507D01*
X013648Y021482D01*
X013653Y021456D01*
X013655Y021430D01*
X013655Y020930D01*
X013653Y020904D01*
X013648Y020878D01*
X013640Y020853D01*
X013628Y020830D01*
X013614Y020808D01*
X013596Y020789D01*
X013577Y020771D01*
X013555Y020757D01*
X013532Y020745D01*
X013507Y020737D01*
X013481Y020732D01*
X013455Y020730D01*
X012155Y020730D01*
X012129Y020732D01*
X012103Y020737D01*
X012078Y020745D01*
X012055Y020757D01*
X012033Y020771D01*
X012014Y020789D01*
X011996Y020808D01*
X011982Y020830D01*
X011970Y020853D01*
X011962Y020878D01*
X011957Y020904D01*
X011955Y020930D01*
X011405Y018430D02*
X013705Y018430D01*
X013705Y016430D01*
X012955Y016430D01*
X012953Y016469D01*
X012947Y016508D01*
X012938Y016546D01*
X012925Y016583D01*
X012908Y016619D01*
X012888Y016652D01*
X012864Y016684D01*
X012838Y016713D01*
X012809Y016739D01*
X012777Y016763D01*
X012744Y016783D01*
X012708Y016800D01*
X012671Y016813D01*
X012633Y016822D01*
X012594Y016828D01*
X012555Y016830D01*
X012516Y016828D01*
X012477Y016822D01*
X012439Y016813D01*
X012402Y016800D01*
X012366Y016783D01*
X012333Y016763D01*
X012301Y016739D01*
X012272Y016713D01*
X012246Y016684D01*
X012222Y016652D01*
X012202Y016619D01*
X012185Y016583D01*
X012172Y016546D01*
X012163Y016508D01*
X012157Y016469D01*
X012155Y016430D01*
X011405Y016430D01*
X011405Y018430D01*
X011405Y016430D02*
X013705Y016430D01*
X013705Y014430D01*
X012955Y014430D01*
X012953Y014469D01*
X012947Y014508D01*
X012938Y014546D01*
X012925Y014583D01*
X012908Y014619D01*
X012888Y014652D01*
X012864Y014684D01*
X012838Y014713D01*
X012809Y014739D01*
X012777Y014763D01*
X012744Y014783D01*
X012708Y014800D01*
X012671Y014813D01*
X012633Y014822D01*
X012594Y014828D01*
X012555Y014830D01*
X012516Y014828D01*
X012477Y014822D01*
X012439Y014813D01*
X012402Y014800D01*
X012366Y014783D01*
X012333Y014763D01*
X012301Y014739D01*
X012272Y014713D01*
X012246Y014684D01*
X012222Y014652D01*
X012202Y014619D01*
X012185Y014583D01*
X012172Y014546D01*
X012163Y014508D01*
X012157Y014469D01*
X012155Y014430D01*
X011405Y014430D01*
X011405Y016430D01*
X011405Y014430D02*
X013705Y014430D01*
X013705Y012430D01*
X012955Y012430D01*
X012953Y012469D01*
X012947Y012508D01*
X012938Y012546D01*
X012925Y012583D01*
X012908Y012619D01*
X012888Y012652D01*
X012864Y012684D01*
X012838Y012713D01*
X012809Y012739D01*
X012777Y012763D01*
X012744Y012783D01*
X012708Y012800D01*
X012671Y012813D01*
X012633Y012822D01*
X012594Y012828D01*
X012555Y012830D01*
X012516Y012828D01*
X012477Y012822D01*
X012439Y012813D01*
X012402Y012800D01*
X012366Y012783D01*
X012333Y012763D01*
X012301Y012739D01*
X012272Y012713D01*
X012246Y012684D01*
X012222Y012652D01*
X012202Y012619D01*
X012185Y012583D01*
X012172Y012546D01*
X012163Y012508D01*
X012157Y012469D01*
X012155Y012430D01*
X011405Y012430D01*
X011405Y014430D01*
X011405Y012430D02*
X013705Y012430D01*
X013705Y010430D01*
X012955Y010430D01*
X012953Y010469D01*
X012947Y010508D01*
X012938Y010546D01*
X012925Y010583D01*
X012908Y010619D01*
X012888Y010652D01*
X012864Y010684D01*
X012838Y010713D01*
X012809Y010739D01*
X012777Y010763D01*
X012744Y010783D01*
X012708Y010800D01*
X012671Y010813D01*
X012633Y010822D01*
X012594Y010828D01*
X012555Y010830D01*
X012516Y010828D01*
X012477Y010822D01*
X012439Y010813D01*
X012402Y010800D01*
X012366Y010783D01*
X012333Y010763D01*
X012301Y010739D01*
X012272Y010713D01*
X012246Y010684D01*
X012222Y010652D01*
X012202Y010619D01*
X012185Y010583D01*
X012172Y010546D01*
X012163Y010508D01*
X012157Y010469D01*
X012155Y010430D01*
X011405Y010430D01*
X011405Y012430D01*
X011405Y010430D02*
X013705Y010430D01*
X013705Y008430D01*
X012955Y008430D01*
X012953Y008469D01*
X012947Y008508D01*
X012938Y008546D01*
X012925Y008583D01*
X012908Y008619D01*
X012888Y008652D01*
X012864Y008684D01*
X012838Y008713D01*
X012809Y008739D01*
X012777Y008763D01*
X012744Y008783D01*
X012708Y008800D01*
X012671Y008813D01*
X012633Y008822D01*
X012594Y008828D01*
X012555Y008830D01*
X012516Y008828D01*
X012477Y008822D01*
X012439Y008813D01*
X012402Y008800D01*
X012366Y008783D01*
X012333Y008763D01*
X012301Y008739D01*
X012272Y008713D01*
X012246Y008684D01*
X012222Y008652D01*
X012202Y008619D01*
X012185Y008583D01*
X012172Y008546D01*
X012163Y008508D01*
X012157Y008469D01*
X012155Y008430D01*
X011405Y008430D01*
X011405Y010430D01*
X011405Y008430D02*
X013705Y008430D01*
X013705Y006430D01*
X012955Y006430D01*
X012953Y006469D01*
X012947Y006508D01*
X012938Y006546D01*
X012925Y006583D01*
X012908Y006619D01*
X012888Y006652D01*
X012864Y006684D01*
X012838Y006713D01*
X012809Y006739D01*
X012777Y006763D01*
X012744Y006783D01*
X012708Y006800D01*
X012671Y006813D01*
X012633Y006822D01*
X012594Y006828D01*
X012555Y006830D01*
X012516Y006828D01*
X012477Y006822D01*
X012439Y006813D01*
X012402Y006800D01*
X012366Y006783D01*
X012333Y006763D01*
X012301Y006739D01*
X012272Y006713D01*
X012246Y006684D01*
X012222Y006652D01*
X012202Y006619D01*
X012185Y006583D01*
X012172Y006546D01*
X012163Y006508D01*
X012157Y006469D01*
X012155Y006430D01*
X011405Y006430D01*
X011405Y008430D01*
X011405Y006430D02*
X013705Y006430D01*
X013705Y004430D01*
X012955Y004430D01*
X012953Y004469D01*
X012947Y004508D01*
X012938Y004546D01*
X012925Y004583D01*
X012908Y004619D01*
X012888Y004652D01*
X012864Y004684D01*
X012838Y004713D01*
X012809Y004739D01*
X012777Y004763D01*
X012744Y004783D01*
X012708Y004800D01*
X012671Y004813D01*
X012633Y004822D01*
X012594Y004828D01*
X012555Y004830D01*
X012516Y004828D01*
X012477Y004822D01*
X012439Y004813D01*
X012402Y004800D01*
X012366Y004783D01*
X012333Y004763D01*
X012301Y004739D01*
X012272Y004713D01*
X012246Y004684D01*
X012222Y004652D01*
X012202Y004619D01*
X012185Y004583D01*
X012172Y004546D01*
X012163Y004508D01*
X012157Y004469D01*
X012155Y004430D01*
X011405Y004430D01*
X011405Y006430D01*
X009455Y004380D02*
X009305Y004380D01*
X009255Y004330D01*
X007355Y004330D01*
X007305Y004380D01*
X007155Y004380D01*
X007138Y004378D01*
X007121Y004374D01*
X007105Y004367D01*
X007091Y004357D01*
X007078Y004344D01*
X007068Y004330D01*
X007061Y004314D01*
X007057Y004297D01*
X007055Y004280D01*
X007055Y003580D01*
X007057Y003563D01*
X007061Y003546D01*
X007068Y003530D01*
X007078Y003516D01*
X007091Y003503D01*
X007105Y003493D01*
X007121Y003486D01*
X007138Y003482D01*
X007155Y003480D01*
X007305Y003480D01*
X007355Y003530D01*
X009255Y003530D01*
X009305Y003480D01*
X009455Y003480D01*
X009472Y003482D01*
X009489Y003486D01*
X009505Y003493D01*
X009519Y003503D01*
X009532Y003516D01*
X009542Y003530D01*
X009549Y003546D01*
X009553Y003563D01*
X009555Y003580D01*
X009555Y004280D01*
X009553Y004297D01*
X009549Y004314D01*
X009542Y004330D01*
X009532Y004344D01*
X009519Y004357D01*
X009505Y004367D01*
X009489Y004374D01*
X009472Y004378D01*
X009455Y004380D01*
X011055Y003280D02*
X011055Y002580D01*
X011057Y002563D01*
X011061Y002546D01*
X011068Y002530D01*
X011078Y002516D01*
X011091Y002503D01*
X011105Y002493D01*
X011121Y002486D01*
X011138Y002482D01*
X011155Y002480D01*
X011305Y002480D01*
X011355Y002530D01*
X013255Y002530D01*
X013305Y002480D01*
X013455Y002480D01*
X013472Y002482D01*
X013489Y002486D01*
X013505Y002493D01*
X013519Y002503D01*
X013532Y002516D01*
X013542Y002530D01*
X013549Y002546D01*
X013553Y002563D01*
X013555Y002580D01*
X013555Y003280D01*
X013553Y003297D01*
X013549Y003314D01*
X013542Y003330D01*
X013532Y003344D01*
X013519Y003357D01*
X013505Y003367D01*
X013489Y003374D01*
X013472Y003378D01*
X013455Y003380D01*
X013305Y003380D01*
X013255Y003330D01*
X011355Y003330D01*
X011305Y003380D01*
X011155Y003380D01*
X011138Y003378D01*
X011121Y003374D01*
X011105Y003367D01*
X011091Y003357D01*
X011078Y003344D01*
X011068Y003330D01*
X011061Y003314D01*
X011057Y003297D01*
X011055Y003280D01*
X011155Y002380D02*
X011305Y002380D01*
X011355Y002330D01*
X013255Y002330D01*
X013305Y002380D01*
X013455Y002380D01*
X013472Y002378D01*
X013489Y002374D01*
X013505Y002367D01*
X013519Y002357D01*
X013532Y002344D01*
X013542Y002330D01*
X013549Y002314D01*
X013553Y002297D01*
X013555Y002280D01*
X013555Y001580D01*
X013553Y001563D01*
X013549Y001546D01*
X013542Y001530D01*
X013532Y001516D01*
X013519Y001503D01*
X013505Y001493D01*
X013489Y001486D01*
X013472Y001482D01*
X013455Y001480D01*
X013305Y001480D01*
X013255Y001530D01*
X011355Y001530D01*
X011305Y001480D01*
X011155Y001480D01*
X011138Y001482D01*
X011121Y001486D01*
X011105Y001493D01*
X011091Y001503D01*
X011078Y001516D01*
X011068Y001530D01*
X011061Y001546D01*
X011057Y001563D01*
X011055Y001580D01*
X011055Y002280D01*
X011057Y002297D01*
X011061Y002314D01*
X011068Y002330D01*
X011078Y002344D01*
X011091Y002357D01*
X011105Y002367D01*
X011121Y002374D01*
X011138Y002378D01*
X011155Y002380D01*
X007105Y006180D02*
X006805Y006180D01*
X007685Y005646D02*
X007654Y005584D01*
X007619Y005525D01*
X007582Y005467D01*
X007541Y005412D01*
X007497Y005358D01*
X007450Y005308D01*
X007401Y005260D01*
X007349Y005215D01*
X007295Y005172D01*
X007238Y005133D01*
X007180Y005097D01*
X007119Y005064D01*
X007057Y005035D01*
X006993Y005009D01*
X006928Y004987D01*
X006862Y004968D01*
X006794Y004953D01*
X006727Y004942D01*
X006658Y004934D01*
X006589Y004930D01*
X006521Y004930D01*
X006452Y004934D01*
X006383Y004942D01*
X006316Y004953D01*
X006248Y004968D01*
X006182Y004987D01*
X006117Y005009D01*
X006053Y005035D01*
X005991Y005064D01*
X005930Y005097D01*
X005872Y005133D01*
X005815Y005172D01*
X005761Y005215D01*
X005709Y005260D01*
X005660Y005308D01*
X005613Y005358D01*
X005569Y005412D01*
X005528Y005467D01*
X005491Y005525D01*
X005456Y005584D01*
X005425Y005646D01*
X006005Y006180D02*
X006255Y006180D01*
X006255Y006580D01*
X006455Y006580D01*
X006455Y005780D01*
X006255Y005780D01*
X006255Y006180D01*
X006055Y006330D02*
X006055Y006530D01*
X005955Y006430D02*
X006155Y006430D01*
X005425Y006714D02*
X005456Y006776D01*
X005491Y006835D01*
X005528Y006893D01*
X005569Y006948D01*
X005613Y007002D01*
X005660Y007052D01*
X005709Y007100D01*
X005761Y007145D01*
X005815Y007188D01*
X005872Y007227D01*
X005930Y007263D01*
X005991Y007296D01*
X006053Y007325D01*
X006117Y007351D01*
X006182Y007373D01*
X006248Y007392D01*
X006316Y007407D01*
X006383Y007418D01*
X006452Y007426D01*
X006521Y007430D01*
X006589Y007430D01*
X006658Y007426D01*
X006727Y007418D01*
X006794Y007407D01*
X006862Y007392D01*
X006928Y007373D01*
X006993Y007351D01*
X007057Y007325D01*
X007119Y007296D01*
X007180Y007263D01*
X007238Y007227D01*
X007295Y007188D01*
X007349Y007145D01*
X007401Y007100D01*
X007450Y007052D01*
X007497Y007002D01*
X007541Y006948D01*
X007582Y006893D01*
X007619Y006835D01*
X007654Y006776D01*
X007685Y006714D01*
X006705Y008480D02*
X006555Y008480D01*
X006505Y008530D01*
X004605Y008530D01*
X004555Y008480D01*
X004405Y008480D01*
X004388Y008482D01*
X004371Y008486D01*
X004355Y008493D01*
X004341Y008503D01*
X004328Y008516D01*
X004318Y008530D01*
X004311Y008546D01*
X004307Y008563D01*
X004305Y008580D01*
X004305Y009280D01*
X004307Y009297D01*
X004311Y009314D01*
X004318Y009330D01*
X004328Y009344D01*
X004341Y009357D01*
X004355Y009367D01*
X004371Y009374D01*
X004388Y009378D01*
X004405Y009380D01*
X004555Y009380D01*
X004605Y009330D01*
X006505Y009330D01*
X006555Y009380D01*
X006705Y009380D01*
X006722Y009378D01*
X006739Y009374D01*
X006755Y009367D01*
X006769Y009357D01*
X006782Y009344D01*
X006792Y009330D01*
X006799Y009314D01*
X006803Y009297D01*
X006805Y009280D01*
X006805Y008580D01*
X006803Y008563D01*
X006799Y008546D01*
X006792Y008530D01*
X006782Y008516D01*
X006769Y008503D01*
X006755Y008493D01*
X006739Y008486D01*
X006722Y008482D01*
X006705Y008480D01*
X007205Y010730D02*
X005905Y010730D01*
X005879Y010732D01*
X005853Y010737D01*
X005828Y010745D01*
X005805Y010757D01*
X005783Y010771D01*
X005764Y010789D01*
X005746Y010808D01*
X005732Y010830D01*
X005720Y010853D01*
X005712Y010878D01*
X005707Y010904D01*
X005705Y010930D01*
X005705Y011430D01*
X005707Y011456D01*
X005712Y011482D01*
X005720Y011507D01*
X005732Y011530D01*
X005746Y011552D01*
X005764Y011571D01*
X005783Y011589D01*
X005805Y011603D01*
X005828Y011615D01*
X005853Y011623D01*
X005879Y011628D01*
X005905Y011630D01*
X007205Y011630D01*
X007231Y011628D01*
X007257Y011623D01*
X007282Y011615D01*
X007305Y011603D01*
X007327Y011589D01*
X007346Y011571D01*
X007364Y011552D01*
X007378Y011530D01*
X007390Y011507D01*
X007398Y011482D01*
X007403Y011456D01*
X007405Y011430D01*
X007405Y010930D01*
X007403Y010904D01*
X007398Y010878D01*
X007390Y010853D01*
X007378Y010830D01*
X007364Y010808D01*
X007346Y010789D01*
X007327Y010771D01*
X007305Y010757D01*
X007282Y010745D01*
X007257Y010737D01*
X007231Y010732D01*
X007205Y010730D01*
X004555Y011630D02*
X004555Y009730D01*
X004305Y009480D01*
X000355Y009480D01*
X000355Y010430D01*
X000355Y011480D01*
X000305Y011830D02*
X004355Y011830D01*
X004555Y011630D01*
X002655Y010670D02*
X002657Y010720D01*
X002663Y010770D01*
X002673Y010820D01*
X002686Y010868D01*
X002703Y010916D01*
X002724Y010962D01*
X002748Y011006D01*
X002776Y011048D01*
X002807Y011088D01*
X002841Y011125D01*
X002878Y011160D01*
X002917Y011191D01*
X002958Y011220D01*
X003002Y011245D01*
X003048Y011267D01*
X003095Y011285D01*
X003143Y011299D01*
X003192Y011310D01*
X003242Y011317D01*
X003292Y011320D01*
X003343Y011319D01*
X003393Y011314D01*
X003443Y011305D01*
X003491Y011293D01*
X003539Y011276D01*
X003585Y011256D01*
X003630Y011233D01*
X003673Y011206D01*
X003713Y011176D01*
X003751Y011143D01*
X003786Y011107D01*
X003819Y011068D01*
X003848Y011027D01*
X003874Y010984D01*
X003897Y010939D01*
X003916Y010892D01*
X003931Y010844D01*
X003943Y010795D01*
X003951Y010745D01*
X003955Y010695D01*
X003955Y010645D01*
X003951Y010595D01*
X003943Y010545D01*
X003931Y010496D01*
X003916Y010448D01*
X003897Y010401D01*
X003874Y010356D01*
X003848Y010313D01*
X003819Y010272D01*
X003786Y010233D01*
X003751Y010197D01*
X003713Y010164D01*
X003673Y010134D01*
X003630Y010107D01*
X003585Y010084D01*
X003539Y010064D01*
X003491Y010047D01*
X003443Y010035D01*
X003393Y010026D01*
X003343Y010021D01*
X003292Y010020D01*
X003242Y010023D01*
X003192Y010030D01*
X003143Y010041D01*
X003095Y010055D01*
X003048Y010073D01*
X003002Y010095D01*
X002958Y010120D01*
X002917Y010149D01*
X002878Y010180D01*
X002841Y010215D01*
X002807Y010252D01*
X002776Y010292D01*
X002748Y010334D01*
X002724Y010378D01*
X002703Y010424D01*
X002686Y010472D01*
X002673Y010520D01*
X002663Y010570D01*
X002657Y010620D01*
X002655Y010670D01*
X002555Y008930D02*
X002055Y008930D01*
X001805Y008680D01*
X001805Y008180D01*
X002055Y007930D01*
X002555Y007930D01*
X002805Y008180D01*
X002805Y008680D01*
X002555Y008930D01*
X004655Y007180D02*
X004653Y007135D01*
X004648Y007089D01*
X004640Y007045D01*
X004628Y007001D01*
X004612Y006958D01*
X004594Y006916D01*
X004572Y006876D01*
X004548Y006838D01*
X004521Y006802D01*
X004491Y006767D01*
X004458Y006736D01*
X004423Y006706D01*
X003455Y007180D02*
X003457Y007227D01*
X003463Y007275D01*
X003472Y007321D01*
X003485Y007367D01*
X003501Y007411D01*
X003522Y007455D01*
X003545Y007496D01*
X003571Y007535D01*
X003601Y007572D01*
X003634Y007607D01*
X003669Y007639D01*
X003706Y007668D01*
X003455Y007180D02*
X003457Y007134D01*
X003462Y007088D01*
X003471Y007042D01*
X003483Y006997D01*
X003499Y006954D01*
X003518Y006912D01*
X003541Y006871D01*
X003566Y006832D01*
X003594Y006796D01*
X003625Y006761D01*
X003659Y006729D01*
X003695Y006700D01*
X004655Y007180D02*
X004653Y007225D01*
X004648Y007271D01*
X004640Y007315D01*
X004628Y007359D01*
X004612Y007402D01*
X004594Y007444D01*
X004572Y007484D01*
X004548Y007522D01*
X004521Y007558D01*
X004491Y007593D01*
X004458Y007624D01*
X004423Y007654D01*
X002805Y006180D02*
X002555Y006430D01*
X002055Y006430D01*
X001805Y006180D01*
X001805Y005680D01*
X002055Y005430D01*
X002555Y005430D01*
X002805Y005680D01*
X002805Y006180D01*
X001711Y002936D02*
X001713Y003009D01*
X001719Y003082D01*
X001729Y003154D01*
X001743Y003226D01*
X001760Y003297D01*
X001782Y003367D01*
X001807Y003436D01*
X001836Y003503D01*
X001868Y003568D01*
X001904Y003632D01*
X001944Y003694D01*
X001986Y003753D01*
X002032Y003810D01*
X002081Y003864D01*
X002133Y003916D01*
X002187Y003965D01*
X002244Y004011D01*
X002303Y004053D01*
X002365Y004093D01*
X002429Y004129D01*
X002494Y004161D01*
X002561Y004190D01*
X002630Y004215D01*
X002700Y004237D01*
X002771Y004254D01*
X002843Y004268D01*
X002915Y004278D01*
X002988Y004284D01*
X003061Y004286D01*
X003134Y004284D01*
X003207Y004278D01*
X003279Y004268D01*
X003351Y004254D01*
X003422Y004237D01*
X003492Y004215D01*
X003561Y004190D01*
X003628Y004161D01*
X003693Y004129D01*
X003757Y004093D01*
X003819Y004053D01*
X003878Y004011D01*
X003935Y003965D01*
X003989Y003916D01*
X004041Y003864D01*
X004090Y003810D01*
X004136Y003753D01*
X004178Y003694D01*
X004218Y003632D01*
X004254Y003568D01*
X004286Y003503D01*
X004315Y003436D01*
X004340Y003367D01*
X004362Y003297D01*
X004379Y003226D01*
X004393Y003154D01*
X004403Y003082D01*
X004409Y003009D01*
X004411Y002936D01*
X004409Y002863D01*
X004403Y002790D01*
X004393Y002718D01*
X004379Y002646D01*
X004362Y002575D01*
X004340Y002505D01*
X004315Y002436D01*
X004286Y002369D01*
X004254Y002304D01*
X004218Y002240D01*
X004178Y002178D01*
X004136Y002119D01*
X004090Y002062D01*
X004041Y002008D01*
X003989Y001956D01*
X003935Y001907D01*
X003878Y001861D01*
X003819Y001819D01*
X003757Y001779D01*
X003693Y001743D01*
X003628Y001711D01*
X003561Y001682D01*
X003492Y001657D01*
X003422Y001635D01*
X003351Y001618D01*
X003279Y001604D01*
X003207Y001594D01*
X003134Y001588D01*
X003061Y001586D01*
X002988Y001588D01*
X002915Y001594D01*
X002843Y001604D01*
X002771Y001618D01*
X002700Y001635D01*
X002630Y001657D01*
X002561Y001682D01*
X002494Y001711D01*
X002429Y001743D01*
X002365Y001779D01*
X002303Y001819D01*
X002244Y001861D01*
X002187Y001907D01*
X002133Y001956D01*
X002081Y002008D01*
X002032Y002062D01*
X001986Y002119D01*
X001944Y002178D01*
X001904Y002240D01*
X001868Y002304D01*
X001836Y002369D01*
X001807Y002436D01*
X001782Y002505D01*
X001760Y002575D01*
X001743Y002646D01*
X001729Y002718D01*
X001719Y002790D01*
X001713Y002863D01*
X001711Y002936D01*
X006673Y001706D02*
X006708Y001736D01*
X006741Y001767D01*
X006771Y001802D01*
X006798Y001838D01*
X006822Y001876D01*
X006844Y001916D01*
X006862Y001958D01*
X006878Y002001D01*
X006890Y002045D01*
X006898Y002089D01*
X006903Y002135D01*
X006905Y002180D01*
X005945Y001700D02*
X005909Y001729D01*
X005875Y001761D01*
X005844Y001796D01*
X005816Y001832D01*
X005791Y001871D01*
X005768Y001912D01*
X005749Y001954D01*
X005733Y001997D01*
X005721Y002042D01*
X005712Y002088D01*
X005707Y002134D01*
X005705Y002180D01*
X006673Y002654D02*
X006708Y002624D01*
X006741Y002593D01*
X006771Y002558D01*
X006798Y002522D01*
X006822Y002484D01*
X006844Y002444D01*
X006862Y002402D01*
X006878Y002359D01*
X006890Y002315D01*
X006898Y002271D01*
X006903Y002225D01*
X006905Y002180D01*
X005956Y002668D02*
X005919Y002639D01*
X005884Y002607D01*
X005851Y002572D01*
X005821Y002535D01*
X005795Y002496D01*
X005772Y002455D01*
X005751Y002411D01*
X005735Y002367D01*
X005722Y002321D01*
X005713Y002275D01*
X005707Y002227D01*
X005705Y002180D01*
X000355Y009480D02*
X000355Y010430D01*
X000305Y011830D02*
X000305Y011930D01*
X005005Y014730D02*
X005205Y014730D01*
X005305Y014730D01*
X015655Y013980D02*
X015655Y005380D01*
X015705Y005330D02*
X015705Y006030D01*
X016405Y006030D01*
X016405Y005330D01*
X015705Y005330D01*
X015655Y005380D02*
X015657Y005354D01*
X015662Y005328D01*
X015670Y005303D01*
X015682Y005280D01*
X015696Y005258D01*
X015714Y005239D01*
X015733Y005221D01*
X015755Y005207D01*
X015778Y005195D01*
X015803Y005187D01*
X015829Y005182D01*
X015855Y005180D01*
X016255Y005180D01*
X016281Y005182D01*
X016307Y005187D01*
X016332Y005195D01*
X016355Y005207D01*
X016377Y005221D01*
X016396Y005239D01*
X016414Y005258D01*
X016428Y005280D01*
X016440Y005303D01*
X016448Y005328D01*
X016453Y005354D01*
X016455Y005380D01*
X016455Y013980D01*
X016453Y014006D01*
X016448Y014032D01*
X016440Y014057D01*
X016428Y014080D01*
X016414Y014102D01*
X016396Y014121D01*
X016377Y014139D01*
X016355Y014153D01*
X016332Y014165D01*
X016307Y014173D01*
X016281Y014178D01*
X016255Y014180D01*
X015855Y014180D01*
X015829Y014178D01*
X015803Y014173D01*
X015778Y014165D01*
X015755Y014153D01*
X015733Y014139D01*
X015714Y014121D01*
X015696Y014102D01*
X015682Y014080D01*
X015670Y014057D01*
X015662Y014032D01*
X015657Y014006D01*
X015655Y013980D01*
X017305Y013930D02*
X017305Y006180D01*
X021305Y006180D01*
X020555Y005780D02*
X020555Y005080D01*
X020553Y005063D01*
X020549Y005046D01*
X020542Y005030D01*
X020532Y005016D01*
X020519Y005003D01*
X020505Y004993D01*
X020489Y004986D01*
X020472Y004982D01*
X020455Y004980D01*
X020305Y004980D01*
X020255Y005030D01*
X018355Y005030D01*
X018305Y004980D01*
X018155Y004980D01*
X018138Y004982D01*
X018121Y004986D01*
X018105Y004993D01*
X018091Y005003D01*
X018078Y005016D01*
X018068Y005030D01*
X018061Y005046D01*
X018057Y005063D01*
X018055Y005080D01*
X018055Y005780D01*
X018057Y005797D01*
X018061Y005814D01*
X018068Y005830D01*
X018078Y005844D01*
X018091Y005857D01*
X018105Y005867D01*
X018121Y005874D01*
X018138Y005878D01*
X018155Y005880D01*
X018305Y005880D01*
X018355Y005830D01*
X020255Y005830D01*
X020305Y005880D01*
X020455Y005880D01*
X020472Y005878D01*
X020489Y005874D01*
X020505Y005867D01*
X020519Y005857D01*
X020532Y005844D01*
X020542Y005830D01*
X020549Y005814D01*
X020553Y005797D01*
X020555Y005780D01*
X020305Y006280D02*
X020305Y007080D01*
X018305Y007080D01*
X018305Y006280D01*
X020305Y006280D01*
X020305Y007280D02*
X020305Y008080D01*
X018305Y008080D01*
X018305Y007280D01*
X020305Y007280D01*
X020305Y008280D02*
X020305Y009080D01*
X018305Y009080D01*
X018305Y008280D01*
X020305Y008280D01*
X020305Y009280D02*
X020305Y010080D01*
X018305Y010080D01*
X018305Y009280D01*
X020305Y009280D01*
X020305Y010280D02*
X020305Y011080D01*
X018305Y011080D01*
X018305Y010280D01*
X020305Y010280D01*
X020305Y011280D02*
X018305Y011280D01*
X018305Y012080D01*
X020305Y012080D01*
X020305Y011280D01*
X020305Y012280D02*
X018305Y012280D01*
X018305Y013080D01*
X020305Y013080D01*
X020305Y012280D01*
X020305Y013280D02*
X018305Y013280D01*
X018305Y014080D01*
X020305Y014080D01*
X020305Y013280D01*
X021305Y014180D02*
X017555Y014180D01*
X017305Y013930D01*
X015455Y015930D02*
X015457Y015996D01*
X015463Y016061D01*
X015473Y016126D01*
X015486Y016191D01*
X015504Y016254D01*
X015525Y016317D01*
X015550Y016377D01*
X015579Y016437D01*
X015611Y016494D01*
X015646Y016550D01*
X015685Y016603D01*
X015727Y016654D01*
X015771Y016702D01*
X015819Y016747D01*
X015869Y016790D01*
X015922Y016829D01*
X015977Y016866D01*
X016034Y016899D01*
X016093Y016928D01*
X016153Y016954D01*
X016215Y016976D01*
X016278Y016995D01*
X016342Y017009D01*
X016407Y017020D01*
X016473Y017027D01*
X016539Y017030D01*
X016604Y017029D01*
X016670Y017024D01*
X016735Y017015D01*
X016800Y017002D01*
X016863Y016986D01*
X016926Y016966D01*
X016987Y016941D01*
X017047Y016914D01*
X017105Y016883D01*
X017161Y016848D01*
X017215Y016810D01*
X017266Y016769D01*
X017315Y016725D01*
X017361Y016678D01*
X017405Y016629D01*
X017445Y016577D01*
X017482Y016522D01*
X017516Y016466D01*
X017546Y016407D01*
X017573Y016347D01*
X017596Y016286D01*
X017615Y016223D01*
X017631Y016159D01*
X017643Y016094D01*
X017651Y016029D01*
X017655Y015963D01*
X017655Y015897D01*
X017651Y015831D01*
X017643Y015766D01*
X017631Y015701D01*
X017615Y015637D01*
X017596Y015574D01*
X017573Y015513D01*
X017546Y015453D01*
X017516Y015394D01*
X017482Y015338D01*
X017445Y015283D01*
X017405Y015231D01*
X017361Y015182D01*
X017315Y015135D01*
X017266Y015091D01*
X017215Y015050D01*
X017161Y015012D01*
X017105Y014977D01*
X017047Y014946D01*
X016987Y014919D01*
X016926Y014894D01*
X016863Y014874D01*
X016800Y014858D01*
X016735Y014845D01*
X016670Y014836D01*
X016604Y014831D01*
X016539Y014830D01*
X016473Y014833D01*
X016407Y014840D01*
X016342Y014851D01*
X016278Y014865D01*
X016215Y014884D01*
X016153Y014906D01*
X016093Y014932D01*
X016034Y014961D01*
X015977Y014994D01*
X015922Y015031D01*
X015869Y015070D01*
X015819Y015113D01*
X015771Y015158D01*
X015727Y015206D01*
X015685Y015257D01*
X015646Y015310D01*
X015611Y015366D01*
X015579Y015423D01*
X015550Y015483D01*
X015525Y015543D01*
X015504Y015606D01*
X015486Y015669D01*
X015473Y015734D01*
X015463Y015799D01*
X015457Y015864D01*
X015455Y015930D01*
X015905Y016280D02*
X015905Y016430D01*
X015905Y016580D01*
X015905Y016430D02*
X016055Y016430D01*
X015905Y016430D02*
X015755Y016430D01*
X018155Y017180D02*
X020455Y017180D01*
X020455Y021180D01*
X019705Y021180D01*
X019955Y021480D02*
X018655Y021480D01*
X018629Y021482D01*
X018603Y021487D01*
X018578Y021495D01*
X018555Y021507D01*
X018533Y021521D01*
X018514Y021539D01*
X018496Y021558D01*
X018482Y021580D01*
X018470Y021603D01*
X018462Y021628D01*
X018457Y021654D01*
X018455Y021680D01*
X018455Y022180D01*
X018457Y022206D01*
X018462Y022232D01*
X018470Y022257D01*
X018482Y022280D01*
X018496Y022302D01*
X018514Y022321D01*
X018533Y022339D01*
X018555Y022353D01*
X018578Y022365D01*
X018603Y022373D01*
X018629Y022378D01*
X018655Y022380D01*
X019955Y022380D01*
X019981Y022378D01*
X020007Y022373D01*
X020032Y022365D01*
X020055Y022353D01*
X020077Y022339D01*
X020096Y022321D01*
X020114Y022302D01*
X020128Y022280D01*
X020140Y022257D01*
X020148Y022232D01*
X020153Y022206D01*
X020155Y022180D01*
X020155Y021680D01*
X020153Y021654D01*
X020148Y021628D01*
X020140Y021603D01*
X020128Y021580D01*
X020114Y021558D01*
X020096Y021539D01*
X020077Y021521D01*
X020055Y021507D01*
X020032Y021495D01*
X020007Y021487D01*
X019981Y021482D01*
X019955Y021480D01*
X019705Y021180D02*
X019703Y021141D01*
X019697Y021102D01*
X019688Y021064D01*
X019675Y021027D01*
X019658Y020991D01*
X019638Y020958D01*
X019614Y020926D01*
X019588Y020897D01*
X019559Y020871D01*
X019527Y020847D01*
X019494Y020827D01*
X019458Y020810D01*
X019421Y020797D01*
X019383Y020788D01*
X019344Y020782D01*
X019305Y020780D01*
X019266Y020782D01*
X019227Y020788D01*
X019189Y020797D01*
X019152Y020810D01*
X019116Y020827D01*
X019083Y020847D01*
X019051Y020871D01*
X019022Y020897D01*
X018996Y020926D01*
X018972Y020958D01*
X018952Y020991D01*
X018935Y021027D01*
X018922Y021064D01*
X018913Y021102D01*
X018907Y021141D01*
X018905Y021180D01*
X018155Y021180D01*
X018155Y017180D01*
X018655Y016880D02*
X019955Y016880D01*
X019981Y016878D01*
X020007Y016873D01*
X020032Y016865D01*
X020055Y016853D01*
X020077Y016839D01*
X020096Y016821D01*
X020114Y016802D01*
X020128Y016780D01*
X020140Y016757D01*
X020148Y016732D01*
X020153Y016706D01*
X020155Y016680D01*
X020155Y016180D01*
X020153Y016154D01*
X020148Y016128D01*
X020140Y016103D01*
X020128Y016080D01*
X020114Y016058D01*
X020096Y016039D01*
X020077Y016021D01*
X020055Y016007D01*
X020032Y015995D01*
X020007Y015987D01*
X019981Y015982D01*
X019955Y015980D01*
X018655Y015980D01*
X018629Y015982D01*
X018603Y015987D01*
X018578Y015995D01*
X018555Y016007D01*
X018533Y016021D01*
X018514Y016039D01*
X018496Y016058D01*
X018482Y016080D01*
X018470Y016103D01*
X018462Y016128D01*
X018457Y016154D01*
X018455Y016180D01*
X018455Y016680D01*
X018457Y016706D01*
X018462Y016732D01*
X018470Y016757D01*
X018482Y016780D01*
X018496Y016802D01*
X018514Y016821D01*
X018533Y016839D01*
X018555Y016853D01*
X018578Y016865D01*
X018603Y016873D01*
X018629Y016878D01*
X018655Y016880D01*
X023155Y017180D02*
X025455Y017180D01*
X025455Y021180D01*
X024705Y021180D01*
X024955Y021480D02*
X023655Y021480D01*
X023629Y021482D01*
X023603Y021487D01*
X023578Y021495D01*
X023555Y021507D01*
X023533Y021521D01*
X023514Y021539D01*
X023496Y021558D01*
X023482Y021580D01*
X023470Y021603D01*
X023462Y021628D01*
X023457Y021654D01*
X023455Y021680D01*
X023455Y022180D01*
X023457Y022206D01*
X023462Y022232D01*
X023470Y022257D01*
X023482Y022280D01*
X023496Y022302D01*
X023514Y022321D01*
X023533Y022339D01*
X023555Y022353D01*
X023578Y022365D01*
X023603Y022373D01*
X023629Y022378D01*
X023655Y022380D01*
X024955Y022380D01*
X024981Y022378D01*
X025007Y022373D01*
X025032Y022365D01*
X025055Y022353D01*
X025077Y022339D01*
X025096Y022321D01*
X025114Y022302D01*
X025128Y022280D01*
X025140Y022257D01*
X025148Y022232D01*
X025153Y022206D01*
X025155Y022180D01*
X025155Y021680D01*
X025153Y021654D01*
X025148Y021628D01*
X025140Y021603D01*
X025128Y021580D01*
X025114Y021558D01*
X025096Y021539D01*
X025077Y021521D01*
X025055Y021507D01*
X025032Y021495D01*
X025007Y021487D01*
X024981Y021482D01*
X024955Y021480D01*
X024705Y021180D02*
X024703Y021141D01*
X024697Y021102D01*
X024688Y021064D01*
X024675Y021027D01*
X024658Y020991D01*
X024638Y020958D01*
X024614Y020926D01*
X024588Y020897D01*
X024559Y020871D01*
X024527Y020847D01*
X024494Y020827D01*
X024458Y020810D01*
X024421Y020797D01*
X024383Y020788D01*
X024344Y020782D01*
X024305Y020780D01*
X024266Y020782D01*
X024227Y020788D01*
X024189Y020797D01*
X024152Y020810D01*
X024116Y020827D01*
X024083Y020847D01*
X024051Y020871D01*
X024022Y020897D01*
X023996Y020926D01*
X023972Y020958D01*
X023952Y020991D01*
X023935Y021027D01*
X023922Y021064D01*
X023913Y021102D01*
X023907Y021141D01*
X023905Y021180D01*
X023155Y021180D01*
X023155Y017180D01*
X023655Y016880D02*
X024955Y016880D01*
X024981Y016878D01*
X025007Y016873D01*
X025032Y016865D01*
X025055Y016853D01*
X025077Y016839D01*
X025096Y016821D01*
X025114Y016802D01*
X025128Y016780D01*
X025140Y016757D01*
X025148Y016732D01*
X025153Y016706D01*
X025155Y016680D01*
X025155Y016180D01*
X025153Y016154D01*
X025148Y016128D01*
X025140Y016103D01*
X025128Y016080D01*
X025114Y016058D01*
X025096Y016039D01*
X025077Y016021D01*
X025055Y016007D01*
X025032Y015995D01*
X025007Y015987D01*
X024981Y015982D01*
X024955Y015980D01*
X023655Y015980D01*
X023629Y015982D01*
X023603Y015987D01*
X023578Y015995D01*
X023555Y016007D01*
X023533Y016021D01*
X023514Y016039D01*
X023496Y016058D01*
X023482Y016080D01*
X023470Y016103D01*
X023462Y016128D01*
X023457Y016154D01*
X023455Y016180D01*
X023455Y016680D01*
X023457Y016706D01*
X023462Y016732D01*
X023470Y016757D01*
X023482Y016780D01*
X023496Y016802D01*
X023514Y016821D01*
X023533Y016839D01*
X023555Y016853D01*
X023578Y016865D01*
X023603Y016873D01*
X023629Y016878D01*
X023655Y016880D01*
X024555Y014580D02*
X024555Y013830D01*
X024255Y014080D02*
X024255Y012780D01*
X024253Y012754D01*
X024248Y012728D01*
X024240Y012703D01*
X024228Y012680D01*
X024214Y012658D01*
X024196Y012639D01*
X024177Y012621D01*
X024155Y012607D01*
X024132Y012595D01*
X024107Y012587D01*
X024081Y012582D01*
X024055Y012580D01*
X023555Y012580D01*
X023529Y012582D01*
X023503Y012587D01*
X023478Y012595D01*
X023455Y012607D01*
X023433Y012621D01*
X023414Y012639D01*
X023396Y012658D01*
X023382Y012680D01*
X023370Y012703D01*
X023362Y012728D01*
X023357Y012754D01*
X023355Y012780D01*
X023355Y014080D01*
X023357Y014106D01*
X023362Y014132D01*
X023370Y014157D01*
X023382Y014180D01*
X023396Y014202D01*
X023414Y014221D01*
X023433Y014239D01*
X023455Y014253D01*
X023478Y014265D01*
X023503Y014273D01*
X023529Y014278D01*
X023555Y014280D01*
X024055Y014280D01*
X024081Y014278D01*
X024107Y014273D01*
X024132Y014265D01*
X024155Y014253D01*
X024177Y014239D01*
X024196Y014221D01*
X024214Y014202D01*
X024228Y014180D01*
X024240Y014157D01*
X024248Y014132D01*
X024253Y014106D01*
X024255Y014080D01*
X024555Y014580D02*
X031555Y014580D01*
X031555Y012280D01*
X024555Y012280D01*
X024555Y013030D01*
X024594Y013032D01*
X024633Y013038D01*
X024671Y013047D01*
X024708Y013060D01*
X024744Y013077D01*
X024777Y013097D01*
X024809Y013121D01*
X024838Y013147D01*
X024864Y013176D01*
X024888Y013208D01*
X024908Y013241D01*
X024925Y013277D01*
X024938Y013314D01*
X024947Y013352D01*
X024953Y013391D01*
X024955Y013430D01*
X024953Y013469D01*
X024947Y013508D01*
X024938Y013546D01*
X024925Y013583D01*
X024908Y013619D01*
X024888Y013652D01*
X024864Y013684D01*
X024838Y013713D01*
X024809Y013739D01*
X024777Y013763D01*
X024744Y013783D01*
X024708Y013800D01*
X024671Y013813D01*
X024633Y013822D01*
X024594Y013828D01*
X024555Y013830D01*
X024805Y011030D02*
X025305Y011030D01*
X025331Y011028D01*
X025357Y011023D01*
X025382Y011015D01*
X025405Y011003D01*
X025427Y010989D01*
X025446Y010971D01*
X025464Y010952D01*
X025478Y010930D01*
X025490Y010907D01*
X025498Y010882D01*
X025503Y010856D01*
X025505Y010830D01*
X025505Y009530D01*
X025605Y009530D02*
X025605Y010830D01*
X025607Y010856D01*
X025612Y010882D01*
X025620Y010907D01*
X025632Y010930D01*
X025646Y010952D01*
X025664Y010971D01*
X025683Y010989D01*
X025705Y011003D01*
X025728Y011015D01*
X025753Y011023D01*
X025779Y011028D01*
X025805Y011030D01*
X026305Y011030D01*
X026331Y011028D01*
X026357Y011023D01*
X026382Y011015D01*
X026405Y011003D01*
X026427Y010989D01*
X026446Y010971D01*
X026464Y010952D01*
X026478Y010930D01*
X026490Y010907D01*
X026498Y010882D01*
X026503Y010856D01*
X026505Y010830D01*
X026505Y009530D01*
X026605Y009530D02*
X026605Y010830D01*
X026607Y010856D01*
X026612Y010882D01*
X026620Y010907D01*
X026632Y010930D01*
X026646Y010952D01*
X026664Y010971D01*
X026683Y010989D01*
X026705Y011003D01*
X026728Y011015D01*
X026753Y011023D01*
X026779Y011028D01*
X026805Y011030D01*
X027305Y011030D01*
X027331Y011028D01*
X027357Y011023D01*
X027382Y011015D01*
X027405Y011003D01*
X027427Y010989D01*
X027446Y010971D01*
X027464Y010952D01*
X027478Y010930D01*
X027490Y010907D01*
X027498Y010882D01*
X027503Y010856D01*
X027505Y010830D01*
X027505Y009530D01*
X027503Y009504D01*
X027498Y009478D01*
X027490Y009453D01*
X027478Y009430D01*
X027464Y009408D01*
X027446Y009389D01*
X027427Y009371D01*
X027405Y009357D01*
X027382Y009345D01*
X027357Y009337D01*
X027331Y009332D01*
X027305Y009330D01*
X026805Y009330D01*
X026779Y009332D01*
X026753Y009337D01*
X026728Y009345D01*
X026705Y009357D01*
X026683Y009371D01*
X026664Y009389D01*
X026646Y009408D01*
X026632Y009430D01*
X026620Y009453D01*
X026612Y009478D01*
X026607Y009504D01*
X026605Y009530D01*
X026505Y009530D02*
X026503Y009504D01*
X026498Y009478D01*
X026490Y009453D01*
X026478Y009430D01*
X026464Y009408D01*
X026446Y009389D01*
X026427Y009371D01*
X026405Y009357D01*
X026382Y009345D01*
X026357Y009337D01*
X026331Y009332D01*
X026305Y009330D01*
X025805Y009330D01*
X025779Y009332D01*
X025753Y009337D01*
X025728Y009345D01*
X025705Y009357D01*
X025683Y009371D01*
X025664Y009389D01*
X025646Y009408D01*
X025632Y009430D01*
X025620Y009453D01*
X025612Y009478D01*
X025607Y009504D01*
X025605Y009530D01*
X025505Y009530D02*
X025503Y009504D01*
X025498Y009478D01*
X025490Y009453D01*
X025478Y009430D01*
X025464Y009408D01*
X025446Y009389D01*
X025427Y009371D01*
X025405Y009357D01*
X025382Y009345D01*
X025357Y009337D01*
X025331Y009332D01*
X025305Y009330D01*
X024805Y009330D01*
X024779Y009332D01*
X024753Y009337D01*
X024728Y009345D01*
X024705Y009357D01*
X024683Y009371D01*
X024664Y009389D01*
X024646Y009408D01*
X024632Y009430D01*
X024620Y009453D01*
X024612Y009478D01*
X024607Y009504D01*
X024605Y009530D01*
X024605Y010830D01*
X024607Y010856D01*
X024612Y010882D01*
X024620Y010907D01*
X024632Y010930D01*
X024646Y010952D01*
X024664Y010971D01*
X024683Y010989D01*
X024705Y011003D01*
X024728Y011015D01*
X024753Y011023D01*
X024779Y011028D01*
X024805Y011030D01*
X022855Y008330D02*
X022255Y008330D01*
X022238Y008328D01*
X022221Y008324D01*
X022205Y008317D01*
X022191Y008307D01*
X022178Y008294D01*
X022168Y008280D01*
X022161Y008264D01*
X022157Y008247D01*
X022155Y008230D01*
X022155Y006630D01*
X022157Y006613D01*
X022161Y006596D01*
X022168Y006580D01*
X022178Y006566D01*
X022191Y006553D01*
X022205Y006543D01*
X022221Y006536D01*
X022238Y006532D01*
X022255Y006530D01*
X022855Y006530D01*
X022872Y006532D01*
X022889Y006536D01*
X022905Y006543D01*
X022919Y006553D01*
X022932Y006566D01*
X022942Y006580D01*
X022949Y006596D01*
X022953Y006613D01*
X022955Y006630D01*
X022955Y008230D01*
X022953Y008247D01*
X022949Y008264D01*
X022942Y008280D01*
X022932Y008294D01*
X022919Y008307D01*
X022905Y008317D01*
X022889Y008324D01*
X022872Y008328D01*
X022855Y008330D01*
X022555Y007680D02*
X022555Y007430D01*
X022305Y007430D01*
X022555Y007430D02*
X022305Y007030D01*
X022805Y007030D01*
X022555Y007430D01*
X022805Y007430D01*
X022555Y007430D02*
X022555Y006830D01*
X023355Y007330D02*
X023355Y006030D01*
X023357Y006004D01*
X023362Y005978D01*
X023370Y005953D01*
X023382Y005930D01*
X023396Y005908D01*
X023414Y005889D01*
X023433Y005871D01*
X023455Y005857D01*
X023478Y005845D01*
X023503Y005837D01*
X023529Y005832D01*
X023555Y005830D01*
X024055Y005830D01*
X024081Y005832D01*
X024107Y005837D01*
X024132Y005845D01*
X024155Y005857D01*
X024177Y005871D01*
X024196Y005889D01*
X024214Y005908D01*
X024228Y005930D01*
X024240Y005953D01*
X024248Y005978D01*
X024253Y006004D01*
X024255Y006030D01*
X024255Y007330D01*
X024253Y007356D01*
X024248Y007382D01*
X024240Y007407D01*
X024228Y007430D01*
X024214Y007452D01*
X024196Y007471D01*
X024177Y007489D01*
X024155Y007503D01*
X024132Y007515D01*
X024107Y007523D01*
X024081Y007528D01*
X024055Y007530D01*
X023555Y007530D01*
X023529Y007528D01*
X023503Y007523D01*
X023478Y007515D01*
X023455Y007503D01*
X023433Y007489D01*
X023414Y007471D01*
X023396Y007452D01*
X023382Y007430D01*
X023370Y007407D01*
X023362Y007382D01*
X023357Y007356D01*
X023355Y007330D01*
X024555Y007080D02*
X024555Y007830D01*
X031555Y007830D01*
X031555Y005530D01*
X024555Y005530D01*
X024555Y006280D01*
X024594Y006282D01*
X024633Y006288D01*
X024671Y006297D01*
X024708Y006310D01*
X024744Y006327D01*
X024777Y006347D01*
X024809Y006371D01*
X024838Y006397D01*
X024864Y006426D01*
X024888Y006458D01*
X024908Y006491D01*
X024925Y006527D01*
X024938Y006564D01*
X024947Y006602D01*
X024953Y006641D01*
X024955Y006680D01*
X024953Y006719D01*
X024947Y006758D01*
X024938Y006796D01*
X024925Y006833D01*
X024908Y006869D01*
X024888Y006902D01*
X024864Y006934D01*
X024838Y006963D01*
X024809Y006989D01*
X024777Y007013D01*
X024744Y007033D01*
X024708Y007050D01*
X024671Y007063D01*
X024633Y007072D01*
X024594Y007078D01*
X024555Y007080D01*
X025205Y003530D02*
X025455Y003530D01*
X025505Y003480D01*
X028105Y003480D01*
X028155Y003530D01*
X028405Y003530D01*
X028422Y003528D01*
X028439Y003524D01*
X028455Y003517D01*
X028469Y003507D01*
X028482Y003494D01*
X028492Y003480D01*
X028499Y003464D01*
X028503Y003447D01*
X028505Y003430D01*
X028505Y002430D02*
X028503Y002413D01*
X028499Y002396D01*
X028492Y002380D01*
X028482Y002366D01*
X028469Y002353D01*
X028455Y002343D01*
X028439Y002336D01*
X028422Y002332D01*
X028405Y002330D01*
X028155Y002330D01*
X028105Y002380D01*
X025505Y002380D01*
X025455Y002330D01*
X025205Y002330D01*
X025188Y002332D01*
X025171Y002336D01*
X025155Y002343D01*
X025141Y002353D01*
X025128Y002366D01*
X025118Y002380D01*
X025111Y002396D01*
X025107Y002413D01*
X025105Y002430D01*
X025205Y002030D02*
X025455Y002030D01*
X025505Y001980D01*
X028105Y001980D01*
X028155Y002030D01*
X028405Y002030D01*
X028422Y002028D01*
X028439Y002024D01*
X028455Y002017D01*
X028469Y002007D01*
X028482Y001994D01*
X028492Y001980D01*
X028499Y001964D01*
X028503Y001947D01*
X028505Y001930D01*
X028505Y000930D02*
X028503Y000913D01*
X028499Y000896D01*
X028492Y000880D01*
X028482Y000866D01*
X028469Y000853D01*
X028455Y000843D01*
X028439Y000836D01*
X028422Y000832D01*
X028405Y000830D01*
X028155Y000830D01*
X028105Y000880D01*
X025505Y000880D01*
X025455Y000830D01*
X025205Y000830D01*
X025188Y000832D01*
X025171Y000836D01*
X025155Y000843D01*
X025141Y000853D01*
X025128Y000866D01*
X025118Y000880D01*
X025111Y000896D01*
X025107Y000913D01*
X025105Y000930D01*
X025105Y001930D02*
X025107Y001947D01*
X025111Y001964D01*
X025118Y001980D01*
X025128Y001994D01*
X025141Y002007D01*
X025155Y002017D01*
X025171Y002024D01*
X025188Y002028D01*
X025205Y002030D01*
X025105Y003430D02*
X025107Y003447D01*
X025111Y003464D01*
X025118Y003480D01*
X025128Y003494D01*
X025141Y003507D01*
X025155Y003517D01*
X025171Y003524D01*
X025188Y003528D01*
X025205Y003530D01*
X022955Y003180D02*
X022955Y001180D01*
X022205Y001180D01*
X022203Y001219D01*
X022197Y001258D01*
X022188Y001296D01*
X022175Y001333D01*
X022158Y001369D01*
X022138Y001402D01*
X022114Y001434D01*
X022088Y001463D01*
X022059Y001489D01*
X022027Y001513D01*
X021994Y001533D01*
X021958Y001550D01*
X021921Y001563D01*
X021883Y001572D01*
X021844Y001578D01*
X021805Y001580D01*
X021766Y001578D01*
X021727Y001572D01*
X021689Y001563D01*
X021652Y001550D01*
X021616Y001533D01*
X021583Y001513D01*
X021551Y001489D01*
X021522Y001463D01*
X021496Y001434D01*
X021472Y001402D01*
X021452Y001369D01*
X021435Y001333D01*
X021422Y001296D01*
X021413Y001258D01*
X021407Y001219D01*
X021405Y001180D01*
X020655Y001180D01*
X020655Y003180D01*
X022955Y003180D01*
X017205Y002180D02*
X017207Y002246D01*
X017213Y002311D01*
X017223Y002376D01*
X017236Y002441D01*
X017254Y002504D01*
X017275Y002567D01*
X017300Y002627D01*
X017329Y002687D01*
X017361Y002744D01*
X017396Y002800D01*
X017435Y002853D01*
X017477Y002904D01*
X017521Y002952D01*
X017569Y002997D01*
X017619Y003040D01*
X017672Y003079D01*
X017727Y003116D01*
X017784Y003149D01*
X017843Y003178D01*
X017903Y003204D01*
X017965Y003226D01*
X018028Y003245D01*
X018092Y003259D01*
X018157Y003270D01*
X018223Y003277D01*
X018289Y003280D01*
X018354Y003279D01*
X018420Y003274D01*
X018485Y003265D01*
X018550Y003252D01*
X018613Y003236D01*
X018676Y003216D01*
X018737Y003191D01*
X018797Y003164D01*
X018855Y003133D01*
X018911Y003098D01*
X018965Y003060D01*
X019016Y003019D01*
X019065Y002975D01*
X019111Y002928D01*
X019155Y002879D01*
X019195Y002827D01*
X019232Y002772D01*
X019266Y002716D01*
X019296Y002657D01*
X019323Y002597D01*
X019346Y002536D01*
X019365Y002473D01*
X019381Y002409D01*
X019393Y002344D01*
X019401Y002279D01*
X019405Y002213D01*
X019405Y002147D01*
X019401Y002081D01*
X019393Y002016D01*
X019381Y001951D01*
X019365Y001887D01*
X019346Y001824D01*
X019323Y001763D01*
X019296Y001703D01*
X019266Y001644D01*
X019232Y001588D01*
X019195Y001533D01*
X019155Y001481D01*
X019111Y001432D01*
X019065Y001385D01*
X019016Y001341D01*
X018965Y001300D01*
X018911Y001262D01*
X018855Y001227D01*
X018797Y001196D01*
X018737Y001169D01*
X018676Y001144D01*
X018613Y001124D01*
X018550Y001108D01*
X018485Y001095D01*
X018420Y001086D01*
X018354Y001081D01*
X018289Y001080D01*
X018223Y001083D01*
X018157Y001090D01*
X018092Y001101D01*
X018028Y001115D01*
X017965Y001134D01*
X017903Y001156D01*
X017843Y001182D01*
X017784Y001211D01*
X017727Y001244D01*
X017672Y001281D01*
X017619Y001320D01*
X017569Y001363D01*
X017521Y001408D01*
X017477Y001456D01*
X017435Y001507D01*
X017396Y001560D01*
X017361Y001616D01*
X017329Y001673D01*
X017300Y001733D01*
X017275Y001793D01*
X017254Y001856D01*
X017236Y001919D01*
X017223Y001984D01*
X017213Y002049D01*
X017207Y002114D01*
X017205Y002180D01*
X017805Y001680D02*
X017805Y001530D01*
X017655Y001530D01*
X017805Y001530D02*
X017955Y001530D01*
X017805Y001530D02*
X017805Y001380D01*
X028605Y009530D02*
X028605Y010830D01*
X028607Y010856D01*
X028612Y010882D01*
X028620Y010907D01*
X028632Y010930D01*
X028646Y010952D01*
X028664Y010971D01*
X028683Y010989D01*
X028705Y011003D01*
X028728Y011015D01*
X028753Y011023D01*
X028779Y011028D01*
X028805Y011030D01*
X029305Y011030D01*
X029331Y011028D01*
X029357Y011023D01*
X029382Y011015D01*
X029405Y011003D01*
X029427Y010989D01*
X029446Y010971D01*
X029464Y010952D01*
X029478Y010930D01*
X029490Y010907D01*
X029498Y010882D01*
X029503Y010856D01*
X029505Y010830D01*
X029505Y009530D01*
X029605Y009530D02*
X029605Y010830D01*
X029607Y010856D01*
X029612Y010882D01*
X029620Y010907D01*
X029632Y010930D01*
X029646Y010952D01*
X029664Y010971D01*
X029683Y010989D01*
X029705Y011003D01*
X029728Y011015D01*
X029753Y011023D01*
X029779Y011028D01*
X029805Y011030D01*
X030305Y011030D01*
X030331Y011028D01*
X030357Y011023D01*
X030382Y011015D01*
X030405Y011003D01*
X030427Y010989D01*
X030446Y010971D01*
X030464Y010952D01*
X030478Y010930D01*
X030490Y010907D01*
X030498Y010882D01*
X030503Y010856D01*
X030505Y010830D01*
X030505Y009530D01*
X030605Y009530D02*
X030605Y010830D01*
X030607Y010856D01*
X030612Y010882D01*
X030620Y010907D01*
X030632Y010930D01*
X030646Y010952D01*
X030664Y010971D01*
X030683Y010989D01*
X030705Y011003D01*
X030728Y011015D01*
X030753Y011023D01*
X030779Y011028D01*
X030805Y011030D01*
X031305Y011030D01*
X031331Y011028D01*
X031357Y011023D01*
X031382Y011015D01*
X031405Y011003D01*
X031427Y010989D01*
X031446Y010971D01*
X031464Y010952D01*
X031478Y010930D01*
X031490Y010907D01*
X031498Y010882D01*
X031503Y010856D01*
X031505Y010830D01*
X031505Y009530D01*
X031503Y009504D01*
X031498Y009478D01*
X031490Y009453D01*
X031478Y009430D01*
X031464Y009408D01*
X031446Y009389D01*
X031427Y009371D01*
X031405Y009357D01*
X031382Y009345D01*
X031357Y009337D01*
X031331Y009332D01*
X031305Y009330D01*
X030805Y009330D01*
X030779Y009332D01*
X030753Y009337D01*
X030728Y009345D01*
X030705Y009357D01*
X030683Y009371D01*
X030664Y009389D01*
X030646Y009408D01*
X030632Y009430D01*
X030620Y009453D01*
X030612Y009478D01*
X030607Y009504D01*
X030605Y009530D01*
X030505Y009530D02*
X030503Y009504D01*
X030498Y009478D01*
X030490Y009453D01*
X030478Y009430D01*
X030464Y009408D01*
X030446Y009389D01*
X030427Y009371D01*
X030405Y009357D01*
X030382Y009345D01*
X030357Y009337D01*
X030331Y009332D01*
X030305Y009330D01*
X029805Y009330D01*
X029779Y009332D01*
X029753Y009337D01*
X029728Y009345D01*
X029705Y009357D01*
X029683Y009371D01*
X029664Y009389D01*
X029646Y009408D01*
X029632Y009430D01*
X029620Y009453D01*
X029612Y009478D01*
X029607Y009504D01*
X029605Y009530D01*
X029505Y009530D02*
X029503Y009504D01*
X029498Y009478D01*
X029490Y009453D01*
X029478Y009430D01*
X029464Y009408D01*
X029446Y009389D01*
X029427Y009371D01*
X029405Y009357D01*
X029382Y009345D01*
X029357Y009337D01*
X029331Y009332D01*
X029305Y009330D01*
X028805Y009330D01*
X028779Y009332D01*
X028753Y009337D01*
X028728Y009345D01*
X028705Y009357D01*
X028683Y009371D01*
X028664Y009389D01*
X028646Y009408D01*
X028632Y009430D01*
X028620Y009453D01*
X028612Y009478D01*
X028607Y009504D01*
X028605Y009530D01*
X031855Y007330D02*
X031855Y006030D01*
X031857Y006004D01*
X031862Y005978D01*
X031870Y005953D01*
X031882Y005930D01*
X031896Y005908D01*
X031914Y005889D01*
X031933Y005871D01*
X031955Y005857D01*
X031978Y005845D01*
X032003Y005837D01*
X032029Y005832D01*
X032055Y005830D01*
X032555Y005830D01*
X032581Y005832D01*
X032607Y005837D01*
X032632Y005845D01*
X032655Y005857D01*
X032677Y005871D01*
X032696Y005889D01*
X032714Y005908D01*
X032728Y005930D01*
X032740Y005953D01*
X032748Y005978D01*
X032753Y006004D01*
X032755Y006030D01*
X032755Y007330D01*
X032753Y007356D01*
X032748Y007382D01*
X032740Y007407D01*
X032728Y007430D01*
X032714Y007452D01*
X032696Y007471D01*
X032677Y007489D01*
X032655Y007503D01*
X032632Y007515D01*
X032607Y007523D01*
X032581Y007528D01*
X032555Y007530D01*
X032055Y007530D01*
X032029Y007528D01*
X032003Y007523D01*
X031978Y007515D01*
X031955Y007503D01*
X031933Y007489D01*
X031914Y007471D01*
X031896Y007452D01*
X031882Y007430D01*
X031870Y007407D01*
X031862Y007382D01*
X031857Y007356D01*
X031855Y007330D01*
X033455Y007180D02*
X033455Y006680D01*
X033555Y006680D01*
X033555Y006180D01*
X037055Y006180D01*
X037055Y007930D01*
X037005Y007930D01*
X037005Y008430D01*
X037055Y008430D01*
X037055Y009380D01*
X036655Y009380D01*
X036555Y009380D01*
X036555Y006680D01*
X034055Y006680D01*
X034055Y013680D01*
X036555Y013680D01*
X036555Y011980D01*
X036555Y011380D01*
X036555Y010980D01*
X036655Y010980D01*
X037055Y010980D01*
X037055Y009380D01*
X036555Y009380D02*
X036255Y009380D01*
X036255Y010980D01*
X036555Y010980D01*
X036855Y011180D02*
X036855Y011380D01*
X036855Y011980D01*
X036655Y011980D01*
X036555Y011980D01*
X036855Y011980D02*
X036855Y012180D01*
X037055Y012330D01*
X037055Y014180D01*
X033555Y014180D01*
X033555Y013680D01*
X033455Y013680D01*
X033455Y013180D01*
X033555Y013180D01*
X033555Y010430D01*
X033455Y010430D01*
X033455Y009930D01*
X033555Y009930D01*
X033555Y007180D01*
X033455Y007180D01*
X034655Y005880D02*
X035955Y005880D01*
X035981Y005878D01*
X036007Y005873D01*
X036032Y005865D01*
X036055Y005853D01*
X036077Y005839D01*
X036096Y005821D01*
X036114Y005802D01*
X036128Y005780D01*
X036140Y005757D01*
X036148Y005732D01*
X036153Y005706D01*
X036155Y005680D01*
X036155Y005180D01*
X036153Y005154D01*
X036148Y005128D01*
X036140Y005103D01*
X036128Y005080D01*
X036114Y005058D01*
X036096Y005039D01*
X036077Y005021D01*
X036055Y005007D01*
X036032Y004995D01*
X036007Y004987D01*
X035981Y004982D01*
X035955Y004980D01*
X034655Y004980D01*
X034629Y004982D01*
X034603Y004987D01*
X034578Y004995D01*
X034555Y005007D01*
X034533Y005021D01*
X034514Y005039D01*
X034496Y005058D01*
X034482Y005080D01*
X034470Y005103D01*
X034462Y005128D01*
X034457Y005154D01*
X034455Y005180D01*
X034455Y005680D01*
X034457Y005706D01*
X034462Y005732D01*
X034470Y005757D01*
X034482Y005780D01*
X034496Y005802D01*
X034514Y005821D01*
X034533Y005839D01*
X034555Y005853D01*
X034578Y005865D01*
X034603Y005873D01*
X034629Y005878D01*
X034655Y005880D01*
X035570Y002936D02*
X035572Y003009D01*
X035578Y003082D01*
X035588Y003154D01*
X035602Y003226D01*
X035619Y003297D01*
X035641Y003367D01*
X035666Y003436D01*
X035695Y003503D01*
X035727Y003568D01*
X035763Y003632D01*
X035803Y003694D01*
X035845Y003753D01*
X035891Y003810D01*
X035940Y003864D01*
X035992Y003916D01*
X036046Y003965D01*
X036103Y004011D01*
X036162Y004053D01*
X036224Y004093D01*
X036288Y004129D01*
X036353Y004161D01*
X036420Y004190D01*
X036489Y004215D01*
X036559Y004237D01*
X036630Y004254D01*
X036702Y004268D01*
X036774Y004278D01*
X036847Y004284D01*
X036920Y004286D01*
X036993Y004284D01*
X037066Y004278D01*
X037138Y004268D01*
X037210Y004254D01*
X037281Y004237D01*
X037351Y004215D01*
X037420Y004190D01*
X037487Y004161D01*
X037552Y004129D01*
X037616Y004093D01*
X037678Y004053D01*
X037737Y004011D01*
X037794Y003965D01*
X037848Y003916D01*
X037900Y003864D01*
X037949Y003810D01*
X037995Y003753D01*
X038037Y003694D01*
X038077Y003632D01*
X038113Y003568D01*
X038145Y003503D01*
X038174Y003436D01*
X038199Y003367D01*
X038221Y003297D01*
X038238Y003226D01*
X038252Y003154D01*
X038262Y003082D01*
X038268Y003009D01*
X038270Y002936D01*
X038268Y002863D01*
X038262Y002790D01*
X038252Y002718D01*
X038238Y002646D01*
X038221Y002575D01*
X038199Y002505D01*
X038174Y002436D01*
X038145Y002369D01*
X038113Y002304D01*
X038077Y002240D01*
X038037Y002178D01*
X037995Y002119D01*
X037949Y002062D01*
X037900Y002008D01*
X037848Y001956D01*
X037794Y001907D01*
X037737Y001861D01*
X037678Y001819D01*
X037616Y001779D01*
X037552Y001743D01*
X037487Y001711D01*
X037420Y001682D01*
X037351Y001657D01*
X037281Y001635D01*
X037210Y001618D01*
X037138Y001604D01*
X037066Y001594D01*
X036993Y001588D01*
X036920Y001586D01*
X036847Y001588D01*
X036774Y001594D01*
X036702Y001604D01*
X036630Y001618D01*
X036559Y001635D01*
X036489Y001657D01*
X036420Y001682D01*
X036353Y001711D01*
X036288Y001743D01*
X036224Y001779D01*
X036162Y001819D01*
X036103Y001861D01*
X036046Y001907D01*
X035992Y001956D01*
X035940Y002008D01*
X035891Y002062D01*
X035845Y002119D01*
X035803Y002178D01*
X035763Y002240D01*
X035727Y002304D01*
X035695Y002369D01*
X035666Y002436D01*
X035641Y002505D01*
X035619Y002575D01*
X035602Y002646D01*
X035588Y002718D01*
X035578Y002790D01*
X035572Y002863D01*
X035570Y002936D01*
X038122Y005172D02*
X038122Y015188D01*
X037955Y016210D02*
X037955Y016637D01*
X036155Y015430D02*
X036155Y014930D01*
X036153Y014904D01*
X036148Y014878D01*
X036140Y014853D01*
X036128Y014830D01*
X036114Y014808D01*
X036096Y014789D01*
X036077Y014771D01*
X036055Y014757D01*
X036032Y014745D01*
X036007Y014737D01*
X035981Y014732D01*
X035955Y014730D01*
X034655Y014730D01*
X034629Y014732D01*
X034603Y014737D01*
X034578Y014745D01*
X034555Y014757D01*
X034533Y014771D01*
X034514Y014789D01*
X034496Y014808D01*
X034482Y014830D01*
X034470Y014853D01*
X034462Y014878D01*
X034457Y014904D01*
X034455Y014930D01*
X034455Y015430D01*
X034457Y015456D01*
X034462Y015482D01*
X034470Y015507D01*
X034482Y015530D01*
X034496Y015552D01*
X034514Y015571D01*
X034533Y015589D01*
X034555Y015603D01*
X034578Y015615D01*
X034603Y015623D01*
X034629Y015628D01*
X034655Y015630D01*
X035955Y015630D01*
X035981Y015628D01*
X036007Y015623D01*
X036032Y015615D01*
X036055Y015603D01*
X036077Y015589D01*
X036096Y015571D01*
X036114Y015552D01*
X036128Y015530D01*
X036140Y015507D01*
X036148Y015482D01*
X036153Y015456D01*
X036155Y015430D01*
X035605Y018280D02*
X035005Y018280D01*
X034988Y018282D01*
X034971Y018286D01*
X034955Y018293D01*
X034941Y018303D01*
X034928Y018316D01*
X034918Y018330D01*
X034911Y018346D01*
X034907Y018363D01*
X034905Y018380D01*
X034905Y019980D01*
X034907Y019997D01*
X034911Y020014D01*
X034918Y020030D01*
X034928Y020044D01*
X034941Y020057D01*
X034955Y020067D01*
X034971Y020074D01*
X034988Y020078D01*
X035005Y020080D01*
X035605Y020080D01*
X035622Y020078D01*
X035639Y020074D01*
X035655Y020067D01*
X035669Y020057D01*
X035682Y020044D01*
X035692Y020030D01*
X035699Y020014D01*
X035703Y019997D01*
X035705Y019980D01*
X035705Y018380D01*
X035703Y018363D01*
X035699Y018346D01*
X035692Y018330D01*
X035682Y018316D01*
X035669Y018303D01*
X035655Y018293D01*
X035639Y018286D01*
X035622Y018282D01*
X035605Y018280D01*
X035305Y018580D02*
X035305Y019180D01*
X035055Y019180D01*
X035305Y019180D02*
X035055Y018780D01*
X035555Y018780D01*
X035305Y019180D01*
X035555Y019180D01*
X035305Y019180D02*
X035305Y019430D01*
X034505Y020180D02*
X034455Y020130D01*
X034455Y018230D01*
X034505Y018180D01*
X034505Y018030D01*
X034503Y018013D01*
X034499Y017996D01*
X034492Y017980D01*
X034482Y017966D01*
X034469Y017953D01*
X034455Y017943D01*
X034439Y017936D01*
X034422Y017932D01*
X034405Y017930D01*
X033705Y017930D01*
X033688Y017932D01*
X033671Y017936D01*
X033655Y017943D01*
X033641Y017953D01*
X033628Y017966D01*
X033618Y017980D01*
X033611Y017996D01*
X033607Y018013D01*
X033605Y018030D01*
X033605Y018180D01*
X033655Y018230D01*
X033655Y020130D01*
X033605Y020180D01*
X033605Y020330D01*
X033607Y020347D01*
X033611Y020364D01*
X033618Y020380D01*
X033628Y020394D01*
X033641Y020407D01*
X033655Y020417D01*
X033671Y020424D01*
X033688Y020428D01*
X033705Y020430D01*
X034405Y020430D01*
X034422Y020428D01*
X034439Y020424D01*
X034455Y020417D01*
X034469Y020407D01*
X034482Y020394D01*
X034492Y020380D01*
X034499Y020364D01*
X034503Y020347D01*
X034505Y020330D01*
X034505Y020180D01*
X033155Y019180D02*
X033153Y019133D01*
X033147Y019085D01*
X033138Y019039D01*
X033125Y018993D01*
X033109Y018949D01*
X033088Y018905D01*
X033065Y018864D01*
X033039Y018825D01*
X033009Y018788D01*
X032976Y018753D01*
X032941Y018721D01*
X032904Y018692D01*
X031955Y019180D02*
X031957Y019225D01*
X031962Y019271D01*
X031970Y019315D01*
X031982Y019359D01*
X031998Y019402D01*
X032016Y019444D01*
X032038Y019484D01*
X032062Y019522D01*
X032089Y019558D01*
X032119Y019593D01*
X032152Y019624D01*
X032187Y019654D01*
X031955Y019180D02*
X031957Y019135D01*
X031962Y019089D01*
X031970Y019045D01*
X031982Y019001D01*
X031998Y018958D01*
X032016Y018916D01*
X032038Y018876D01*
X032062Y018838D01*
X032089Y018802D01*
X032119Y018767D01*
X032152Y018736D01*
X032187Y018706D01*
X033155Y019180D02*
X033153Y019226D01*
X033148Y019272D01*
X033139Y019318D01*
X033127Y019363D01*
X033111Y019406D01*
X033092Y019448D01*
X033069Y019489D01*
X033044Y019528D01*
X033016Y019564D01*
X032985Y019599D01*
X032951Y019631D01*
X032915Y019660D01*
X032555Y021680D02*
X032055Y021680D01*
X031805Y021930D01*
X031805Y022430D01*
X032055Y022680D01*
X032555Y022680D01*
X032805Y022430D01*
X032805Y021930D01*
X032555Y021680D01*
X030455Y021180D02*
X029705Y021180D01*
X029955Y021480D02*
X028655Y021480D01*
X028629Y021482D01*
X028603Y021487D01*
X028578Y021495D01*
X028555Y021507D01*
X028533Y021521D01*
X028514Y021539D01*
X028496Y021558D01*
X028482Y021580D01*
X028470Y021603D01*
X028462Y021628D01*
X028457Y021654D01*
X028455Y021680D01*
X028455Y022180D01*
X028457Y022206D01*
X028462Y022232D01*
X028470Y022257D01*
X028482Y022280D01*
X028496Y022302D01*
X028514Y022321D01*
X028533Y022339D01*
X028555Y022353D01*
X028578Y022365D01*
X028603Y022373D01*
X028629Y022378D01*
X028655Y022380D01*
X029955Y022380D01*
X029981Y022378D01*
X030007Y022373D01*
X030032Y022365D01*
X030055Y022353D01*
X030077Y022339D01*
X030096Y022321D01*
X030114Y022302D01*
X030128Y022280D01*
X030140Y022257D01*
X030148Y022232D01*
X030153Y022206D01*
X030155Y022180D01*
X030155Y021680D01*
X030153Y021654D01*
X030148Y021628D01*
X030140Y021603D01*
X030128Y021580D01*
X030114Y021558D01*
X030096Y021539D01*
X030077Y021521D01*
X030055Y021507D01*
X030032Y021495D01*
X030007Y021487D01*
X029981Y021482D01*
X029955Y021480D01*
X030455Y021180D02*
X030455Y017180D01*
X028155Y017180D01*
X028155Y021180D01*
X028905Y021180D01*
X028907Y021141D01*
X028913Y021102D01*
X028922Y021064D01*
X028935Y021027D01*
X028952Y020991D01*
X028972Y020958D01*
X028996Y020926D01*
X029022Y020897D01*
X029051Y020871D01*
X029083Y020847D01*
X029116Y020827D01*
X029152Y020810D01*
X029189Y020797D01*
X029227Y020788D01*
X029266Y020782D01*
X029305Y020780D01*
X029344Y020782D01*
X029383Y020788D01*
X029421Y020797D01*
X029458Y020810D01*
X029494Y020827D01*
X029527Y020847D01*
X029559Y020871D01*
X029588Y020897D01*
X029614Y020926D01*
X029638Y020958D01*
X029658Y020991D01*
X029675Y021027D01*
X029688Y021064D01*
X029697Y021102D01*
X029703Y021141D01*
X029705Y021180D01*
X033455Y024680D02*
X033555Y024680D01*
X033555Y024180D01*
X037055Y024180D01*
X037055Y025930D01*
X037005Y025930D01*
X037005Y026430D01*
X037055Y026430D01*
X037055Y027380D01*
X036655Y027380D01*
X036555Y027380D01*
X036555Y024680D01*
X034055Y024680D01*
X034055Y031680D01*
X036555Y031680D01*
X036555Y029980D01*
X036555Y029380D01*
X036555Y028980D01*
X036655Y028980D01*
X037055Y028980D01*
X037055Y027380D01*
X036555Y027380D02*
X036255Y027380D01*
X036255Y028980D01*
X036555Y028980D01*
X036855Y029180D02*
X036855Y029380D01*
X036855Y029980D01*
X036655Y029980D01*
X036555Y029980D01*
X036855Y029980D02*
X036855Y030180D01*
X037055Y030330D01*
X037055Y032180D01*
X033555Y032180D01*
X033555Y031680D01*
X033455Y031680D01*
X033455Y031180D01*
X033555Y031180D01*
X033555Y028430D01*
X033455Y028430D01*
X033455Y027930D01*
X033555Y027930D01*
X033555Y025180D01*
X033455Y025180D01*
X033455Y024680D01*
X034655Y023630D02*
X035955Y023630D01*
X035981Y023628D01*
X036007Y023623D01*
X036032Y023615D01*
X036055Y023603D01*
X036077Y023589D01*
X036096Y023571D01*
X036114Y023552D01*
X036128Y023530D01*
X036140Y023507D01*
X036148Y023482D01*
X036153Y023456D01*
X036155Y023430D01*
X036155Y022930D01*
X036153Y022904D01*
X036148Y022878D01*
X036140Y022853D01*
X036128Y022830D01*
X036114Y022808D01*
X036096Y022789D01*
X036077Y022771D01*
X036055Y022757D01*
X036032Y022745D01*
X036007Y022737D01*
X035981Y022732D01*
X035955Y022730D01*
X034655Y022730D01*
X034629Y022732D01*
X034603Y022737D01*
X034578Y022745D01*
X034555Y022757D01*
X034533Y022771D01*
X034514Y022789D01*
X034496Y022808D01*
X034482Y022830D01*
X034470Y022853D01*
X034462Y022878D01*
X034457Y022904D01*
X034455Y022930D01*
X034455Y023430D01*
X034457Y023456D01*
X034462Y023482D01*
X034470Y023507D01*
X034482Y023530D01*
X034496Y023552D01*
X034514Y023571D01*
X034533Y023589D01*
X034555Y023603D01*
X034578Y023615D01*
X034603Y023623D01*
X034629Y023628D01*
X034655Y023630D01*
X038122Y023172D02*
X038122Y033188D01*
X036155Y033180D02*
X036155Y032680D01*
X036153Y032654D01*
X036148Y032628D01*
X036140Y032603D01*
X036128Y032580D01*
X036114Y032558D01*
X036096Y032539D01*
X036077Y032521D01*
X036055Y032507D01*
X036032Y032495D01*
X036007Y032487D01*
X035981Y032482D01*
X035955Y032480D01*
X034655Y032480D01*
X034629Y032482D01*
X034603Y032487D01*
X034578Y032495D01*
X034555Y032507D01*
X034533Y032521D01*
X034514Y032539D01*
X034496Y032558D01*
X034482Y032580D01*
X034470Y032603D01*
X034462Y032628D01*
X034457Y032654D01*
X034455Y032680D01*
X034455Y033180D01*
X034457Y033206D01*
X034462Y033232D01*
X034470Y033257D01*
X034482Y033280D01*
X034496Y033302D01*
X034514Y033321D01*
X034533Y033339D01*
X034555Y033353D01*
X034578Y033365D01*
X034603Y033373D01*
X034629Y033378D01*
X034655Y033380D01*
X035955Y033380D01*
X035981Y033378D01*
X036007Y033373D01*
X036032Y033365D01*
X036055Y033353D01*
X036077Y033339D01*
X036096Y033321D01*
X036114Y033302D01*
X036128Y033280D01*
X036140Y033257D01*
X036148Y033232D01*
X036153Y033206D01*
X036155Y033180D01*
X036555Y029380D02*
X036655Y029380D01*
X036855Y029380D01*
X036855Y029180D02*
X037055Y029030D01*
X037055Y028980D01*
X025455Y026930D02*
X025455Y022930D01*
X023155Y022930D01*
X023155Y026930D01*
X023905Y026930D01*
X023655Y027230D02*
X024955Y027230D01*
X024981Y027232D01*
X025007Y027237D01*
X025032Y027245D01*
X025055Y027257D01*
X025077Y027271D01*
X025096Y027289D01*
X025114Y027308D01*
X025128Y027330D01*
X025140Y027353D01*
X025148Y027378D01*
X025153Y027404D01*
X025155Y027430D01*
X025155Y027930D01*
X025153Y027956D01*
X025148Y027982D01*
X025140Y028007D01*
X025128Y028030D01*
X025114Y028052D01*
X025096Y028071D01*
X025077Y028089D01*
X025055Y028103D01*
X025032Y028115D01*
X025007Y028123D01*
X024981Y028128D01*
X024955Y028130D01*
X023655Y028130D01*
X023629Y028128D01*
X023603Y028123D01*
X023578Y028115D01*
X023555Y028103D01*
X023533Y028089D01*
X023514Y028071D01*
X023496Y028052D01*
X023482Y028030D01*
X023470Y028007D01*
X023462Y027982D01*
X023457Y027956D01*
X023455Y027930D01*
X023455Y027430D01*
X023457Y027404D01*
X023462Y027378D01*
X023470Y027353D01*
X023482Y027330D01*
X023496Y027308D01*
X023514Y027289D01*
X023533Y027271D01*
X023555Y027257D01*
X023578Y027245D01*
X023603Y027237D01*
X023629Y027232D01*
X023655Y027230D01*
X023905Y026930D02*
X023907Y026891D01*
X023913Y026852D01*
X023922Y026814D01*
X023935Y026777D01*
X023952Y026741D01*
X023972Y026708D01*
X023996Y026676D01*
X024022Y026647D01*
X024051Y026621D01*
X024083Y026597D01*
X024116Y026577D01*
X024152Y026560D01*
X024189Y026547D01*
X024227Y026538D01*
X024266Y026532D01*
X024305Y026530D01*
X024344Y026532D01*
X024383Y026538D01*
X024421Y026547D01*
X024458Y026560D01*
X024494Y026577D01*
X024527Y026597D01*
X024559Y026621D01*
X024588Y026647D01*
X024614Y026676D01*
X024638Y026708D01*
X024658Y026741D01*
X024675Y026777D01*
X024688Y026814D01*
X024697Y026852D01*
X024703Y026891D01*
X024705Y026930D01*
X025455Y026930D01*
X028655Y016880D02*
X029955Y016880D01*
X029981Y016878D01*
X030007Y016873D01*
X030032Y016865D01*
X030055Y016853D01*
X030077Y016839D01*
X030096Y016821D01*
X030114Y016802D01*
X030128Y016780D01*
X030140Y016757D01*
X030148Y016732D01*
X030153Y016706D01*
X030155Y016680D01*
X030155Y016180D01*
X030153Y016154D01*
X030148Y016128D01*
X030140Y016103D01*
X030128Y016080D01*
X030114Y016058D01*
X030096Y016039D01*
X030077Y016021D01*
X030055Y016007D01*
X030032Y015995D01*
X030007Y015987D01*
X029981Y015982D01*
X029955Y015980D01*
X028655Y015980D01*
X028629Y015982D01*
X028603Y015987D01*
X028578Y015995D01*
X028555Y016007D01*
X028533Y016021D01*
X028514Y016039D01*
X028496Y016058D01*
X028482Y016080D01*
X028470Y016103D01*
X028462Y016128D01*
X028457Y016154D01*
X028455Y016180D01*
X028455Y016680D01*
X028457Y016706D01*
X028462Y016732D01*
X028470Y016757D01*
X028482Y016780D01*
X028496Y016802D01*
X028514Y016821D01*
X028533Y016839D01*
X028555Y016853D01*
X028578Y016865D01*
X028603Y016873D01*
X028629Y016878D01*
X028655Y016880D01*
X031805Y016430D02*
X031805Y015930D01*
X032055Y015680D01*
X032555Y015680D01*
X032805Y015930D01*
X032805Y016430D01*
X032555Y016680D01*
X032055Y016680D01*
X031805Y016430D01*
X032055Y014280D02*
X032555Y014280D01*
X032581Y014278D01*
X032607Y014273D01*
X032632Y014265D01*
X032655Y014253D01*
X032677Y014239D01*
X032696Y014221D01*
X032714Y014202D01*
X032728Y014180D01*
X032740Y014157D01*
X032748Y014132D01*
X032753Y014106D01*
X032755Y014080D01*
X032755Y012780D01*
X032753Y012754D01*
X032748Y012728D01*
X032740Y012703D01*
X032728Y012680D01*
X032714Y012658D01*
X032696Y012639D01*
X032677Y012621D01*
X032655Y012607D01*
X032632Y012595D01*
X032607Y012587D01*
X032581Y012582D01*
X032555Y012580D01*
X032055Y012580D01*
X032029Y012582D01*
X032003Y012587D01*
X031978Y012595D01*
X031955Y012607D01*
X031933Y012621D01*
X031914Y012639D01*
X031896Y012658D01*
X031882Y012680D01*
X031870Y012703D01*
X031862Y012728D01*
X031857Y012754D01*
X031855Y012780D01*
X031855Y014080D01*
X031857Y014106D01*
X031862Y014132D01*
X031870Y014157D01*
X031882Y014180D01*
X031896Y014202D01*
X031914Y014221D01*
X031933Y014239D01*
X031955Y014253D01*
X031978Y014265D01*
X032003Y014273D01*
X032029Y014278D01*
X032055Y014280D01*
X036555Y011380D02*
X036655Y011380D01*
X036855Y011380D01*
X036855Y011180D02*
X037055Y011030D01*
X037055Y010980D01*
D14*
X036655Y010980D02*
X036655Y011380D01*
X036655Y011980D02*
X036655Y013780D01*
X033955Y013780D01*
X033955Y006580D01*
X036655Y006580D01*
X036655Y009380D01*
X036655Y024580D02*
X033955Y024580D01*
X033955Y031780D01*
X036655Y031780D01*
X036655Y029980D01*
X036655Y029380D02*
X036655Y028980D01*
X036655Y027380D02*
X036655Y024580D01*
X011315Y035076D02*
X011069Y035076D01*
X010774Y035076D01*
X010747Y035078D01*
X010721Y035083D01*
X010696Y035092D01*
X010672Y035105D01*
X010650Y035120D01*
X010630Y035139D01*
X010613Y035159D01*
X010599Y035182D01*
X010588Y035207D01*
X010581Y035233D01*
X010577Y035260D01*
X010577Y035286D01*
X010581Y035313D01*
X010588Y035339D01*
X010599Y035364D01*
X010613Y035387D01*
X010630Y035407D01*
X010650Y035426D01*
X010672Y035441D01*
X010696Y035454D01*
X010721Y035463D01*
X010747Y035468D01*
X010774Y035470D01*
X010774Y035469D02*
X010747Y035471D01*
X010721Y035476D01*
X010696Y035485D01*
X010672Y035498D01*
X010650Y035513D01*
X010630Y035532D01*
X010613Y035552D01*
X010599Y035575D01*
X010588Y035600D01*
X010581Y035626D01*
X010577Y035653D01*
X010577Y035679D01*
X010581Y035706D01*
X010588Y035732D01*
X010599Y035757D01*
X010613Y035780D01*
X010630Y035800D01*
X010650Y035819D01*
X010672Y035834D01*
X010696Y035847D01*
X010721Y035856D01*
X010747Y035861D01*
X010774Y035863D01*
X011069Y035863D01*
X010774Y035666D01*
X011069Y035469D01*
X010774Y035273D01*
X011069Y035076D01*
X011069Y035469D01*
X011069Y035863D01*
X011315Y035863D01*
X011315Y035076D01*
X010479Y035076D02*
X010479Y035863D01*
X009790Y035863D01*
X009790Y035666D01*
X010233Y035666D01*
X010233Y035568D01*
X009790Y035568D01*
X009790Y035371D01*
X010233Y035371D01*
X010233Y035273D01*
X009790Y035273D01*
X009790Y035076D01*
X010479Y035076D01*
X009691Y035076D02*
X009691Y035863D01*
X009445Y035863D01*
X009445Y035568D01*
X009248Y035863D01*
X008953Y035863D01*
X009150Y035568D01*
X009298Y035420D02*
X009445Y035420D01*
X009445Y035273D01*
X009298Y035273D01*
X009298Y035272D02*
X009283Y035274D01*
X009268Y035278D01*
X009255Y035286D01*
X009243Y035296D01*
X009234Y035309D01*
X009228Y035323D01*
X009224Y035338D01*
X009224Y035354D01*
X009228Y035369D01*
X009234Y035383D01*
X009243Y035396D01*
X009255Y035406D01*
X009268Y035414D01*
X009283Y035418D01*
X009298Y035420D01*
X009150Y035568D02*
X009120Y035566D01*
X009091Y035561D01*
X009063Y035552D01*
X009036Y035540D01*
X009010Y035524D01*
X008987Y035506D01*
X008966Y035485D01*
X008948Y035462D01*
X008932Y035436D01*
X008920Y035409D01*
X008911Y035381D01*
X008906Y035352D01*
X008904Y035322D01*
X008906Y035292D01*
X008911Y035263D01*
X008920Y035235D01*
X008932Y035208D01*
X008948Y035182D01*
X008966Y035159D01*
X008987Y035138D01*
X009010Y035120D01*
X009036Y035104D01*
X009063Y035092D01*
X009091Y035083D01*
X009120Y035078D01*
X009150Y035076D01*
X009691Y035076D01*
X008461Y035863D02*
X008401Y035861D01*
X008341Y035855D01*
X008282Y035845D01*
X008223Y035831D01*
X008166Y035814D01*
X008166Y035469D01*
X008363Y035469D01*
X008363Y035272D02*
X008390Y035274D01*
X008416Y035279D01*
X008441Y035288D01*
X008465Y035301D01*
X008487Y035316D01*
X008507Y035335D01*
X008524Y035355D01*
X008538Y035378D01*
X008549Y035403D01*
X008556Y035429D01*
X008560Y035456D01*
X008560Y035482D01*
X008556Y035509D01*
X008549Y035535D01*
X008538Y035560D01*
X008524Y035583D01*
X008507Y035603D01*
X008487Y035622D01*
X008465Y035637D01*
X008441Y035650D01*
X008416Y035659D01*
X008390Y035664D01*
X008363Y035666D01*
X008363Y035469D01*
X008461Y035075D02*
X008500Y035077D01*
X008538Y035083D01*
X008575Y035092D01*
X008612Y035105D01*
X008647Y035122D01*
X008680Y035141D01*
X008711Y035164D01*
X008740Y035190D01*
X008766Y035219D01*
X008789Y035250D01*
X008808Y035283D01*
X008825Y035318D01*
X008838Y035355D01*
X008847Y035392D01*
X008853Y035430D01*
X008855Y035469D01*
X008853Y035508D01*
X008847Y035546D01*
X008838Y035583D01*
X008825Y035620D01*
X008808Y035655D01*
X008789Y035688D01*
X008766Y035719D01*
X008740Y035748D01*
X008711Y035774D01*
X008680Y035797D01*
X008647Y035816D01*
X008612Y035833D01*
X008575Y035846D01*
X008538Y035855D01*
X008500Y035861D01*
X008461Y035863D01*
X008362Y035273D02*
X008313Y035268D01*
X008264Y035266D01*
X008215Y035268D01*
X008166Y035273D01*
X008168Y035273D02*
X008168Y035097D01*
X008162Y035097D02*
X008236Y035086D01*
X008311Y035079D01*
X008386Y035075D01*
X008461Y035076D01*
X007905Y027530D02*
X005205Y027530D01*
X005205Y024730D01*
X005205Y024130D02*
X005205Y020730D01*
X005205Y019130D02*
X005205Y014730D01*
X005205Y014130D02*
X005205Y012330D01*
X007905Y012330D01*
X007905Y027530D01*
D15*
X007280Y026795D02*
X007280Y026495D01*
X006980Y026795D01*
X006905Y026795D01*
X006830Y026720D01*
X006830Y026570D01*
X006905Y026495D01*
X006280Y026495D02*
X006280Y026795D01*
X006280Y026645D02*
X005830Y026645D01*
X005980Y026495D01*
X004030Y026845D02*
X004030Y027145D01*
X004030Y026995D02*
X003580Y026995D01*
X003730Y026845D01*
X002980Y026834D02*
X002980Y027134D01*
X002980Y026984D02*
X002530Y026984D01*
X002680Y026834D01*
X002755Y027295D02*
X002755Y027595D01*
X002530Y027520D02*
X002755Y027295D01*
X002980Y027520D02*
X002530Y027520D01*
X002083Y029655D02*
X002083Y030105D01*
X001858Y029880D01*
X002158Y029880D01*
X001698Y029880D02*
X001698Y029730D01*
X001623Y029655D01*
X001473Y029655D01*
X001398Y029730D01*
X001398Y029880D02*
X001548Y029955D01*
X001623Y029955D01*
X001698Y029880D01*
X001698Y030105D02*
X001398Y030105D01*
X001398Y029880D01*
X001241Y029730D02*
X001166Y029730D01*
X001166Y029655D01*
X001241Y029655D01*
X001241Y029730D01*
X001241Y029655D02*
X001091Y029505D01*
X000931Y029655D02*
X000630Y029655D01*
X000931Y029955D01*
X000931Y030030D01*
X000856Y030105D01*
X000706Y030105D01*
X000630Y030030D01*
X003530Y031955D02*
X003980Y031955D01*
X003980Y031805D02*
X003980Y032105D01*
X003905Y032265D02*
X003605Y032566D01*
X003905Y032566D01*
X003980Y032491D01*
X003980Y032340D01*
X003905Y032265D01*
X003605Y032265D01*
X003530Y032340D01*
X003530Y032491D01*
X003605Y032566D01*
X003605Y032726D02*
X003530Y032801D01*
X003530Y032951D01*
X003605Y033026D01*
X003905Y032726D01*
X003980Y032801D01*
X003980Y032951D01*
X003905Y033026D01*
X003605Y033026D01*
X003680Y033186D02*
X003905Y033186D01*
X003980Y033261D01*
X003980Y033486D01*
X003680Y033486D01*
X003755Y033647D02*
X003755Y033797D01*
X003530Y033647D02*
X003530Y033947D01*
X003530Y033647D02*
X003980Y033647D01*
X003905Y032726D02*
X003605Y032726D01*
X003530Y031955D02*
X003680Y031805D01*
X009380Y031109D02*
X009494Y030996D01*
X009380Y031109D02*
X009720Y031109D01*
X009720Y030996D02*
X009720Y031223D01*
X010080Y027795D02*
X010080Y027495D01*
X010305Y027495D01*
X010230Y027645D01*
X010230Y027720D01*
X010305Y027795D01*
X010455Y027795D01*
X010530Y027720D01*
X010530Y027570D01*
X010455Y027495D01*
X010530Y027334D02*
X010305Y027109D01*
X010380Y027034D02*
X010080Y027334D01*
X010080Y027034D02*
X010530Y027034D01*
X010530Y026874D02*
X010530Y026574D01*
X010530Y026724D02*
X010080Y026724D01*
X010230Y026574D01*
X016580Y028399D02*
X016655Y028324D01*
X016580Y028399D02*
X016580Y028549D01*
X016655Y028624D01*
X016730Y028624D01*
X017030Y028324D01*
X017030Y028624D01*
X017030Y028784D02*
X016730Y029084D01*
X016655Y029084D01*
X016580Y029009D01*
X016580Y028859D01*
X016655Y028784D01*
X017030Y028784D02*
X017030Y029084D01*
X016955Y029245D02*
X016655Y029545D01*
X016955Y029545D01*
X017030Y029470D01*
X017030Y029320D01*
X016955Y029245D01*
X016655Y029245D01*
X016580Y029320D01*
X016580Y029470D01*
X016655Y029545D01*
X016220Y032746D02*
X016220Y032973D01*
X016220Y032859D02*
X015880Y032859D01*
X015994Y032746D01*
X016055Y034803D02*
X015905Y034953D01*
X015830Y035103D01*
X015830Y035263D02*
X016280Y035564D01*
X015830Y035564D01*
X015980Y035724D02*
X015830Y035874D01*
X016280Y035874D01*
X016280Y035724D02*
X016280Y036024D01*
X016205Y036184D02*
X016280Y036259D01*
X016280Y036409D01*
X016205Y036484D01*
X016130Y036484D01*
X016055Y036409D01*
X016055Y036334D01*
X016055Y036409D02*
X015980Y036484D01*
X015905Y036484D01*
X015830Y036409D01*
X015830Y036259D01*
X015905Y036184D01*
X015830Y036645D02*
X015830Y036945D01*
X015905Y036945D01*
X016205Y036645D01*
X016280Y036645D01*
X016280Y035263D02*
X015830Y035263D01*
X016055Y035028D02*
X016055Y034803D01*
X016205Y034803D01*
X016280Y034878D01*
X016280Y035028D01*
X016205Y035103D01*
X016130Y035103D01*
X016055Y035028D01*
X021080Y035103D02*
X021155Y034953D01*
X021305Y034803D01*
X021305Y035028D01*
X021380Y035103D01*
X021455Y035103D01*
X021530Y035028D01*
X021530Y034878D01*
X021455Y034803D01*
X021305Y034803D01*
X021080Y035263D02*
X021530Y035564D01*
X021080Y035564D01*
X021230Y035724D02*
X021080Y035874D01*
X021530Y035874D01*
X021530Y035724D02*
X021530Y036024D01*
X021455Y036184D02*
X021530Y036259D01*
X021530Y036409D01*
X021455Y036484D01*
X021380Y036484D01*
X021305Y036409D01*
X021305Y036334D01*
X021305Y036409D02*
X021230Y036484D01*
X021155Y036484D01*
X021080Y036409D01*
X021080Y036259D01*
X021155Y036184D01*
X021080Y036645D02*
X021080Y036945D01*
X021155Y036945D01*
X021455Y036645D01*
X021530Y036645D01*
X021530Y035263D02*
X021080Y035263D01*
X021305Y032180D02*
X021305Y024180D01*
X024080Y024353D02*
X024155Y024203D01*
X024305Y024053D01*
X024305Y024278D01*
X024380Y024353D01*
X024455Y024353D01*
X024530Y024278D01*
X024530Y024128D01*
X024455Y024053D01*
X024305Y024053D01*
X024080Y024513D02*
X024530Y024814D01*
X024080Y024814D01*
X024230Y024974D02*
X024080Y025124D01*
X024530Y025124D01*
X024530Y024974D02*
X024530Y025274D01*
X024455Y025434D02*
X024530Y025509D01*
X024530Y025659D01*
X024455Y025734D01*
X024380Y025734D01*
X024305Y025659D01*
X024305Y025584D01*
X024305Y025659D02*
X024230Y025734D01*
X024155Y025734D01*
X024080Y025659D01*
X024080Y025509D01*
X024155Y025434D01*
X024080Y025895D02*
X024080Y026195D01*
X024155Y026195D01*
X024455Y025895D01*
X024530Y025895D01*
X024530Y024513D02*
X024080Y024513D01*
X022030Y027324D02*
X021580Y027324D01*
X022030Y027324D02*
X022030Y027624D01*
X022030Y027784D02*
X022030Y028009D01*
X021955Y028084D01*
X021880Y028084D01*
X021805Y028009D01*
X021805Y027784D01*
X021580Y027784D02*
X021580Y028009D01*
X021655Y028084D01*
X021730Y028084D01*
X021805Y028009D01*
X021730Y028245D02*
X021655Y028245D01*
X021580Y028320D01*
X021580Y028470D01*
X021655Y028545D01*
X021730Y028545D01*
X021805Y028470D01*
X021805Y028320D01*
X021730Y028245D01*
X021805Y028320D02*
X021880Y028245D01*
X021955Y028245D01*
X022030Y028320D01*
X022030Y028470D01*
X021955Y028545D01*
X021880Y028545D01*
X021805Y028470D01*
X022030Y027784D02*
X021580Y027784D01*
X024155Y029453D02*
X024305Y029303D01*
X024305Y029528D01*
X024380Y029603D01*
X024455Y029603D01*
X024530Y029528D01*
X024530Y029378D01*
X024455Y029303D01*
X024305Y029303D01*
X024155Y029453D02*
X024080Y029603D01*
X024080Y029763D02*
X024530Y030064D01*
X024080Y030064D01*
X024230Y030224D02*
X024080Y030374D01*
X024530Y030374D01*
X024530Y030224D02*
X024530Y030524D01*
X024455Y030684D02*
X024530Y030759D01*
X024530Y030909D01*
X024455Y030984D01*
X024380Y030984D01*
X024305Y030909D01*
X024305Y030834D01*
X024305Y030909D02*
X024230Y030984D01*
X024155Y030984D01*
X024080Y030909D01*
X024080Y030759D01*
X024155Y030684D01*
X024080Y031145D02*
X024080Y031445D01*
X024155Y031445D01*
X024455Y031145D01*
X024530Y031145D01*
X024530Y029763D02*
X024080Y029763D01*
X027630Y032359D02*
X027970Y032359D01*
X027970Y032246D02*
X027970Y032473D01*
X027744Y032246D02*
X027630Y032359D01*
X026705Y034803D02*
X026555Y034803D01*
X026555Y035028D01*
X026630Y035103D01*
X026705Y035103D01*
X026780Y035028D01*
X026780Y034878D01*
X026705Y034803D01*
X026555Y034803D02*
X026405Y034953D01*
X026330Y035103D01*
X026330Y035263D02*
X026780Y035564D01*
X026330Y035564D01*
X026480Y035724D02*
X026330Y035874D01*
X026780Y035874D01*
X026780Y035724D02*
X026780Y036024D01*
X026705Y036184D02*
X026780Y036259D01*
X026780Y036409D01*
X026705Y036484D01*
X026630Y036484D01*
X026555Y036409D01*
X026555Y036334D01*
X026555Y036409D02*
X026480Y036484D01*
X026405Y036484D01*
X026330Y036409D01*
X026330Y036259D01*
X026405Y036184D01*
X026330Y036645D02*
X026330Y036945D01*
X026405Y036945D01*
X026705Y036645D01*
X026780Y036645D01*
X026780Y035263D02*
X026330Y035263D01*
X032080Y035790D02*
X032305Y035565D01*
X032305Y035865D01*
X032455Y036025D02*
X032530Y036025D01*
X032455Y036025D02*
X032155Y036326D01*
X032080Y036326D01*
X032080Y036025D01*
X032080Y035790D02*
X032530Y035790D01*
X032455Y036486D02*
X032155Y036486D01*
X032080Y036561D01*
X032080Y036711D01*
X032155Y036786D01*
X032455Y036486D01*
X032530Y036561D01*
X032530Y036711D01*
X032455Y036786D01*
X032155Y036786D01*
X028705Y029045D02*
X028555Y029045D01*
X028480Y028970D01*
X028480Y028895D01*
X028555Y028745D01*
X028330Y028745D01*
X028330Y029045D01*
X028705Y029045D02*
X028780Y028970D01*
X028780Y028820D01*
X028705Y028745D01*
X028780Y028584D02*
X028555Y028359D01*
X028630Y028284D02*
X028330Y028584D01*
X028330Y028284D02*
X028780Y028284D01*
X028780Y028124D02*
X028780Y027824D01*
X028780Y027974D02*
X028330Y027974D01*
X028480Y027824D01*
X034580Y025430D02*
X034580Y025280D01*
X034655Y025205D01*
X034580Y025430D02*
X034655Y025505D01*
X034730Y025505D01*
X035030Y025205D01*
X035030Y025505D01*
X035580Y025355D02*
X036030Y025355D01*
X036030Y025205D02*
X036030Y025505D01*
X035730Y025205D02*
X035580Y025355D01*
X036580Y027805D02*
X036430Y027955D01*
X036880Y027955D01*
X036880Y027805D02*
X036880Y028105D01*
X036805Y028265D02*
X036505Y028566D01*
X036805Y028566D01*
X036880Y028491D01*
X036880Y028340D01*
X036805Y028265D01*
X036505Y028265D01*
X036430Y028340D01*
X036430Y028491D01*
X036505Y028566D01*
X029155Y020445D02*
X029080Y020445D01*
X029080Y020145D01*
X029155Y019984D02*
X029080Y019909D01*
X029080Y019759D01*
X029155Y019684D01*
X029305Y019834D02*
X029305Y019909D01*
X029380Y019984D01*
X029455Y019984D01*
X029530Y019909D01*
X029530Y019759D01*
X029455Y019684D01*
X029530Y019524D02*
X029530Y019224D01*
X029530Y019374D02*
X029080Y019374D01*
X029230Y019224D01*
X029080Y019064D02*
X029530Y019064D01*
X029080Y018763D01*
X029530Y018763D01*
X029455Y018603D02*
X029380Y018603D01*
X029305Y018528D01*
X029305Y018303D01*
X029455Y018303D01*
X029530Y018378D01*
X029530Y018528D01*
X029455Y018603D01*
X029155Y018453D02*
X029305Y018303D01*
X029155Y018453D02*
X029080Y018603D01*
X029305Y019909D02*
X029230Y019984D01*
X029155Y019984D01*
X029455Y020145D02*
X029530Y020145D01*
X029455Y020145D02*
X029155Y020445D01*
X033830Y019860D02*
X033905Y019935D01*
X034205Y019635D01*
X034280Y019710D01*
X034280Y019860D01*
X034205Y019935D01*
X033905Y019935D01*
X033830Y019860D02*
X033830Y019710D01*
X033905Y019635D01*
X034205Y019635D01*
X034205Y019474D02*
X034280Y019399D01*
X034280Y019249D01*
X034205Y019174D01*
X034130Y019174D01*
X034055Y019249D01*
X034055Y019399D01*
X034130Y019474D01*
X034205Y019474D01*
X034055Y019399D02*
X033980Y019474D01*
X033905Y019474D01*
X033830Y019399D01*
X033830Y019249D01*
X033905Y019174D01*
X033980Y019174D01*
X034055Y019249D01*
X034130Y019014D02*
X034055Y018939D01*
X034055Y018714D01*
X034205Y018714D01*
X034280Y018789D01*
X034280Y018939D01*
X034205Y019014D01*
X034130Y019014D01*
X033905Y018864D02*
X034055Y018714D01*
X033905Y018864D02*
X033830Y019014D01*
X029185Y013655D02*
X028960Y013655D01*
X028960Y013205D01*
X028960Y013355D02*
X029185Y013355D01*
X029260Y013430D01*
X029260Y013580D01*
X029185Y013655D01*
X028803Y013655D02*
X028653Y013655D01*
X028728Y013655D02*
X028728Y013205D01*
X028653Y013205D02*
X028803Y013205D01*
X028493Y013280D02*
X028493Y013580D01*
X028418Y013655D01*
X028193Y013655D01*
X028193Y013205D01*
X028418Y013205D01*
X028493Y013280D01*
X028033Y013280D02*
X028033Y013580D01*
X027958Y013655D01*
X027808Y013655D01*
X027732Y013580D01*
X027732Y013505D01*
X027808Y013430D01*
X028033Y013430D01*
X028033Y013280D02*
X027958Y013205D01*
X027808Y013205D01*
X027732Y013280D01*
X027572Y013280D02*
X027497Y013205D01*
X027347Y013205D01*
X027272Y013280D01*
X027272Y013355D01*
X027347Y013430D01*
X027497Y013430D01*
X027572Y013355D01*
X027572Y013280D01*
X027497Y013430D02*
X027572Y013505D01*
X027572Y013580D01*
X027497Y013655D01*
X027347Y013655D01*
X027272Y013580D01*
X027272Y013505D01*
X027347Y013430D01*
X027112Y013430D02*
X026812Y013430D01*
X027037Y013655D01*
X027037Y013205D01*
X026652Y013205D02*
X026351Y013205D01*
X026501Y013205D02*
X026501Y013655D01*
X026351Y013505D01*
X026191Y013580D02*
X026116Y013655D01*
X025966Y013655D01*
X025891Y013580D01*
X025891Y013280D01*
X025966Y013205D01*
X026116Y013205D01*
X026191Y013280D01*
X025731Y013205D02*
X025731Y013655D01*
X025581Y013505D01*
X025430Y013655D01*
X025430Y013205D01*
X022030Y010470D02*
X022030Y010320D01*
X021955Y010245D01*
X021880Y010245D01*
X021805Y010320D01*
X021805Y010470D01*
X021880Y010545D01*
X021955Y010545D01*
X022030Y010470D01*
X021805Y010470D02*
X021730Y010545D01*
X021655Y010545D01*
X021580Y010470D01*
X021580Y010320D01*
X021655Y010245D01*
X021730Y010245D01*
X021805Y010320D01*
X021730Y010084D02*
X021805Y010009D01*
X021805Y009784D01*
X021580Y009784D02*
X021580Y010009D01*
X021655Y010084D01*
X021730Y010084D01*
X021805Y010009D02*
X021880Y010084D01*
X021955Y010084D01*
X022030Y010009D01*
X022030Y009784D01*
X021580Y009784D01*
X021580Y009324D02*
X022030Y009324D01*
X022030Y009624D01*
X021980Y008145D02*
X021980Y007845D01*
X021980Y007995D02*
X021530Y007995D01*
X021680Y007845D01*
X021605Y007684D02*
X021905Y007384D01*
X021980Y007459D01*
X021980Y007609D01*
X021905Y007684D01*
X021605Y007684D01*
X021530Y007609D01*
X021530Y007459D01*
X021605Y007384D01*
X021905Y007384D01*
X021905Y007224D02*
X021980Y007149D01*
X021980Y006999D01*
X021905Y006924D01*
X021605Y007224D01*
X021905Y007224D01*
X021605Y007224D02*
X021530Y007149D01*
X021530Y006999D01*
X021605Y006924D01*
X021905Y006924D01*
X021755Y006764D02*
X021755Y006463D01*
X021530Y006689D01*
X021980Y006689D01*
X021980Y006303D02*
X021530Y006303D01*
X021305Y006180D02*
X021305Y014180D01*
X019455Y018303D02*
X019530Y018378D01*
X019530Y018528D01*
X019455Y018603D01*
X019380Y018603D01*
X019305Y018528D01*
X019305Y018303D01*
X019455Y018303D01*
X019305Y018303D02*
X019155Y018453D01*
X019080Y018603D01*
X019080Y018763D02*
X019530Y019064D01*
X019080Y019064D01*
X019230Y019224D02*
X019080Y019374D01*
X019530Y019374D01*
X019530Y019224D02*
X019530Y019524D01*
X019455Y019684D02*
X019530Y019759D01*
X019530Y019909D01*
X019455Y019984D01*
X019380Y019984D01*
X019305Y019909D01*
X019305Y019834D01*
X019305Y019909D02*
X019230Y019984D01*
X019155Y019984D01*
X019080Y019909D01*
X019080Y019759D01*
X019155Y019684D01*
X019080Y020145D02*
X019080Y020445D01*
X019155Y020445D01*
X019455Y020145D01*
X019530Y020145D01*
X019530Y018763D02*
X019080Y018763D01*
X016812Y017605D02*
X016512Y017605D01*
X016512Y017155D01*
X016352Y017155D02*
X016352Y017455D01*
X016512Y017380D02*
X016662Y017380D01*
X016352Y017155D02*
X016126Y017155D01*
X016051Y017230D01*
X016051Y017455D01*
X015431Y017155D02*
X015130Y017155D01*
X015281Y017155D02*
X015281Y017605D01*
X015130Y017455D01*
X013570Y017980D02*
X013270Y017680D01*
X013270Y017605D01*
X013110Y017605D02*
X012810Y017605D01*
X012960Y017605D02*
X012960Y018055D01*
X012810Y017905D01*
X012650Y017905D02*
X012574Y017830D01*
X012424Y017830D01*
X012349Y017905D01*
X012349Y017980D01*
X012424Y018055D01*
X012574Y018055D01*
X012650Y017980D01*
X012650Y017905D01*
X012574Y017830D02*
X012650Y017755D01*
X012650Y017680D01*
X012574Y017605D01*
X012424Y017605D01*
X012349Y017680D01*
X012349Y017755D01*
X012424Y017830D01*
X012189Y017680D02*
X012114Y017605D01*
X011964Y017605D01*
X011889Y017680D01*
X011889Y017980D01*
X011964Y018055D01*
X012114Y018055D01*
X012189Y017980D01*
X011729Y017980D02*
X011729Y017830D01*
X011654Y017755D01*
X011429Y017755D01*
X011429Y017605D02*
X011429Y018055D01*
X011654Y018055D01*
X011729Y017980D01*
X013270Y018055D02*
X013570Y018055D01*
X013570Y017980D01*
X013270Y019605D02*
X013270Y019680D01*
X013570Y019980D01*
X013570Y020055D01*
X013270Y020055D01*
X012960Y020055D02*
X012960Y019605D01*
X012810Y019605D02*
X013110Y019605D01*
X012810Y019905D02*
X012960Y020055D01*
X012650Y019980D02*
X012650Y019905D01*
X012574Y019830D01*
X012424Y019830D01*
X012349Y019905D01*
X012349Y019980D01*
X012424Y020055D01*
X012574Y020055D01*
X012650Y019980D01*
X012574Y019830D02*
X012650Y019755D01*
X012650Y019680D01*
X012574Y019605D01*
X012424Y019605D01*
X012349Y019680D01*
X012349Y019755D01*
X012424Y019830D01*
X012189Y019680D02*
X012114Y019605D01*
X011964Y019605D01*
X011889Y019680D01*
X011889Y019980D01*
X011964Y020055D01*
X012114Y020055D01*
X012189Y019980D01*
X011729Y019980D02*
X011729Y019830D01*
X011654Y019755D01*
X011429Y019755D01*
X011429Y019605D02*
X011429Y020055D01*
X011654Y020055D01*
X011729Y019980D01*
X011654Y016055D02*
X011429Y016055D01*
X011429Y015605D01*
X011429Y015755D02*
X011654Y015755D01*
X011729Y015830D01*
X011729Y015980D01*
X011654Y016055D01*
X011889Y015980D02*
X011889Y015680D01*
X011964Y015605D01*
X012114Y015605D01*
X012189Y015680D01*
X012349Y015680D02*
X012349Y015755D01*
X012424Y015830D01*
X012574Y015830D01*
X012650Y015755D01*
X012650Y015680D01*
X012574Y015605D01*
X012424Y015605D01*
X012349Y015680D01*
X012424Y015830D02*
X012349Y015905D01*
X012349Y015980D01*
X012424Y016055D01*
X012574Y016055D01*
X012650Y015980D01*
X012650Y015905D01*
X012574Y015830D01*
X012810Y015905D02*
X012960Y016055D01*
X012960Y015605D01*
X012810Y015605D02*
X013110Y015605D01*
X013270Y015605D02*
X013270Y015680D01*
X013570Y015980D01*
X013570Y016055D01*
X013270Y016055D01*
X012189Y015980D02*
X012114Y016055D01*
X011964Y016055D01*
X011889Y015980D01*
X011964Y014055D02*
X011889Y013980D01*
X011889Y013680D01*
X011964Y013605D01*
X012114Y013605D01*
X012189Y013680D01*
X012349Y013680D02*
X012349Y013755D01*
X012424Y013830D01*
X012574Y013830D01*
X012650Y013755D01*
X012650Y013680D01*
X012574Y013605D01*
X012424Y013605D01*
X012349Y013680D01*
X012424Y013830D02*
X012349Y013905D01*
X012349Y013980D01*
X012424Y014055D01*
X012574Y014055D01*
X012650Y013980D01*
X012650Y013905D01*
X012574Y013830D01*
X012810Y013905D02*
X012960Y014055D01*
X012960Y013605D01*
X012810Y013605D02*
X013110Y013605D01*
X013270Y013605D02*
X013270Y013680D01*
X013570Y013980D01*
X013570Y014055D01*
X013270Y014055D01*
X012189Y013980D02*
X012114Y014055D01*
X011964Y014055D01*
X011729Y013980D02*
X011729Y013830D01*
X011654Y013755D01*
X011429Y013755D01*
X011429Y013605D02*
X011429Y014055D01*
X011654Y014055D01*
X011729Y013980D01*
X011654Y012055D02*
X011429Y012055D01*
X011429Y011605D01*
X011429Y011755D02*
X011654Y011755D01*
X011729Y011830D01*
X011729Y011980D01*
X011654Y012055D01*
X011889Y011980D02*
X011889Y011680D01*
X011964Y011605D01*
X012114Y011605D01*
X012189Y011680D01*
X012349Y011680D02*
X012349Y011755D01*
X012424Y011830D01*
X012574Y011830D01*
X012650Y011755D01*
X012650Y011680D01*
X012574Y011605D01*
X012424Y011605D01*
X012349Y011680D01*
X012424Y011830D02*
X012349Y011905D01*
X012349Y011980D01*
X012424Y012055D01*
X012574Y012055D01*
X012650Y011980D01*
X012650Y011905D01*
X012574Y011830D01*
X012810Y011905D02*
X012960Y012055D01*
X012960Y011605D01*
X012810Y011605D02*
X013110Y011605D01*
X013270Y011605D02*
X013270Y011680D01*
X013570Y011980D01*
X013570Y012055D01*
X013270Y012055D01*
X012189Y011980D02*
X012114Y012055D01*
X011964Y012055D01*
X011889Y011980D01*
X011964Y010055D02*
X011889Y009980D01*
X011889Y009680D01*
X011964Y009605D01*
X012114Y009605D01*
X012189Y009680D01*
X012349Y009680D02*
X012349Y009755D01*
X012424Y009830D01*
X012574Y009830D01*
X012650Y009755D01*
X012650Y009680D01*
X012574Y009605D01*
X012424Y009605D01*
X012349Y009680D01*
X012424Y009830D02*
X012349Y009905D01*
X012349Y009980D01*
X012424Y010055D01*
X012574Y010055D01*
X012650Y009980D01*
X012650Y009905D01*
X012574Y009830D01*
X012810Y009905D02*
X012960Y010055D01*
X012960Y009605D01*
X012810Y009605D02*
X013110Y009605D01*
X013270Y009605D02*
X013270Y009680D01*
X013570Y009980D01*
X013570Y010055D01*
X013270Y010055D01*
X012189Y009980D02*
X012114Y010055D01*
X011964Y010055D01*
X011729Y009980D02*
X011729Y009830D01*
X011654Y009755D01*
X011429Y009755D01*
X011429Y009605D02*
X011429Y010055D01*
X011654Y010055D01*
X011729Y009980D01*
X011654Y008055D02*
X011429Y008055D01*
X011429Y007605D01*
X011429Y007755D02*
X011654Y007755D01*
X011729Y007830D01*
X011729Y007980D01*
X011654Y008055D01*
X011889Y007980D02*
X011889Y007680D01*
X011964Y007605D01*
X012114Y007605D01*
X012189Y007680D01*
X012349Y007680D02*
X012349Y007755D01*
X012424Y007830D01*
X012574Y007830D01*
X012650Y007755D01*
X012650Y007680D01*
X012574Y007605D01*
X012424Y007605D01*
X012349Y007680D01*
X012424Y007830D02*
X012349Y007905D01*
X012349Y007980D01*
X012424Y008055D01*
X012574Y008055D01*
X012650Y007980D01*
X012650Y007905D01*
X012574Y007830D01*
X012810Y007905D02*
X012960Y008055D01*
X012960Y007605D01*
X012810Y007605D02*
X013110Y007605D01*
X013270Y007605D02*
X013270Y007680D01*
X013570Y007980D01*
X013570Y008055D01*
X013270Y008055D01*
X012189Y007980D02*
X012114Y008055D01*
X011964Y008055D01*
X011889Y007980D01*
X011964Y006055D02*
X011889Y005980D01*
X011889Y005680D01*
X011964Y005605D01*
X012114Y005605D01*
X012189Y005680D01*
X012349Y005680D02*
X012349Y005755D01*
X012424Y005830D01*
X012574Y005830D01*
X012650Y005755D01*
X012650Y005680D01*
X012574Y005605D01*
X012424Y005605D01*
X012349Y005680D01*
X012424Y005830D02*
X012349Y005905D01*
X012349Y005980D01*
X012424Y006055D01*
X012574Y006055D01*
X012650Y005980D01*
X012650Y005905D01*
X012574Y005830D01*
X012810Y005905D02*
X012960Y006055D01*
X012960Y005605D01*
X012810Y005605D02*
X013110Y005605D01*
X013270Y005605D02*
X013270Y005680D01*
X013570Y005980D01*
X013570Y006055D01*
X013270Y006055D01*
X012189Y005980D02*
X012114Y006055D01*
X011964Y006055D01*
X011729Y005980D02*
X011729Y005830D01*
X011654Y005755D01*
X011429Y005755D01*
X011429Y005605D02*
X011429Y006055D01*
X011654Y006055D01*
X011729Y005980D01*
X011839Y003155D02*
X011839Y002930D01*
X011989Y003005D01*
X012065Y003005D01*
X012140Y002930D01*
X012140Y002780D01*
X012065Y002705D01*
X011914Y002705D01*
X011839Y002780D01*
X011839Y003155D02*
X012140Y003155D01*
X012300Y002930D02*
X012525Y002930D01*
X012600Y002855D01*
X012600Y002780D01*
X012525Y002705D01*
X012375Y002705D01*
X012300Y002780D01*
X012300Y002930D01*
X012450Y003080D01*
X012600Y003155D01*
X012760Y003080D02*
X012760Y002780D01*
X013060Y003080D01*
X013060Y002780D01*
X012985Y002705D01*
X012835Y002705D01*
X012760Y002780D01*
X012760Y003080D02*
X012835Y003155D01*
X012985Y003155D01*
X013060Y003080D01*
X013060Y002155D02*
X012760Y001855D01*
X012835Y001930D02*
X013060Y001705D01*
X012760Y001705D02*
X012760Y002155D01*
X012600Y002080D02*
X012525Y002155D01*
X012375Y002155D01*
X012300Y002080D01*
X012140Y002080D02*
X012140Y002005D01*
X012065Y001930D01*
X011914Y001930D01*
X011839Y002005D01*
X011839Y002080D01*
X011914Y002155D01*
X012065Y002155D01*
X012140Y002080D01*
X012065Y001930D02*
X012140Y001855D01*
X012140Y001780D01*
X012065Y001705D01*
X011914Y001705D01*
X011839Y001780D01*
X011839Y001855D01*
X011914Y001930D01*
X012300Y001705D02*
X012600Y002005D01*
X012600Y002080D01*
X012600Y001705D02*
X012300Y001705D01*
X009601Y002530D02*
X009443Y002530D01*
X009380Y003080D02*
X007731Y003080D01*
X007668Y002530D02*
X007510Y002530D01*
X008443Y002530D02*
X008668Y002530D01*
X009380Y003080D02*
X009415Y003032D01*
X009448Y002982D01*
X009479Y002930D01*
X009506Y002876D01*
X009530Y002821D01*
X009550Y002764D01*
X009568Y002707D01*
X009582Y002649D01*
X009593Y002590D01*
X009600Y002530D01*
X009604Y002468D01*
X009605Y002405D01*
X009601Y002343D01*
X009594Y002281D01*
X009584Y002220D01*
X009569Y002159D01*
X009551Y002099D01*
X009530Y002040D01*
X009505Y001983D01*
X009477Y001928D01*
X009446Y001874D01*
X009411Y001822D01*
X009373Y001772D01*
X009333Y001725D01*
X009289Y001680D01*
X009244Y001637D01*
X009195Y001598D01*
X009145Y001561D01*
X009092Y001528D01*
X009038Y001497D01*
X008981Y001470D01*
X008924Y001447D01*
X008865Y001427D01*
X008885Y001155D02*
X008660Y000930D01*
X008960Y000930D01*
X009120Y000780D02*
X009120Y000705D01*
X009120Y000780D02*
X009420Y001080D01*
X009420Y001155D01*
X009120Y001155D01*
X008885Y001155D02*
X008885Y000705D01*
X008500Y000780D02*
X008500Y000930D01*
X008424Y001005D01*
X008349Y001005D01*
X008199Y000930D01*
X008199Y001155D01*
X008500Y001155D01*
X008500Y000780D02*
X008424Y000705D01*
X008274Y000705D01*
X008199Y000780D01*
X008039Y000780D02*
X007964Y000705D01*
X007814Y000705D01*
X007739Y000780D01*
X007739Y001080D01*
X007814Y001155D01*
X007964Y001155D01*
X008039Y001080D01*
X007579Y001080D02*
X007579Y001005D01*
X007504Y000930D01*
X007279Y000930D01*
X007504Y000930D02*
X007579Y000855D01*
X007579Y000780D01*
X007504Y000705D01*
X007279Y000705D01*
X007279Y001155D01*
X007504Y001155D01*
X007579Y001080D01*
X008245Y001427D02*
X008185Y001447D01*
X008126Y001471D01*
X008069Y001499D01*
X008014Y001530D01*
X007960Y001565D01*
X007909Y001602D01*
X007860Y001643D01*
X007814Y001687D01*
X007770Y001733D01*
X007729Y001782D01*
X007691Y001833D01*
X007657Y001886D01*
X007625Y001942D01*
X007598Y001999D01*
X007573Y002058D01*
X007553Y002118D01*
X007535Y002179D01*
X007522Y002241D01*
X007513Y002304D01*
X007507Y002367D01*
X007505Y002431D01*
X007507Y002495D01*
X007513Y002558D01*
X007522Y002621D01*
X007536Y002683D01*
X007553Y002744D01*
X007574Y002804D01*
X007598Y002863D01*
X007626Y002920D01*
X007658Y002976D01*
X007693Y003029D01*
X007730Y003080D01*
X007666Y003705D02*
X007666Y004155D01*
X007440Y003930D01*
X007741Y003930D01*
X007901Y003855D02*
X008126Y004005D01*
X008285Y004155D02*
X008585Y004155D01*
X008585Y004080D01*
X008285Y003780D01*
X008285Y003705D01*
X008126Y003705D02*
X007901Y003855D01*
X007901Y003705D02*
X007901Y004155D01*
X005212Y005505D02*
X004912Y005505D01*
X004912Y005055D01*
X004752Y005055D02*
X004752Y005355D01*
X004912Y005280D02*
X005062Y005280D01*
X004752Y005055D02*
X004526Y005055D01*
X004451Y005130D01*
X004451Y005355D01*
X004291Y005430D02*
X003991Y005130D01*
X004066Y005055D01*
X004216Y005055D01*
X004291Y005130D01*
X004291Y005430D01*
X004216Y005505D01*
X004066Y005505D01*
X003991Y005430D01*
X003991Y005130D01*
X003831Y005055D02*
X003530Y005055D01*
X003681Y005055D02*
X003681Y005505D01*
X003530Y005355D01*
X005164Y008705D02*
X005315Y008705D01*
X005390Y008780D01*
X005390Y008855D01*
X005315Y008930D01*
X005089Y008930D01*
X005089Y008780D01*
X005164Y008705D01*
X005089Y008930D02*
X005239Y009080D01*
X005390Y009155D01*
X005550Y009080D02*
X005550Y009005D01*
X005625Y008930D01*
X005775Y008930D01*
X005850Y008855D01*
X005850Y008780D01*
X005775Y008705D01*
X005625Y008705D01*
X005550Y008780D01*
X005550Y008855D01*
X005625Y008930D01*
X005775Y008930D02*
X005850Y009005D01*
X005850Y009080D01*
X005775Y009155D01*
X005625Y009155D01*
X005550Y009080D01*
X006010Y009080D02*
X006085Y009155D01*
X006235Y009155D01*
X006310Y009080D01*
X006010Y008780D01*
X006085Y008705D01*
X006235Y008705D01*
X006310Y008780D01*
X006310Y009080D01*
X006010Y009080D02*
X006010Y008780D01*
X004030Y011984D02*
X004030Y012284D01*
X004030Y012134D02*
X003580Y012134D01*
X003730Y011984D01*
X003655Y012445D02*
X003580Y012520D01*
X003580Y012670D01*
X003655Y012745D01*
X003730Y012745D01*
X003805Y012670D01*
X003880Y012745D01*
X003955Y012745D01*
X004030Y012670D01*
X004030Y012520D01*
X003955Y012445D01*
X003805Y012595D02*
X003805Y012670D01*
X003030Y012620D02*
X002955Y012545D01*
X003030Y012620D02*
X003030Y012770D01*
X002955Y012845D01*
X002805Y012845D01*
X002730Y012770D01*
X002730Y012695D01*
X002805Y012545D01*
X002580Y012545D01*
X002580Y012845D01*
X002655Y012384D02*
X002580Y012309D01*
X002580Y012159D01*
X002655Y012084D01*
X002655Y012384D02*
X002730Y012384D01*
X003030Y012084D01*
X003030Y012384D01*
X002180Y011648D02*
X002105Y011573D01*
X001805Y011573D01*
X001880Y011498D02*
X001880Y011648D01*
X001880Y011340D02*
X001880Y011265D01*
X002030Y011114D01*
X002180Y011114D02*
X001880Y011114D01*
X001955Y010954D02*
X001880Y010879D01*
X001880Y010729D01*
X001955Y010654D01*
X002105Y010654D01*
X002180Y010729D01*
X002180Y010879D01*
X002105Y010954D01*
X001955Y010954D01*
X001955Y010494D02*
X002180Y010494D01*
X001955Y010494D02*
X001880Y010419D01*
X001880Y010269D01*
X001955Y010194D01*
X001880Y010033D02*
X001880Y009808D01*
X001955Y009733D01*
X002030Y009808D01*
X002030Y009958D01*
X002105Y010033D01*
X002180Y009958D01*
X002180Y009733D01*
X002180Y010194D02*
X001730Y010194D01*
X001430Y010194D02*
X001430Y010494D01*
X001355Y010654D02*
X001430Y010729D01*
X001430Y010879D01*
X001355Y010954D01*
X001205Y010954D01*
X001130Y010879D01*
X001130Y010804D01*
X001205Y010654D01*
X000980Y010654D01*
X000980Y010954D01*
X001055Y010494D02*
X000980Y010419D01*
X000980Y010269D01*
X001055Y010194D01*
X000980Y010033D02*
X001430Y010033D01*
X001430Y010194D02*
X001130Y010494D01*
X001055Y010494D01*
X001205Y010033D02*
X001205Y009733D01*
X001430Y009733D02*
X000980Y009733D01*
X005055Y019434D02*
X004980Y019509D01*
X004980Y019659D01*
X005055Y019734D01*
X005130Y019734D01*
X005430Y019434D01*
X005430Y019734D01*
X005355Y019895D02*
X005430Y019970D01*
X005430Y020120D01*
X005355Y020195D01*
X005280Y020195D01*
X005205Y020120D01*
X005205Y019895D01*
X005355Y019895D01*
X005205Y019895D02*
X005055Y020045D01*
X004980Y020195D01*
X015155Y009426D02*
X015080Y009351D01*
X015080Y009201D01*
X015155Y009126D01*
X015455Y009126D01*
X015155Y009426D01*
X015455Y009426D01*
X015530Y009351D01*
X015530Y009201D01*
X015455Y009126D01*
X015455Y008966D02*
X015155Y008966D01*
X015080Y008891D01*
X015080Y008740D01*
X015155Y008665D01*
X015230Y008665D01*
X015305Y008740D01*
X015305Y008966D01*
X015455Y008966D02*
X015530Y008891D01*
X015530Y008740D01*
X015455Y008665D01*
X015455Y008505D02*
X015530Y008430D01*
X015530Y008280D01*
X015455Y008205D01*
X015305Y008355D02*
X015305Y008430D01*
X015380Y008505D01*
X015455Y008505D01*
X015305Y008430D02*
X015230Y008505D01*
X015155Y008505D01*
X015080Y008430D01*
X015080Y008280D01*
X015155Y008205D01*
X016230Y005032D02*
X016230Y004805D01*
X016230Y004918D02*
X015890Y004918D01*
X016004Y004805D01*
X016001Y003905D02*
X016001Y003680D01*
X016151Y003755D01*
X016226Y003755D01*
X016302Y003680D01*
X016302Y003530D01*
X016226Y003455D01*
X016076Y003455D01*
X016001Y003530D01*
X015841Y003530D02*
X015766Y003455D01*
X015616Y003455D01*
X015541Y003530D01*
X015541Y003830D01*
X015616Y003905D01*
X015766Y003905D01*
X015841Y003830D01*
X016001Y003905D02*
X016302Y003905D01*
X016462Y003680D02*
X016762Y003680D01*
X016922Y003530D02*
X016922Y003455D01*
X016922Y003530D02*
X017222Y003830D01*
X017222Y003905D01*
X016922Y003905D01*
X016687Y003905D02*
X016687Y003455D01*
X016462Y003680D02*
X016687Y003905D01*
X016155Y003225D02*
X016155Y003067D01*
X016705Y003005D02*
X016705Y001355D01*
X016155Y001293D02*
X016155Y001135D01*
X016155Y002067D02*
X016155Y002293D01*
X016706Y001355D02*
X016658Y001320D01*
X016608Y001287D01*
X016556Y001256D01*
X016502Y001229D01*
X016447Y001205D01*
X016390Y001185D01*
X016333Y001167D01*
X016275Y001153D01*
X016216Y001142D01*
X016156Y001135D01*
X016155Y001135D02*
X016093Y001131D01*
X016030Y001130D01*
X015968Y001134D01*
X015906Y001141D01*
X015845Y001151D01*
X015784Y001166D01*
X015724Y001184D01*
X015665Y001205D01*
X015608Y001230D01*
X015553Y001258D01*
X015499Y001289D01*
X015447Y001324D01*
X015397Y001362D01*
X015350Y001402D01*
X015305Y001446D01*
X015262Y001491D01*
X015223Y001540D01*
X015186Y001590D01*
X015153Y001643D01*
X015122Y001697D01*
X015095Y001754D01*
X015072Y001811D01*
X015052Y001870D01*
X015052Y002490D02*
X015072Y002550D01*
X015096Y002609D01*
X015124Y002666D01*
X015155Y002721D01*
X015190Y002775D01*
X015227Y002826D01*
X015268Y002875D01*
X015312Y002921D01*
X015358Y002965D01*
X015407Y003006D01*
X015458Y003044D01*
X015511Y003078D01*
X015567Y003110D01*
X015624Y003137D01*
X015683Y003162D01*
X015743Y003182D01*
X015804Y003200D01*
X015866Y003213D01*
X015929Y003222D01*
X015992Y003228D01*
X016056Y003230D01*
X016120Y003228D01*
X016183Y003222D01*
X016246Y003213D01*
X016308Y003199D01*
X016369Y003182D01*
X016429Y003161D01*
X016488Y003137D01*
X016545Y003109D01*
X016601Y003077D01*
X016654Y003042D01*
X016705Y003005D01*
X015381Y003530D02*
X015306Y003455D01*
X015080Y003455D01*
X015080Y003905D01*
X015306Y003905D01*
X015381Y003830D01*
X015381Y003755D01*
X015306Y003680D01*
X015080Y003680D01*
X015306Y003680D02*
X015381Y003605D01*
X015381Y003530D01*
X018880Y003405D02*
X019330Y003405D01*
X019330Y003255D02*
X019330Y003555D01*
X019030Y003255D02*
X018880Y003405D01*
X019030Y004176D02*
X019255Y004176D01*
X019330Y004251D01*
X019330Y004476D01*
X019030Y004476D01*
X019105Y004636D02*
X019105Y004786D01*
X018880Y004636D02*
X018880Y004936D01*
X018914Y005205D02*
X018839Y005280D01*
X018914Y005205D02*
X019065Y005205D01*
X019140Y005280D01*
X019140Y005430D01*
X019065Y005505D01*
X018989Y005505D01*
X018839Y005430D01*
X018839Y005655D01*
X019140Y005655D01*
X019300Y005430D02*
X019450Y005580D01*
X019600Y005655D01*
X019760Y005580D02*
X019835Y005655D01*
X019985Y005655D01*
X020060Y005580D01*
X019760Y005280D01*
X019835Y005205D01*
X019985Y005205D01*
X020060Y005280D01*
X020060Y005580D01*
X019760Y005580D02*
X019760Y005280D01*
X019600Y005280D02*
X019600Y005355D01*
X019525Y005430D01*
X019300Y005430D01*
X019300Y005280D01*
X019375Y005205D01*
X019525Y005205D01*
X019600Y005280D01*
X019330Y004636D02*
X018880Y004636D01*
X020679Y002805D02*
X020904Y002805D01*
X020979Y002730D01*
X020979Y002580D01*
X020904Y002505D01*
X020679Y002505D01*
X020679Y002355D02*
X020679Y002805D01*
X021139Y002730D02*
X021139Y002430D01*
X021214Y002355D01*
X021364Y002355D01*
X021439Y002430D01*
X021599Y002430D02*
X021674Y002355D01*
X021824Y002355D01*
X021900Y002430D01*
X021900Y002505D01*
X021824Y002580D01*
X021674Y002580D01*
X021599Y002655D01*
X021599Y002730D01*
X021674Y002805D01*
X021824Y002805D01*
X021900Y002730D01*
X021900Y002655D01*
X021824Y002580D01*
X021674Y002580D02*
X021599Y002505D01*
X021599Y002430D01*
X021439Y002730D02*
X021364Y002805D01*
X021214Y002805D01*
X021139Y002730D01*
X022060Y002655D02*
X022210Y002805D01*
X022210Y002355D01*
X022060Y002355D02*
X022360Y002355D01*
X022520Y002580D02*
X022820Y002580D01*
X022745Y002355D02*
X022745Y002805D01*
X022520Y002580D01*
X021980Y005543D02*
X021980Y005843D01*
X021980Y005693D02*
X021530Y005693D01*
X021680Y005543D01*
X021530Y006003D02*
X021980Y006303D01*
X021980Y006003D02*
X021530Y006003D01*
X025430Y006455D02*
X025430Y006905D01*
X025581Y006755D01*
X025731Y006905D01*
X025731Y006455D01*
X025891Y006530D02*
X025966Y006455D01*
X026116Y006455D01*
X026191Y006530D01*
X026351Y006455D02*
X026652Y006455D01*
X026501Y006455D02*
X026501Y006905D01*
X026351Y006755D01*
X026191Y006830D02*
X026116Y006905D01*
X025966Y006905D01*
X025891Y006830D01*
X025891Y006530D01*
X026812Y006680D02*
X027112Y006680D01*
X027272Y006605D02*
X027347Y006680D01*
X027497Y006680D01*
X027572Y006605D01*
X027572Y006530D01*
X027497Y006455D01*
X027347Y006455D01*
X027272Y006530D01*
X027272Y006605D01*
X027347Y006680D02*
X027272Y006755D01*
X027272Y006830D01*
X027347Y006905D01*
X027497Y006905D01*
X027572Y006830D01*
X027572Y006755D01*
X027497Y006680D01*
X027732Y006755D02*
X027732Y006830D01*
X027808Y006905D01*
X027958Y006905D01*
X028033Y006830D01*
X028033Y006530D01*
X027958Y006455D01*
X027808Y006455D01*
X027732Y006530D01*
X027808Y006680D02*
X028033Y006680D01*
X027808Y006680D02*
X027732Y006755D01*
X028193Y006905D02*
X028418Y006905D01*
X028493Y006830D01*
X028493Y006530D01*
X028418Y006455D01*
X028193Y006455D01*
X028193Y006905D01*
X028653Y006905D02*
X028803Y006905D01*
X028728Y006905D02*
X028728Y006455D01*
X028653Y006455D02*
X028803Y006455D01*
X028960Y006455D02*
X028960Y006905D01*
X029185Y006905D01*
X029260Y006830D01*
X029260Y006680D01*
X029185Y006605D01*
X028960Y006605D01*
X027037Y006455D02*
X027037Y006905D01*
X026812Y006680D01*
X034580Y007280D02*
X034655Y007205D01*
X034580Y007280D02*
X034580Y007430D01*
X034655Y007505D01*
X034730Y007505D01*
X035030Y007205D01*
X035030Y007505D01*
X035580Y007355D02*
X036030Y007355D01*
X036030Y007205D02*
X036030Y007505D01*
X035730Y007205D02*
X035580Y007355D01*
X036580Y009805D02*
X036430Y009955D01*
X036880Y009955D01*
X036880Y009805D02*
X036880Y010105D01*
X036805Y010265D02*
X036505Y010566D01*
X036805Y010566D01*
X036880Y010491D01*
X036880Y010340D01*
X036805Y010265D01*
X036505Y010265D01*
X036430Y010340D01*
X036430Y010491D01*
X036505Y010566D01*
X024530Y018378D02*
X024530Y018528D01*
X024455Y018603D01*
X024380Y018603D01*
X024305Y018528D01*
X024305Y018303D01*
X024455Y018303D01*
X024530Y018378D01*
X024305Y018303D02*
X024155Y018453D01*
X024080Y018603D01*
X024080Y018763D02*
X024530Y019064D01*
X024080Y019064D01*
X024230Y019224D02*
X024080Y019374D01*
X024530Y019374D01*
X024530Y019224D02*
X024530Y019524D01*
X024455Y019684D02*
X024530Y019759D01*
X024530Y019909D01*
X024455Y019984D01*
X024380Y019984D01*
X024305Y019909D01*
X024305Y019834D01*
X024305Y019909D02*
X024230Y019984D01*
X024155Y019984D01*
X024080Y019909D01*
X024080Y019759D01*
X024155Y019684D01*
X024080Y020145D02*
X024080Y020445D01*
X024155Y020445D01*
X024455Y020145D01*
X024530Y020145D01*
X024530Y018763D02*
X024080Y018763D01*
D16*
X024185Y016730D02*
X024185Y016130D01*
X024435Y016130D02*
X024435Y016730D01*
X024105Y013560D02*
X023505Y013560D01*
X023505Y013310D02*
X024105Y013310D01*
X024755Y010310D02*
X025355Y010310D01*
X025355Y010060D02*
X024755Y010060D01*
X025755Y010060D02*
X026355Y010060D01*
X026355Y010310D02*
X025755Y010310D01*
X026755Y010300D02*
X027355Y010300D01*
X027355Y010050D02*
X026755Y010050D01*
X028755Y010060D02*
X029355Y010060D01*
X029355Y010310D02*
X028755Y010310D01*
X029755Y010300D02*
X030355Y010300D01*
X030355Y010050D02*
X029755Y010050D01*
X030755Y010060D02*
X031355Y010060D01*
X031355Y010310D02*
X030755Y010310D01*
X032005Y013310D02*
X032605Y013310D01*
X032605Y013560D02*
X032005Y013560D01*
X029425Y016130D02*
X029425Y016730D01*
X029175Y016730D02*
X029175Y016130D01*
X029185Y021630D02*
X029185Y022230D01*
X029435Y022230D02*
X029435Y021630D01*
X024435Y021630D02*
X024435Y022230D01*
X024185Y022230D02*
X024185Y021630D01*
X019425Y021630D02*
X019425Y022230D01*
X019175Y022230D02*
X019175Y021630D01*
X019175Y016730D02*
X019175Y016130D01*
X019425Y016130D02*
X019425Y016730D01*
X012925Y020880D02*
X012925Y021480D01*
X012675Y021480D02*
X012675Y020880D01*
X010435Y020880D02*
X010435Y021480D01*
X010185Y021480D02*
X010185Y020880D01*
X005855Y029560D02*
X005255Y029560D01*
X005255Y029810D02*
X005855Y029810D01*
X005855Y031550D02*
X005255Y031550D01*
X005255Y031800D02*
X005855Y031800D01*
X012675Y032630D02*
X012675Y033230D01*
X012925Y033230D02*
X012925Y032630D01*
X015935Y038130D02*
X015935Y038730D01*
X016185Y038730D02*
X016185Y038130D01*
X021175Y038130D02*
X021175Y038730D01*
X021425Y038730D02*
X021425Y038130D01*
X026425Y038130D02*
X026425Y038730D01*
X026675Y038730D02*
X026675Y038130D01*
X035185Y033230D02*
X035185Y032630D01*
X035435Y032630D02*
X035435Y033230D01*
X035435Y023480D02*
X035435Y022880D01*
X035185Y022880D02*
X035185Y023480D01*
X035185Y015480D02*
X035185Y014880D01*
X035435Y014880D02*
X035435Y015480D01*
X032605Y006810D02*
X032005Y006810D01*
X032005Y006560D02*
X032605Y006560D01*
X035185Y005730D02*
X035185Y005130D01*
X035435Y005130D02*
X035435Y005730D01*
X024105Y006550D02*
X023505Y006550D01*
X023505Y006800D02*
X024105Y006800D01*
X006675Y010880D02*
X006675Y011480D01*
X006425Y011480D02*
X006425Y010880D01*
X024185Y027380D02*
X024185Y027980D01*
X024435Y027980D02*
X024435Y027380D01*
D17*
X011939Y035430D02*
X011941Y035472D01*
X011947Y035514D01*
X011957Y035556D01*
X011970Y035596D01*
X011988Y035635D01*
X012009Y035672D01*
X012033Y035706D01*
X012061Y035739D01*
X012091Y035769D01*
X012124Y035795D01*
X012159Y035819D01*
X012197Y035839D01*
X012236Y035855D01*
X012276Y035868D01*
X012318Y035877D01*
X012360Y035882D01*
X012403Y035883D01*
X012445Y035880D01*
X012487Y035873D01*
X012528Y035862D01*
X012568Y035847D01*
X012606Y035829D01*
X012643Y035807D01*
X012677Y035782D01*
X012709Y035754D01*
X012737Y035723D01*
X012763Y035689D01*
X012786Y035653D01*
X012805Y035616D01*
X012821Y035576D01*
X012833Y035535D01*
X012841Y035494D01*
X012845Y035451D01*
X012845Y035409D01*
X012841Y035366D01*
X012833Y035325D01*
X012821Y035284D01*
X012805Y035244D01*
X012786Y035207D01*
X012763Y035171D01*
X012737Y035137D01*
X012709Y035106D01*
X012677Y035078D01*
X012643Y035053D01*
X012606Y035031D01*
X012568Y035013D01*
X012528Y034998D01*
X012487Y034987D01*
X012445Y034980D01*
X012403Y034977D01*
X012360Y034978D01*
X012318Y034983D01*
X012276Y034992D01*
X012236Y035005D01*
X012197Y035021D01*
X012159Y035041D01*
X012124Y035065D01*
X012091Y035091D01*
X012061Y035121D01*
X012033Y035154D01*
X012009Y035188D01*
X011988Y035225D01*
X011970Y035264D01*
X011957Y035304D01*
X011947Y035346D01*
X011941Y035388D01*
X011939Y035430D01*
X006766Y035430D02*
X006768Y035472D01*
X006774Y035514D01*
X006784Y035556D01*
X006797Y035596D01*
X006815Y035635D01*
X006836Y035672D01*
X006860Y035706D01*
X006888Y035739D01*
X006918Y035769D01*
X006951Y035795D01*
X006986Y035819D01*
X007024Y035839D01*
X007063Y035855D01*
X007103Y035868D01*
X007145Y035877D01*
X007187Y035882D01*
X007230Y035883D01*
X007272Y035880D01*
X007314Y035873D01*
X007355Y035862D01*
X007395Y035847D01*
X007433Y035829D01*
X007470Y035807D01*
X007504Y035782D01*
X007536Y035754D01*
X007564Y035723D01*
X007590Y035689D01*
X007613Y035653D01*
X007632Y035616D01*
X007648Y035576D01*
X007660Y035535D01*
X007668Y035494D01*
X007672Y035451D01*
X007672Y035409D01*
X007668Y035366D01*
X007660Y035325D01*
X007648Y035284D01*
X007632Y035244D01*
X007613Y035207D01*
X007590Y035171D01*
X007564Y035137D01*
X007536Y035106D01*
X007504Y035078D01*
X007470Y035053D01*
X007433Y035031D01*
X007395Y035013D01*
X007355Y034998D01*
X007314Y034987D01*
X007272Y034980D01*
X007230Y034977D01*
X007187Y034978D01*
X007145Y034983D01*
X007103Y034992D01*
X007063Y035005D01*
X007024Y035021D01*
X006986Y035041D01*
X006951Y035065D01*
X006918Y035091D01*
X006888Y035121D01*
X006860Y035154D01*
X006836Y035188D01*
X006815Y035225D01*
X006797Y035264D01*
X006784Y035304D01*
X006774Y035346D01*
X006768Y035388D01*
X006766Y035430D01*
X002431Y036794D02*
X002433Y036844D01*
X002439Y036894D01*
X002449Y036943D01*
X002463Y036991D01*
X002480Y037038D01*
X002501Y037083D01*
X002526Y037127D01*
X002554Y037168D01*
X002586Y037207D01*
X002620Y037244D01*
X002657Y037278D01*
X002697Y037308D01*
X002739Y037335D01*
X002783Y037359D01*
X002829Y037380D01*
X002876Y037396D01*
X002924Y037409D01*
X002974Y037418D01*
X003023Y037423D01*
X003074Y037424D01*
X003124Y037421D01*
X003173Y037414D01*
X003222Y037403D01*
X003270Y037388D01*
X003316Y037370D01*
X003361Y037348D01*
X003404Y037322D01*
X003445Y037293D01*
X003484Y037261D01*
X003520Y037226D01*
X003552Y037188D01*
X003582Y037148D01*
X003609Y037105D01*
X003632Y037061D01*
X003651Y037015D01*
X003667Y036967D01*
X003679Y036918D01*
X003687Y036869D01*
X003691Y036819D01*
X003691Y036769D01*
X003687Y036719D01*
X003679Y036670D01*
X003667Y036621D01*
X003651Y036573D01*
X003632Y036527D01*
X003609Y036483D01*
X003582Y036440D01*
X003552Y036400D01*
X003520Y036362D01*
X003484Y036327D01*
X003445Y036295D01*
X003404Y036266D01*
X003361Y036240D01*
X003316Y036218D01*
X003270Y036200D01*
X003222Y036185D01*
X003173Y036174D01*
X003124Y036167D01*
X003074Y036164D01*
X003023Y036165D01*
X002974Y036170D01*
X002924Y036179D01*
X002876Y036192D01*
X002829Y036208D01*
X002783Y036229D01*
X002739Y036253D01*
X002697Y036280D01*
X002657Y036310D01*
X002620Y036344D01*
X002586Y036381D01*
X002554Y036420D01*
X002526Y036461D01*
X002501Y036505D01*
X002480Y036550D01*
X002463Y036597D01*
X002449Y036645D01*
X002439Y036694D01*
X002433Y036744D01*
X002431Y036794D01*
X002431Y002936D02*
X002433Y002986D01*
X002439Y003036D01*
X002449Y003085D01*
X002463Y003133D01*
X002480Y003180D01*
X002501Y003225D01*
X002526Y003269D01*
X002554Y003310D01*
X002586Y003349D01*
X002620Y003386D01*
X002657Y003420D01*
X002697Y003450D01*
X002739Y003477D01*
X002783Y003501D01*
X002829Y003522D01*
X002876Y003538D01*
X002924Y003551D01*
X002974Y003560D01*
X003023Y003565D01*
X003074Y003566D01*
X003124Y003563D01*
X003173Y003556D01*
X003222Y003545D01*
X003270Y003530D01*
X003316Y003512D01*
X003361Y003490D01*
X003404Y003464D01*
X003445Y003435D01*
X003484Y003403D01*
X003520Y003368D01*
X003552Y003330D01*
X003582Y003290D01*
X003609Y003247D01*
X003632Y003203D01*
X003651Y003157D01*
X003667Y003109D01*
X003679Y003060D01*
X003687Y003011D01*
X003691Y002961D01*
X003691Y002911D01*
X003687Y002861D01*
X003679Y002812D01*
X003667Y002763D01*
X003651Y002715D01*
X003632Y002669D01*
X003609Y002625D01*
X003582Y002582D01*
X003552Y002542D01*
X003520Y002504D01*
X003484Y002469D01*
X003445Y002437D01*
X003404Y002408D01*
X003361Y002382D01*
X003316Y002360D01*
X003270Y002342D01*
X003222Y002327D01*
X003173Y002316D01*
X003124Y002309D01*
X003074Y002306D01*
X003023Y002307D01*
X002974Y002312D01*
X002924Y002321D01*
X002876Y002334D01*
X002829Y002350D01*
X002783Y002371D01*
X002739Y002395D01*
X002697Y002422D01*
X002657Y002452D01*
X002620Y002486D01*
X002586Y002523D01*
X002554Y002562D01*
X002526Y002603D01*
X002501Y002647D01*
X002480Y002692D01*
X002463Y002739D01*
X002449Y002787D01*
X002439Y002836D01*
X002433Y002886D01*
X002431Y002936D01*
X036290Y002936D02*
X036292Y002986D01*
X036298Y003036D01*
X036308Y003085D01*
X036322Y003133D01*
X036339Y003180D01*
X036360Y003225D01*
X036385Y003269D01*
X036413Y003310D01*
X036445Y003349D01*
X036479Y003386D01*
X036516Y003420D01*
X036556Y003450D01*
X036598Y003477D01*
X036642Y003501D01*
X036688Y003522D01*
X036735Y003538D01*
X036783Y003551D01*
X036833Y003560D01*
X036882Y003565D01*
X036933Y003566D01*
X036983Y003563D01*
X037032Y003556D01*
X037081Y003545D01*
X037129Y003530D01*
X037175Y003512D01*
X037220Y003490D01*
X037263Y003464D01*
X037304Y003435D01*
X037343Y003403D01*
X037379Y003368D01*
X037411Y003330D01*
X037441Y003290D01*
X037468Y003247D01*
X037491Y003203D01*
X037510Y003157D01*
X037526Y003109D01*
X037538Y003060D01*
X037546Y003011D01*
X037550Y002961D01*
X037550Y002911D01*
X037546Y002861D01*
X037538Y002812D01*
X037526Y002763D01*
X037510Y002715D01*
X037491Y002669D01*
X037468Y002625D01*
X037441Y002582D01*
X037411Y002542D01*
X037379Y002504D01*
X037343Y002469D01*
X037304Y002437D01*
X037263Y002408D01*
X037220Y002382D01*
X037175Y002360D01*
X037129Y002342D01*
X037081Y002327D01*
X037032Y002316D01*
X036983Y002309D01*
X036933Y002306D01*
X036882Y002307D01*
X036833Y002312D01*
X036783Y002321D01*
X036735Y002334D01*
X036688Y002350D01*
X036642Y002371D01*
X036598Y002395D01*
X036556Y002422D01*
X036516Y002452D01*
X036479Y002486D01*
X036445Y002523D01*
X036413Y002562D01*
X036385Y002603D01*
X036360Y002647D01*
X036339Y002692D01*
X036322Y002739D01*
X036308Y002787D01*
X036298Y002836D01*
X036292Y002886D01*
X036290Y002936D01*
X036290Y036794D02*
X036292Y036844D01*
X036298Y036894D01*
X036308Y036943D01*
X036322Y036991D01*
X036339Y037038D01*
X036360Y037083D01*
X036385Y037127D01*
X036413Y037168D01*
X036445Y037207D01*
X036479Y037244D01*
X036516Y037278D01*
X036556Y037308D01*
X036598Y037335D01*
X036642Y037359D01*
X036688Y037380D01*
X036735Y037396D01*
X036783Y037409D01*
X036833Y037418D01*
X036882Y037423D01*
X036933Y037424D01*
X036983Y037421D01*
X037032Y037414D01*
X037081Y037403D01*
X037129Y037388D01*
X037175Y037370D01*
X037220Y037348D01*
X037263Y037322D01*
X037304Y037293D01*
X037343Y037261D01*
X037379Y037226D01*
X037411Y037188D01*
X037441Y037148D01*
X037468Y037105D01*
X037491Y037061D01*
X037510Y037015D01*
X037526Y036967D01*
X037538Y036918D01*
X037546Y036869D01*
X037550Y036819D01*
X037550Y036769D01*
X037546Y036719D01*
X037538Y036670D01*
X037526Y036621D01*
X037510Y036573D01*
X037491Y036527D01*
X037468Y036483D01*
X037441Y036440D01*
X037411Y036400D01*
X037379Y036362D01*
X037343Y036327D01*
X037304Y036295D01*
X037263Y036266D01*
X037220Y036240D01*
X037175Y036218D01*
X037129Y036200D01*
X037081Y036185D01*
X037032Y036174D01*
X036983Y036167D01*
X036933Y036164D01*
X036882Y036165D01*
X036833Y036170D01*
X036783Y036179D01*
X036735Y036192D01*
X036688Y036208D01*
X036642Y036229D01*
X036598Y036253D01*
X036556Y036280D01*
X036516Y036310D01*
X036479Y036344D01*
X036445Y036381D01*
X036413Y036420D01*
X036385Y036461D01*
X036360Y036505D01*
X036339Y036550D01*
X036322Y036597D01*
X036308Y036645D01*
X036298Y036694D01*
X036292Y036744D01*
X036290Y036794D01*
D18*
X006975Y008930D03*
X004135Y008930D03*
X006885Y003930D03*
X009725Y003930D03*
X010885Y002930D03*
X010885Y001930D03*
X013725Y001930D03*
X013725Y002930D03*
X017885Y005430D03*
X020725Y005430D03*
D19*
X033355Y019180D02*
X033353Y019234D01*
X033348Y019288D01*
X033339Y019341D01*
X033326Y019394D01*
X033310Y019445D01*
X033290Y019495D01*
X033267Y019544D01*
X033241Y019592D01*
X033212Y019637D01*
X033179Y019680D01*
X033144Y019721D01*
X033106Y019760D01*
X033066Y019796D01*
X033023Y019829D01*
X032978Y019859D01*
X032931Y019886D01*
X032158Y019875D02*
X032110Y019845D01*
X032065Y019812D01*
X032022Y019776D01*
X031981Y019738D01*
X031944Y019696D01*
X031909Y019652D01*
X031878Y019606D01*
X031849Y019557D01*
X031825Y019507D01*
X031804Y019455D01*
X031786Y019401D01*
X031773Y019347D01*
X031763Y019292D01*
X031757Y019236D01*
X031755Y019180D01*
X031757Y019127D01*
X031762Y019073D01*
X031771Y019021D01*
X031783Y018969D01*
X031799Y018918D01*
X031818Y018868D01*
X031841Y018819D01*
X031867Y018772D01*
X031895Y018727D01*
X031927Y018684D01*
X031961Y018644D01*
X031999Y018605D01*
X032038Y018569D01*
X033067Y018565D02*
X033107Y018601D01*
X033145Y018640D01*
X033180Y018681D01*
X033212Y018724D01*
X033242Y018769D01*
X033268Y018816D01*
X033290Y018865D01*
X033310Y018916D01*
X033326Y018967D01*
X033339Y019019D01*
X033348Y019073D01*
X033353Y019126D01*
X033355Y019180D01*
X037985Y015231D02*
X037985Y005129D01*
X039126Y005129D01*
X039126Y015231D01*
X037985Y015231D01*
X037985Y023129D02*
X039126Y023129D01*
X039126Y033231D01*
X037985Y033231D01*
X037985Y023129D01*
X035107Y037859D02*
X033004Y037859D01*
X033004Y039001D01*
X035107Y039001D01*
X035107Y037859D01*
X012719Y039442D02*
X012719Y033812D01*
X006892Y033812D01*
X006892Y039442D01*
X012719Y039442D01*
X003255Y007180D02*
X003257Y007126D01*
X003262Y007072D01*
X003271Y007019D01*
X003284Y006966D01*
X003300Y006915D01*
X003320Y006865D01*
X003343Y006816D01*
X003369Y006768D01*
X003398Y006723D01*
X003431Y006680D01*
X003466Y006639D01*
X003504Y006600D01*
X003544Y006564D01*
X003587Y006531D01*
X003632Y006501D01*
X003679Y006474D01*
X004452Y006485D02*
X004500Y006515D01*
X004545Y006548D01*
X004588Y006584D01*
X004629Y006622D01*
X004666Y006664D01*
X004701Y006708D01*
X004732Y006754D01*
X004761Y006803D01*
X004785Y006853D01*
X004806Y006905D01*
X004824Y006959D01*
X004837Y007013D01*
X004847Y007068D01*
X004853Y007124D01*
X004855Y007180D01*
X004853Y007233D01*
X004848Y007287D01*
X004839Y007339D01*
X004827Y007391D01*
X004811Y007442D01*
X004792Y007492D01*
X004769Y007541D01*
X004743Y007588D01*
X004715Y007633D01*
X004683Y007676D01*
X004649Y007716D01*
X004611Y007755D01*
X004572Y007791D01*
X003543Y007795D02*
X003503Y007759D01*
X003465Y007720D01*
X003430Y007679D01*
X003398Y007636D01*
X003368Y007591D01*
X003342Y007544D01*
X003320Y007495D01*
X003300Y007444D01*
X003284Y007393D01*
X003271Y007341D01*
X003262Y007287D01*
X003257Y007234D01*
X003255Y007180D01*
X005505Y002180D02*
X005507Y002126D01*
X005512Y002072D01*
X005521Y002019D01*
X005534Y001966D01*
X005550Y001915D01*
X005570Y001865D01*
X005593Y001816D01*
X005619Y001768D01*
X005648Y001723D01*
X005681Y001680D01*
X005716Y001639D01*
X005754Y001600D01*
X005794Y001564D01*
X005837Y001531D01*
X005882Y001501D01*
X005929Y001474D01*
X006702Y001485D02*
X006750Y001515D01*
X006795Y001548D01*
X006838Y001584D01*
X006879Y001622D01*
X006916Y001664D01*
X006951Y001708D01*
X006982Y001754D01*
X007011Y001803D01*
X007035Y001853D01*
X007056Y001905D01*
X007074Y001959D01*
X007087Y002013D01*
X007097Y002068D01*
X007103Y002124D01*
X007105Y002180D01*
X007103Y002233D01*
X007098Y002287D01*
X007089Y002339D01*
X007077Y002391D01*
X007061Y002442D01*
X007042Y002492D01*
X007019Y002541D01*
X006993Y002588D01*
X006965Y002633D01*
X006933Y002676D01*
X006899Y002716D01*
X006861Y002755D01*
X006822Y002791D01*
X005793Y002795D02*
X005753Y002759D01*
X005715Y002720D01*
X005680Y002679D01*
X005648Y002636D01*
X005618Y002591D01*
X005592Y002544D01*
X005570Y002495D01*
X005550Y002444D01*
X005534Y002393D01*
X005521Y002341D01*
X005512Y002287D01*
X005507Y002234D01*
X005505Y002180D01*
D20*
X034055Y017760D03*
X034055Y020600D03*
X032305Y035010D03*
X032305Y037850D03*
D21*
X030935Y037203D02*
X030575Y037203D01*
X030755Y037023D01*
X030755Y037263D01*
X030935Y036895D02*
X030935Y036655D01*
X030935Y036775D02*
X030575Y036775D01*
X030695Y036655D01*
X030695Y036527D02*
X030635Y036527D01*
X030575Y036467D01*
X030575Y036347D01*
X030635Y036287D01*
X030695Y036287D01*
X030755Y036347D01*
X030755Y036467D01*
X030815Y036527D01*
X030875Y036527D01*
X030935Y036467D01*
X030935Y036347D01*
X030875Y036287D01*
X030815Y036287D01*
X030755Y036347D01*
X030755Y036467D02*
X030695Y036527D01*
X030635Y036159D02*
X030575Y036098D01*
X030575Y035978D01*
X030635Y035918D01*
X030875Y035918D01*
X030935Y035978D01*
X030935Y036098D01*
X030875Y036159D01*
X030755Y035790D02*
X030815Y035730D01*
X030815Y035550D01*
X030935Y035550D02*
X030575Y035550D01*
X030575Y035730D01*
X030635Y035790D01*
X030755Y035790D01*
X030675Y031897D02*
X031135Y031897D01*
X030675Y031590D01*
X031135Y031590D01*
X031059Y031436D02*
X031135Y031359D01*
X031135Y031206D01*
X031059Y031129D01*
X030752Y031436D01*
X031059Y031436D01*
X031059Y031129D02*
X030752Y031129D01*
X030675Y031206D01*
X030675Y031359D01*
X030752Y031436D01*
X030905Y030976D02*
X030905Y030669D01*
X030675Y030899D01*
X031135Y030899D01*
X031135Y030515D02*
X031135Y030208D01*
X030829Y030515D01*
X030752Y030515D01*
X030675Y030439D01*
X030675Y030285D01*
X030752Y030208D01*
X030752Y030055D02*
X030675Y029978D01*
X030675Y029825D01*
X030752Y029748D01*
X031059Y029748D01*
X031135Y029825D01*
X031135Y029978D01*
X031059Y030055D01*
X031135Y029595D02*
X030675Y029595D01*
X030905Y029595D02*
X030905Y029288D01*
X030905Y029134D02*
X030905Y028827D01*
X030675Y029057D01*
X031135Y029057D01*
X031135Y029288D02*
X030675Y029288D01*
X030675Y028674D02*
X030752Y028674D01*
X031059Y028367D01*
X031135Y028367D01*
X030675Y028367D02*
X030675Y028674D01*
X036055Y019768D02*
X036055Y019461D01*
X036132Y019307D02*
X035825Y019307D01*
X035825Y019000D02*
X036132Y019000D01*
X036285Y019154D01*
X036132Y019307D01*
X036209Y019614D02*
X035902Y019614D01*
X035825Y018847D02*
X035825Y018540D01*
X036055Y018540D01*
X035979Y018693D01*
X035979Y018770D01*
X036055Y018847D01*
X036209Y018847D01*
X036285Y018770D01*
X036285Y018617D01*
X036209Y018540D01*
X036055Y018386D02*
X036055Y018079D01*
X013135Y027117D02*
X013059Y027117D01*
X012752Y027424D01*
X012675Y027424D01*
X012675Y027117D01*
X012905Y027577D02*
X012675Y027807D01*
X013135Y027807D01*
X013135Y028038D02*
X012675Y028038D01*
X012905Y028038D02*
X012905Y028345D01*
X012752Y028498D02*
X013059Y028498D01*
X013135Y028575D01*
X013135Y028728D01*
X013059Y028805D01*
X013135Y028958D02*
X012829Y029265D01*
X012752Y029265D01*
X012675Y029189D01*
X012675Y029035D01*
X012752Y028958D01*
X012752Y028805D02*
X012675Y028728D01*
X012675Y028575D01*
X012752Y028498D01*
X012675Y028345D02*
X013135Y028345D01*
X012905Y027884D02*
X012905Y027577D01*
X013135Y028958D02*
X013135Y029265D01*
X012905Y029419D02*
X012675Y029649D01*
X013135Y029649D01*
X012905Y029726D02*
X012905Y029419D01*
X012752Y029879D02*
X012675Y029956D01*
X012675Y030109D01*
X012752Y030186D01*
X013059Y029879D01*
X013135Y029956D01*
X013135Y030109D01*
X013059Y030186D01*
X012752Y030186D01*
X012675Y030340D02*
X013135Y030647D01*
X012675Y030647D01*
X012675Y030340D02*
X013135Y030340D01*
X013059Y029879D02*
X012752Y029879D01*
X001785Y028797D02*
X001325Y028797D01*
X001479Y028643D01*
X001325Y028490D01*
X001785Y028490D01*
D22*
X008266Y036078D02*
X008366Y036078D01*
X008316Y036153D02*
X008266Y036153D01*
X008266Y036228D02*
X008266Y036078D01*
X008266Y036228D02*
X008366Y036228D01*
X008560Y036228D02*
X008560Y036078D01*
X008660Y036078D01*
X008855Y036078D02*
X008855Y036228D01*
X008955Y036228D01*
X008905Y036153D02*
X008855Y036153D01*
X008855Y036078D02*
X008955Y036078D01*
X009150Y036103D02*
X009175Y036078D01*
X009225Y036078D01*
X009250Y036103D01*
X009250Y036203D02*
X009225Y036228D01*
X009175Y036228D01*
X009150Y036203D01*
X009150Y036103D01*
X009444Y036228D02*
X009544Y036228D01*
X009494Y036228D02*
X009494Y036078D01*
X009739Y036078D02*
X009739Y036228D01*
X009814Y036228D01*
X009839Y036203D01*
X009839Y036153D01*
X009814Y036128D01*
X009739Y036128D01*
X009789Y036128D02*
X009839Y036078D01*
X010034Y036103D02*
X010034Y036203D01*
X010059Y036228D01*
X010109Y036228D01*
X010134Y036203D01*
X010134Y036103D01*
X010109Y036078D01*
X010059Y036078D01*
X010034Y036103D01*
X010328Y036078D02*
X010328Y036228D01*
X010428Y036078D01*
X010428Y036228D01*
X010623Y036228D02*
X010673Y036228D01*
X010648Y036228D02*
X010648Y036078D01*
X010623Y036078D02*
X010673Y036078D01*
X010869Y036103D02*
X010869Y036203D01*
X010894Y036228D01*
X010944Y036228D01*
X010969Y036203D01*
X010969Y036103D02*
X010944Y036078D01*
X010894Y036078D01*
X010869Y036103D01*
X011163Y036103D02*
X011188Y036078D01*
X011238Y036078D01*
X011263Y036103D01*
X011263Y036128D01*
X011238Y036153D01*
X011188Y036153D01*
X011163Y036178D01*
X011163Y036203D01*
X011188Y036228D01*
X011238Y036228D01*
X011263Y036203D01*
D23*
X035305Y019830D03*
X022555Y008080D03*
D24*
X022555Y008705D03*
X022555Y006155D03*
X035305Y017905D03*
X035305Y020455D03*
D25*
X000585Y010755D03*
D26*
X000630Y029210D03*
D27*
X000455Y019930D03*
D28*
X002030Y019930D03*
X002030Y021020D03*
X002030Y022100D03*
X002030Y023190D03*
X002030Y024280D03*
X002030Y025360D03*
X002030Y026450D03*
X002030Y018840D03*
X002030Y017760D03*
X002030Y016670D03*
X002030Y015580D03*
X002030Y014500D03*
X002030Y013410D03*
D29*
X001530Y013950D03*
X001530Y015040D03*
X001530Y016130D03*
X001530Y017210D03*
X001530Y018300D03*
X001530Y019390D03*
X001530Y020470D03*
X001530Y021560D03*
X001530Y022650D03*
X001530Y023730D03*
X001530Y024820D03*
X001530Y025910D03*
D30*
X006755Y006180D03*
M02*
