%
M48
M72
T01C0.0315
T02C0.0320
T03C0.0360
T04C0.0374
T05C0.0400
T06C0.0472
T07C0.0512
T08C0.0906
T09C0.1260
T10C0.1300
%
T01
X6805Y29180
X6805Y30180
X6805Y31180
X6805Y32180
T02
X5555Y32180
X5555Y31180
X5555Y30180
X5555Y29180
X2805Y31980
X2805Y33380
X9555Y30430
X9555Y29430
X9555Y28430
X9555Y27430
X9555Y26430
X9555Y25430
X9555Y24430
X9555Y23430
X9555Y22430
X9805Y21180
X10805Y21180
X11055Y19930
X11055Y18930
X11055Y17930
X11055Y16930
X11055Y15930
X11055Y14930
X11055Y13930
X11055Y12930
X11055Y11930
X11055Y10930
X11055Y9930
X11055Y8930
X11055Y7930
X11055Y6930
X11055Y5930
X11055Y4930
X10305Y3930
X10305Y2930
X10305Y1930
X9055Y2430
X8555Y1680
X8055Y2430
X6305Y2680
X6305Y1680
X6305Y3930
X5555Y6180
X4055Y6680
X4055Y7680
X3555Y8930
X6055Y11180
X7055Y11180
X7555Y8930
X7555Y6180
X14055Y5930
X14055Y4930
X14055Y6930
X14055Y7930
X14055Y8930
X14055Y9930
X14055Y10930
X14055Y11930
X14055Y12930
X14055Y13930
X14055Y14930
X14055Y15930
X14055Y16930
X14055Y17930
X14055Y18930
X14055Y19930
X13305Y21180
X12305Y21180
X11305Y22430
X11305Y23430
X11305Y24430
X11305Y25430
X11305Y26430
X11305Y27430
X11305Y28430
X11305Y29430
X11305Y30430
X11305Y31430
X12305Y32930
X13305Y32930
X14555Y34180
X14555Y35180
X14555Y36180
X14555Y37180
X15555Y38430
X16555Y38430
X17555Y37180
X17555Y36180
X17555Y35180
X17555Y34180
X19805Y34180
X19805Y35180
X19805Y36180
X19805Y37180
X20805Y38430
X21805Y38430
X22805Y37180
X22805Y36180
X22805Y35180
X22805Y34180
X25055Y34180
X25055Y35180
X25055Y36180
X25055Y37180
X26055Y38430
X27055Y38430
X28055Y37180
X28055Y36180
X28055Y35180
X28055Y34180
X29305Y32680
X29305Y31680
X29305Y30680
X29305Y29680
X29305Y28680
X29305Y27680
X29305Y26680
X29305Y25680
X29305Y24680
X29305Y23680
X27805Y23680
X27805Y24680
X27805Y25680
X27805Y26680
X27805Y27680
X27805Y28680
X27805Y29680
X27805Y30680
X27805Y31680
X25805Y31680
X25805Y30680
X25805Y29680
X25805Y28680
X24805Y27680
X23805Y27680
X22805Y28680
X22805Y29680
X22805Y30680
X22805Y31680
X20805Y31680
X20805Y30680
X20805Y29680
X20805Y28680
X20805Y27680
X20805Y26680
X20805Y25680
X20805Y24680
X22805Y24430
X22805Y25430
X22805Y26430
X25805Y26430
X25805Y25430
X25805Y24430
X25805Y23430
X24805Y21930
X23805Y21930
X22805Y20680
X22805Y19680
X22805Y18680
X22805Y17680
X23805Y16430
X24805Y16430
X25805Y17680
X25805Y18680
X25805Y19680
X25805Y20680
X27805Y20680
X27805Y19680
X27805Y18680
X27805Y17680
X28805Y16430
X29805Y16430
X30805Y17680
X30805Y18680
X30805Y19680
X30805Y20680
X29805Y21930
X28805Y21930
X32305Y23680
X32305Y24680
X32305Y25680
X32305Y26680
X32305Y27680
X32305Y28680
X32305Y29680
X32305Y30680
X32305Y31680
X32305Y32680
X32305Y34430
X31055Y34930
X30055Y34930
X30055Y37930
X31055Y37930
X32305Y38430
X34805Y32930
X35805Y32930
X35805Y23180
X34805Y23180
X35305Y21180
X34055Y21180
X32555Y19680
X32555Y18680
X34055Y17180
X35305Y17180
X34805Y15180
X35805Y15180
X32305Y13930
X32305Y12930
X31055Y11930
X30055Y11930
X29055Y11930
X28055Y11930
X27055Y11930
X26055Y11930
X25055Y11930
X23805Y12930
X23805Y13930
X25055Y14930
X26055Y14930
X27055Y14930
X28055Y14930
X29055Y14930
X30055Y14930
X31055Y14930
X31055Y10680
X30055Y10680
X30055Y9680
X31055Y9680
X31055Y8180
X30055Y8180
X29055Y8180
X28055Y8180
X27055Y8180
X26055Y8180
X25055Y8180
X23805Y7180
X23805Y6180
X22555Y5430
X21305Y5430
X20805Y6680
X20805Y7680
X20805Y8680
X20805Y9680
X20805Y10680
X20805Y11680
X20805Y12680
X20805Y13680
X19805Y16430
X18805Y16430
X17805Y17680
X17805Y18680
X17805Y19680
X17805Y20680
X18805Y21930
X19805Y21930
X20805Y20680
X20805Y19680
X20805Y18680
X20805Y17680
X17055Y15930
X16055Y15930
X16055Y13680
X16055Y12680
X16055Y11680
X16055Y10680
X16055Y9680
X16055Y8680
X16055Y7680
X16055Y6680
X16055Y5680
X17305Y5430
X17805Y6680
X17805Y7680
X17805Y8680
X17805Y9680
X17805Y10680
X17805Y11680
X17805Y12680
X17805Y13680
X22555Y9430
X25055Y9680
X25055Y10680
X26055Y10680
X26055Y9680
X27055Y9680
X27055Y10680
X29055Y10680
X29055Y9680
X32305Y7180
X32305Y6180
X31055Y5180
X30055Y5180
X29055Y5180
X28055Y5180
X27055Y5180
X26055Y5180
X25055Y5180
X24805Y2930
X24805Y1430
X23305Y1680
X23305Y2680
X20305Y2680
X20305Y1680
X18305Y1680
X18305Y2680
X16055Y2680
X15305Y2180
X16055Y1680
X14305Y1930
X14305Y2930
X28805Y2930
X28805Y1430
X34805Y5430
X35805Y5430
X22805Y23430
X17805Y24680
X17805Y25680
X17805Y26680
X17805Y27680
X17805Y28680
X17805Y29680
X17805Y30680
X17805Y31680
X16055Y31180
X16055Y32180
X14305Y31430
X14305Y30430
X14305Y29430
X14305Y28430
X14305Y27430
X14305Y26430
X14305Y25430
X14305Y24430
X14305Y23430
X14305Y22430
X16055Y24180
X16055Y25180
X16055Y26180
X16055Y27180
X16055Y28180
X16055Y29180
X16055Y30180
T03
X7055Y25930
X6055Y25930
X6055Y24930
X6055Y23930
X7055Y23930
X7055Y24930
X7055Y22930
X6055Y22930
X6055Y21930
X7055Y21930
X7055Y20930
X6055Y20930
X6055Y19930
X7055Y19930
X7055Y18930
X6055Y18930
X6055Y17930
X7055Y17930
X7055Y16930
X6055Y16930
X6055Y15930
X7055Y15930
X7055Y14930
X6055Y14930
X6055Y13930
X7055Y13930
X34805Y12180
X34805Y11180
X35805Y11180
X35805Y12180
X35805Y10180
X34805Y10180
X34805Y9180
X35805Y9180
X35805Y8180
X34805Y8180
X34805Y26180
X35805Y26180
X35805Y27180
X34805Y27180
X34805Y28180
X35805Y28180
X35805Y29180
X34805Y29180
X34805Y30180
X35805Y30180
T04
X11183Y34363
X10199Y34363
X9412Y34363
X8428Y34363
T05
X3805Y26450
X2805Y25910
X3805Y25360
X3805Y24280
X2805Y24820
X2805Y23730
X3805Y23190
X2805Y22650
X2805Y21560
X3805Y21020
X3805Y19930
X2805Y19390
X2805Y18300
X3805Y17760
X2805Y17210
X3805Y16670
X3805Y15580
X2805Y15040
X2805Y13950
X3805Y13410
X3805Y14500
X2805Y16130
X3805Y18840
X2805Y20470
X3805Y22100
X2305Y8430
X2305Y5930
X32305Y16180
X32305Y22180
T06
X38555Y23680
X38555Y24680
X38555Y25680
X38555Y26680
X38555Y27680
X38555Y28680
X38555Y29680
X38555Y30680
X38555Y31680
X38555Y32680
X34555Y38430
X33555Y38430
X38555Y14680
X38555Y13680
X38555Y12680
X38555Y11680
X38555Y10680
X38555Y9680
X38555Y8680
X38555Y7680
X38555Y6680
X38555Y5680
T07
X33047Y1940
X31047Y1940
X38046Y18172
X38046Y20172
T08
X12392Y35430
X7219Y35430
T09
X3061Y2936
X3061Y36794
X36920Y36794
X36920Y2936
T10
X3305Y10670
X3305Y29190
M30
